<?xml version="1.0" encoding="utf-8"?>
<svg xmlns="http://www.w3.org/2000/svg" xmlns:xlink="http://www.w3.org/1999/xlink" width="600" height="400" viewBox="0 0 2400 1600">
<defs>
  <clipPath id="clip570">
    <rect x="0" y="0" width="2400" height="1600"/>
  </clipPath>
</defs>
<path clip-path="url(#clip570)" d="M0 1600 L2400 1600 L2400 0 L0 0  Z" fill="#ffffff" fill-rule="evenodd" fill-opacity="1"/>
<defs>
  <clipPath id="clip571">
    <rect x="480" y="0" width="1681" height="1600"/>
  </clipPath>
</defs>
<path clip-path="url(#clip570)" d="M268.094 1324.16 L2352.76 1324.16 L2352.76 47.2441 L268.094 47.2441  Z" fill="#ffffff" fill-rule="evenodd" fill-opacity="1"/>
<defs>
  <clipPath id="clip572">
    <rect x="268" y="47" width="2086" height="1278"/>
  </clipPath>
</defs>
<polyline clip-path="url(#clip572)" style="stroke:#000000; stroke-linecap:round; stroke-linejoin:round; stroke-width:2; stroke-opacity:0.1; fill:none" points="268.094,1324.16 268.094,47.2441 "/>
<polyline clip-path="url(#clip572)" style="stroke:#000000; stroke-linecap:round; stroke-linejoin:round; stroke-width:2; stroke-opacity:0.1; fill:none" points="685.027,1324.16 685.027,47.2441 "/>
<polyline clip-path="url(#clip572)" style="stroke:#000000; stroke-linecap:round; stroke-linejoin:round; stroke-width:2; stroke-opacity:0.1; fill:none" points="1101.96,1324.16 1101.96,47.2441 "/>
<polyline clip-path="url(#clip572)" style="stroke:#000000; stroke-linecap:round; stroke-linejoin:round; stroke-width:2; stroke-opacity:0.1; fill:none" points="1518.89,1324.16 1518.89,47.2441 "/>
<polyline clip-path="url(#clip572)" style="stroke:#000000; stroke-linecap:round; stroke-linejoin:round; stroke-width:2; stroke-opacity:0.1; fill:none" points="1935.82,1324.16 1935.82,47.2441 "/>
<polyline clip-path="url(#clip572)" style="stroke:#000000; stroke-linecap:round; stroke-linejoin:round; stroke-width:2; stroke-opacity:0.1; fill:none" points="2352.76,1324.16 2352.76,47.2441 "/>
<polyline clip-path="url(#clip570)" style="stroke:#000000; stroke-linecap:round; stroke-linejoin:round; stroke-width:4; stroke-opacity:1; fill:none" points="268.094,1324.16 2352.76,1324.16 "/>
<polyline clip-path="url(#clip570)" style="stroke:#000000; stroke-linecap:round; stroke-linejoin:round; stroke-width:4; stroke-opacity:1; fill:none" points="268.094,1324.16 268.094,1305.26 "/>
<polyline clip-path="url(#clip570)" style="stroke:#000000; stroke-linecap:round; stroke-linejoin:round; stroke-width:4; stroke-opacity:1; fill:none" points="685.027,1324.16 685.027,1305.26 "/>
<polyline clip-path="url(#clip570)" style="stroke:#000000; stroke-linecap:round; stroke-linejoin:round; stroke-width:4; stroke-opacity:1; fill:none" points="1101.96,1324.16 1101.96,1305.26 "/>
<polyline clip-path="url(#clip570)" style="stroke:#000000; stroke-linecap:round; stroke-linejoin:round; stroke-width:4; stroke-opacity:1; fill:none" points="1518.89,1324.16 1518.89,1305.26 "/>
<polyline clip-path="url(#clip570)" style="stroke:#000000; stroke-linecap:round; stroke-linejoin:round; stroke-width:4; stroke-opacity:1; fill:none" points="1935.82,1324.16 1935.82,1305.26 "/>
<polyline clip-path="url(#clip570)" style="stroke:#000000; stroke-linecap:round; stroke-linejoin:round; stroke-width:4; stroke-opacity:1; fill:none" points="2352.76,1324.16 2352.76,1305.26 "/>
<path clip-path="url(#clip570)" d="M268.094 1355.08 Q264.483 1355.08 262.655 1358.64 Q260.849 1362.18 260.849 1369.31 Q260.849 1376.42 262.655 1379.98 Q264.483 1383.53 268.094 1383.53 Q271.729 1383.53 273.534 1379.98 Q275.363 1376.42 275.363 1369.31 Q275.363 1362.18 273.534 1358.64 Q271.729 1355.08 268.094 1355.08 M268.094 1351.37 Q273.905 1351.37 276.96 1355.98 Q280.039 1360.56 280.039 1369.31 Q280.039 1378.04 276.96 1382.65 Q273.905 1387.23 268.094 1387.23 Q262.284 1387.23 259.206 1382.65 Q256.15 1378.04 256.15 1369.31 Q256.15 1360.56 259.206 1355.98 Q262.284 1351.37 268.094 1351.37 Z" fill="#000000" fill-rule="nonzero" fill-opacity="1" /><path clip-path="url(#clip570)" d="M679.68 1382.62 L695.999 1382.62 L695.999 1386.56 L674.055 1386.56 L674.055 1382.62 Q676.717 1379.87 681.3 1375.24 Q685.906 1370.59 687.087 1369.24 Q689.332 1366.72 690.212 1364.98 Q691.115 1363.22 691.115 1361.53 Q691.115 1358.78 689.17 1357.04 Q687.249 1355.31 684.147 1355.31 Q681.948 1355.31 679.494 1356.07 Q677.064 1356.84 674.286 1358.39 L674.286 1353.66 Q677.11 1352.53 679.564 1351.95 Q682.018 1351.37 684.055 1351.37 Q689.425 1351.37 692.619 1354.06 Q695.814 1356.74 695.814 1361.23 Q695.814 1363.36 695.004 1365.28 Q694.217 1367.18 692.11 1369.78 Q691.531 1370.45 688.43 1373.66 Q685.328 1376.86 679.68 1382.62 Z" fill="#000000" fill-rule="nonzero" fill-opacity="1" /><path clip-path="url(#clip570)" d="M1104.97 1356.07 L1093.16 1374.52 L1104.97 1374.52 L1104.97 1356.07 M1103.74 1352 L1109.62 1352 L1109.62 1374.52 L1114.55 1374.52 L1114.55 1378.41 L1109.62 1378.41 L1109.62 1386.56 L1104.97 1386.56 L1104.97 1378.41 L1089.37 1378.41 L1089.37 1373.9 L1103.74 1352 Z" fill="#000000" fill-rule="nonzero" fill-opacity="1" /><path clip-path="url(#clip570)" d="M1519.3 1367.41 Q1516.15 1367.41 1514.3 1369.57 Q1512.47 1371.72 1512.47 1375.47 Q1512.47 1379.2 1514.3 1381.37 Q1516.15 1383.53 1519.3 1383.53 Q1522.44 1383.53 1524.27 1381.37 Q1526.13 1379.2 1526.13 1375.47 Q1526.13 1371.72 1524.27 1369.57 Q1522.44 1367.41 1519.3 1367.41 M1528.58 1352.76 L1528.58 1357.02 Q1526.82 1356.19 1525.01 1355.75 Q1523.23 1355.31 1521.47 1355.31 Q1516.84 1355.31 1514.39 1358.43 Q1511.96 1361.56 1511.61 1367.88 Q1512.98 1365.86 1515.04 1364.8 Q1517.1 1363.71 1519.57 1363.71 Q1524.78 1363.71 1527.79 1366.88 Q1530.82 1370.03 1530.82 1375.47 Q1530.82 1380.79 1527.68 1384.01 Q1524.53 1387.23 1519.3 1387.23 Q1513.3 1387.23 1510.13 1382.65 Q1506.96 1378.04 1506.96 1369.31 Q1506.96 1361.12 1510.85 1356.26 Q1514.74 1351.37 1521.29 1351.37 Q1523.05 1351.37 1524.83 1351.72 Q1526.63 1352.07 1528.58 1352.76 Z" fill="#000000" fill-rule="nonzero" fill-opacity="1" /><path clip-path="url(#clip570)" d="M1935.82 1370.15 Q1932.49 1370.15 1930.57 1371.93 Q1928.67 1373.71 1928.67 1376.84 Q1928.67 1379.96 1930.57 1381.74 Q1932.49 1383.53 1935.82 1383.53 Q1939.16 1383.53 1941.08 1381.74 Q1943 1379.94 1943 1376.84 Q1943 1373.71 1941.08 1371.93 Q1939.18 1370.15 1935.82 1370.15 M1931.15 1368.15 Q1928.14 1367.41 1926.45 1365.35 Q1924.78 1363.29 1924.78 1360.33 Q1924.78 1356.19 1927.72 1353.78 Q1930.68 1351.37 1935.82 1351.37 Q1940.99 1351.37 1943.93 1353.78 Q1946.87 1356.19 1946.87 1360.33 Q1946.87 1363.29 1945.18 1365.35 Q1943.51 1367.41 1940.52 1368.15 Q1943.9 1368.94 1945.78 1371.23 Q1947.68 1373.53 1947.68 1376.84 Q1947.68 1381.86 1944.6 1384.54 Q1941.54 1387.23 1935.82 1387.23 Q1930.11 1387.23 1927.03 1384.54 Q1923.97 1381.86 1923.97 1376.84 Q1923.97 1373.53 1925.87 1371.23 Q1927.77 1368.94 1931.15 1368.15 M1929.43 1360.77 Q1929.43 1363.46 1931.1 1364.96 Q1932.79 1366.46 1935.82 1366.46 Q1938.83 1366.46 1940.52 1364.96 Q1942.24 1363.46 1942.24 1360.77 Q1942.24 1358.09 1940.52 1356.58 Q1938.83 1355.08 1935.82 1355.08 Q1932.79 1355.08 1931.1 1356.58 Q1929.43 1358.09 1929.43 1360.77 Z" fill="#000000" fill-rule="nonzero" fill-opacity="1" /><path clip-path="url(#clip570)" d="M2327.44 1382.62 L2335.08 1382.62 L2335.08 1356.26 L2326.77 1357.92 L2326.77 1353.66 L2335.04 1352 L2339.71 1352 L2339.71 1382.62 L2347.35 1382.62 L2347.35 1386.56 L2327.44 1386.56 L2327.44 1382.62 Z" fill="#000000" fill-rule="nonzero" fill-opacity="1" /><path clip-path="url(#clip570)" d="M2366.8 1355.08 Q2363.18 1355.08 2361.36 1358.64 Q2359.55 1362.18 2359.55 1369.31 Q2359.55 1376.42 2361.36 1379.98 Q2363.18 1383.53 2366.8 1383.53 Q2370.43 1383.53 2372.23 1379.98 Q2374.06 1376.42 2374.06 1369.31 Q2374.06 1362.18 2372.23 1358.64 Q2370.43 1355.08 2366.8 1355.08 M2366.8 1351.37 Q2372.61 1351.37 2375.66 1355.98 Q2378.74 1360.56 2378.74 1369.31 Q2378.74 1378.04 2375.66 1382.65 Q2372.61 1387.23 2366.8 1387.23 Q2360.99 1387.23 2357.91 1382.65 Q2354.85 1378.04 2354.85 1369.31 Q2354.85 1360.56 2357.91 1355.98 Q2360.99 1351.37 2366.8 1351.37 Z" fill="#000000" fill-rule="nonzero" fill-opacity="1" /><path clip-path="url(#clip570)" d="M1309.49 1423.25 L1309.49 1433.37 L1321.55 1433.37 L1321.55 1437.93 L1309.49 1437.93 L1309.49 1457.28 Q1309.49 1461.64 1310.66 1462.88 Q1311.87 1464.12 1315.53 1464.12 L1321.55 1464.12 L1321.55 1469.02 L1315.53 1469.02 Q1308.75 1469.02 1306.18 1466.51 Q1303.6 1463.96 1303.6 1457.28 L1303.6 1437.93 L1299.3 1437.93 L1299.3 1433.37 L1303.6 1433.37 L1303.6 1423.25 L1309.49 1423.25 Z" fill="#000000" fill-rule="nonzero" fill-opacity="1" /><polyline clip-path="url(#clip572)" style="stroke:#000000; stroke-linecap:round; stroke-linejoin:round; stroke-width:2; stroke-opacity:0.1; fill:none" points="268.094,1316.42 2352.76,1316.42 "/>
<polyline clip-path="url(#clip572)" style="stroke:#000000; stroke-linecap:round; stroke-linejoin:round; stroke-width:2; stroke-opacity:0.1; fill:none" points="268.094,1037.21 2352.76,1037.21 "/>
<polyline clip-path="url(#clip572)" style="stroke:#000000; stroke-linecap:round; stroke-linejoin:round; stroke-width:2; stroke-opacity:0.1; fill:none" points="268.094,758 2352.76,758 "/>
<polyline clip-path="url(#clip572)" style="stroke:#000000; stroke-linecap:round; stroke-linejoin:round; stroke-width:2; stroke-opacity:0.1; fill:none" points="268.094,478.789 2352.76,478.789 "/>
<polyline clip-path="url(#clip572)" style="stroke:#000000; stroke-linecap:round; stroke-linejoin:round; stroke-width:2; stroke-opacity:0.1; fill:none" points="268.094,199.577 2352.76,199.577 "/>
<polyline clip-path="url(#clip570)" style="stroke:#000000; stroke-linecap:round; stroke-linejoin:round; stroke-width:4; stroke-opacity:1; fill:none" points="268.094,1324.16 268.094,47.2441 "/>
<polyline clip-path="url(#clip570)" style="stroke:#000000; stroke-linecap:round; stroke-linejoin:round; stroke-width:4; stroke-opacity:1; fill:none" points="268.094,1316.42 286.992,1316.42 "/>
<polyline clip-path="url(#clip570)" style="stroke:#000000; stroke-linecap:round; stroke-linejoin:round; stroke-width:4; stroke-opacity:1; fill:none" points="268.094,1037.21 286.992,1037.21 "/>
<polyline clip-path="url(#clip570)" style="stroke:#000000; stroke-linecap:round; stroke-linejoin:round; stroke-width:4; stroke-opacity:1; fill:none" points="268.094,758 286.992,758 "/>
<polyline clip-path="url(#clip570)" style="stroke:#000000; stroke-linecap:round; stroke-linejoin:round; stroke-width:4; stroke-opacity:1; fill:none" points="268.094,478.789 286.992,478.789 "/>
<polyline clip-path="url(#clip570)" style="stroke:#000000; stroke-linecap:round; stroke-linejoin:round; stroke-width:4; stroke-opacity:1; fill:none" points="268.094,199.577 286.992,199.577 "/>
<path clip-path="url(#clip570)" d="M174.919 1302.22 Q171.308 1302.22 169.479 1305.79 Q167.674 1309.33 167.674 1316.46 Q167.674 1323.56 169.479 1327.13 Q171.308 1330.67 174.919 1330.67 Q178.553 1330.67 180.359 1327.13 Q182.187 1323.56 182.187 1316.46 Q182.187 1309.33 180.359 1305.79 Q178.553 1302.22 174.919 1302.22 M174.919 1298.52 Q180.729 1298.52 183.785 1303.12 Q186.863 1307.71 186.863 1316.46 Q186.863 1325.18 183.785 1329.79 Q180.729 1334.37 174.919 1334.37 Q169.109 1334.37 166.03 1329.79 Q162.974 1325.18 162.974 1316.46 Q162.974 1307.71 166.03 1303.12 Q169.109 1298.52 174.919 1298.52 Z" fill="#000000" fill-rule="nonzero" fill-opacity="1" /><path clip-path="url(#clip570)" d="M195.081 1327.82 L199.965 1327.82 L199.965 1333.7 L195.081 1333.7 L195.081 1327.82 Z" fill="#000000" fill-rule="nonzero" fill-opacity="1" /><path clip-path="url(#clip570)" d="M220.15 1302.22 Q216.539 1302.22 214.71 1305.79 Q212.905 1309.33 212.905 1316.46 Q212.905 1323.56 214.71 1327.13 Q216.539 1330.67 220.15 1330.67 Q223.784 1330.67 225.59 1327.13 Q227.419 1323.56 227.419 1316.46 Q227.419 1309.33 225.59 1305.79 Q223.784 1302.22 220.15 1302.22 M220.15 1298.52 Q225.96 1298.52 229.016 1303.12 Q232.094 1307.71 232.094 1316.46 Q232.094 1325.18 229.016 1329.79 Q225.96 1334.37 220.15 1334.37 Q214.34 1334.37 211.261 1329.79 Q208.206 1325.18 208.206 1316.46 Q208.206 1307.71 211.261 1303.12 Q214.34 1298.52 220.15 1298.52 Z" fill="#000000" fill-rule="nonzero" fill-opacity="1" /><path clip-path="url(#clip570)" d="M169.942 1050.56 L186.261 1050.56 L186.261 1054.49 L164.317 1054.49 L164.317 1050.56 Q166.979 1047.8 171.562 1043.17 Q176.169 1038.52 177.349 1037.18 Q179.595 1034.65 180.474 1032.92 Q181.377 1031.16 181.377 1029.47 Q181.377 1026.71 179.433 1024.98 Q177.511 1023.24 174.41 1023.24 Q172.211 1023.24 169.757 1024.01 Q167.326 1024.77 164.549 1026.32 L164.549 1021.6 Q167.373 1020.46 169.826 1019.89 Q172.28 1019.31 174.317 1019.31 Q179.687 1019.31 182.882 1021.99 Q186.076 1024.68 186.076 1029.17 Q186.076 1031.3 185.266 1033.22 Q184.479 1035.12 182.373 1037.71 Q181.794 1038.38 178.692 1041.6 Q175.59 1044.79 169.942 1050.56 Z" fill="#000000" fill-rule="nonzero" fill-opacity="1" /><path clip-path="url(#clip570)" d="M196.076 1048.61 L200.96 1048.61 L200.96 1054.49 L196.076 1054.49 L196.076 1048.61 Z" fill="#000000" fill-rule="nonzero" fill-opacity="1" /><path clip-path="url(#clip570)" d="M211.192 1019.93 L229.548 1019.93 L229.548 1023.87 L215.474 1023.87 L215.474 1032.34 Q216.493 1031.99 217.511 1031.83 Q218.53 1031.64 219.548 1031.64 Q225.335 1031.64 228.715 1034.82 Q232.094 1037.99 232.094 1043.4 Q232.094 1048.98 228.622 1052.08 Q225.15 1055.16 218.831 1055.16 Q216.655 1055.16 214.386 1054.79 Q212.141 1054.42 209.733 1053.68 L209.733 1048.98 Q211.817 1050.12 214.039 1050.67 Q216.261 1051.23 218.738 1051.23 Q222.743 1051.23 225.081 1049.12 Q227.419 1047.01 227.419 1043.4 Q227.419 1039.79 225.081 1037.69 Q222.743 1035.58 218.738 1035.58 Q216.863 1035.58 214.988 1036 Q213.136 1036.41 211.192 1037.29 L211.192 1019.93 Z" fill="#000000" fill-rule="nonzero" fill-opacity="1" /><path clip-path="url(#clip570)" d="M164.965 740.72 L183.322 740.72 L183.322 744.655 L169.248 744.655 L169.248 753.127 Q170.266 752.78 171.285 752.618 Q172.303 752.433 173.322 752.433 Q179.109 752.433 182.488 755.604 Q185.868 758.776 185.868 764.192 Q185.868 769.771 182.396 772.873 Q178.923 775.951 172.604 775.951 Q170.428 775.951 168.16 775.581 Q165.914 775.211 163.507 774.47 L163.507 769.771 Q165.59 770.905 167.812 771.461 Q170.035 772.016 172.511 772.016 Q176.516 772.016 178.854 769.91 Q181.192 767.803 181.192 764.192 Q181.192 760.581 178.854 758.475 Q176.516 756.368 172.511 756.368 Q170.636 756.368 168.761 756.785 Q166.91 757.202 164.965 758.081 L164.965 740.72 Z" fill="#000000" fill-rule="nonzero" fill-opacity="1" /><path clip-path="url(#clip570)" d="M195.081 769.401 L199.965 769.401 L199.965 775.28 L195.081 775.28 L195.081 769.401 Z" fill="#000000" fill-rule="nonzero" fill-opacity="1" /><path clip-path="url(#clip570)" d="M220.15 743.799 Q216.539 743.799 214.71 747.364 Q212.905 750.905 212.905 758.035 Q212.905 765.141 214.71 768.706 Q216.539 772.248 220.15 772.248 Q223.784 772.248 225.59 768.706 Q227.419 765.141 227.419 758.035 Q227.419 750.905 225.59 747.364 Q223.784 743.799 220.15 743.799 M220.15 740.095 Q225.96 740.095 229.016 744.702 Q232.094 749.285 232.094 758.035 Q232.094 766.762 229.016 771.368 Q225.96 775.951 220.15 775.951 Q214.34 775.951 211.261 771.368 Q208.206 766.762 208.206 758.035 Q208.206 749.285 211.261 744.702 Q214.34 740.095 220.15 740.095 Z" fill="#000000" fill-rule="nonzero" fill-opacity="1" /><path clip-path="url(#clip570)" d="M164.734 461.509 L186.956 461.509 L186.956 463.499 L174.41 496.069 L169.525 496.069 L181.331 465.444 L164.734 465.444 L164.734 461.509 Z" fill="#000000" fill-rule="nonzero" fill-opacity="1" /><path clip-path="url(#clip570)" d="M196.076 490.189 L200.96 490.189 L200.96 496.069 L196.076 496.069 L196.076 490.189 Z" fill="#000000" fill-rule="nonzero" fill-opacity="1" /><path clip-path="url(#clip570)" d="M211.192 461.509 L229.548 461.509 L229.548 465.444 L215.474 465.444 L215.474 473.916 Q216.493 473.569 217.511 473.407 Q218.53 473.221 219.548 473.221 Q225.335 473.221 228.715 476.393 Q232.094 479.564 232.094 484.981 Q232.094 490.559 228.622 493.661 Q225.15 496.74 218.831 496.74 Q216.655 496.74 214.386 496.369 Q212.141 495.999 209.733 495.258 L209.733 490.559 Q211.817 491.694 214.039 492.249 Q216.261 492.805 218.738 492.805 Q222.743 492.805 225.081 490.698 Q227.419 488.592 227.419 484.981 Q227.419 481.37 225.081 479.263 Q222.743 477.157 218.738 477.157 Q216.863 477.157 214.988 477.573 Q213.136 477.99 211.192 478.87 L211.192 461.509 Z" fill="#000000" fill-rule="nonzero" fill-opacity="1" /><path clip-path="url(#clip570)" d="M135.567 212.922 L143.206 212.922 L143.206 186.556 L134.896 188.223 L134.896 183.964 L143.16 182.297 L147.836 182.297 L147.836 212.922 L155.475 212.922 L155.475 216.857 L135.567 216.857 L135.567 212.922 Z" fill="#000000" fill-rule="nonzero" fill-opacity="1" /><path clip-path="url(#clip570)" d="M174.919 185.376 Q171.308 185.376 169.479 188.94 Q167.674 192.482 167.674 199.612 Q167.674 206.718 169.479 210.283 Q171.308 213.825 174.919 213.825 Q178.553 213.825 180.359 210.283 Q182.187 206.718 182.187 199.612 Q182.187 192.482 180.359 188.94 Q178.553 185.376 174.919 185.376 M174.919 181.672 Q180.729 181.672 183.785 186.278 Q186.863 190.862 186.863 199.612 Q186.863 208.339 183.785 212.945 Q180.729 217.528 174.919 217.528 Q169.109 217.528 166.03 212.945 Q162.974 208.339 162.974 199.612 Q162.974 190.862 166.03 186.278 Q169.109 181.672 174.919 181.672 Z" fill="#000000" fill-rule="nonzero" fill-opacity="1" /><path clip-path="url(#clip570)" d="M195.081 210.977 L199.965 210.977 L199.965 216.857 L195.081 216.857 L195.081 210.977 Z" fill="#000000" fill-rule="nonzero" fill-opacity="1" /><path clip-path="url(#clip570)" d="M220.15 185.376 Q216.539 185.376 214.71 188.94 Q212.905 192.482 212.905 199.612 Q212.905 206.718 214.71 210.283 Q216.539 213.825 220.15 213.825 Q223.784 213.825 225.59 210.283 Q227.419 206.718 227.419 199.612 Q227.419 192.482 225.59 188.94 Q223.784 185.376 220.15 185.376 M220.15 181.672 Q225.96 181.672 229.016 186.278 Q232.094 190.862 232.094 199.612 Q232.094 208.339 229.016 212.945 Q225.96 217.528 220.15 217.528 Q214.34 217.528 211.261 212.945 Q208.206 208.339 208.206 199.612 Q208.206 190.862 211.261 186.278 Q214.34 181.672 220.15 181.672 Z" fill="#000000" fill-rule="nonzero" fill-opacity="1" /><polyline clip-path="url(#clip572)" style="stroke:#009af9; stroke-linecap:round; stroke-linejoin:round; stroke-width:8; stroke-opacity:1; fill:none" points="268.094,199.577 270.181,241.851 272.268,301.634 274.355,389.684 276.441,522.949 278.528,717.806 280.615,952.95 282.702,1139.57 284.788,1230.25 286.875,1262.15 288.962,1271.88 291.049,1274.6 293.135,1275.17 295.222,1275.09 297.309,1274.8 299.396,1274.45 301.482,1274.07 303.569,1273.68 305.656,1273.28 307.743,1272.89 309.829,1272.48 311.916,1272.08 314.003,1271.67 316.09,1271.25 318.176,1270.83 320.263,1270.41 322.35,1269.99 324.437,1269.56 326.523,1269.13 328.61,1268.69 330.697,1268.26 332.784,1267.81 334.87,1267.37 336.957,1266.92 339.044,1266.46 341.131,1266 343.217,1265.54 345.304,1265.07 347.391,1264.61 349.478,1264.13 351.564,1263.65 353.651,1263.17 355.738,1262.68 357.825,1262.19 359.911,1261.7 361.998,1261.2 364.085,1260.7 366.172,1260.19 368.258,1259.68 370.345,1259.17 372.432,1258.65 374.519,1258.12 376.605,1257.59 378.692,1257.06 380.779,1256.52 382.866,1255.98 384.952,1255.43 387.039,1254.88 389.126,1254.33 391.213,1253.77 393.299,1253.2 395.386,1252.63 397.473,1252.06 399.56,1251.48 401.646,1250.9 403.733,1250.31 405.82,1249.71 407.907,1249.12 409.993,1248.51 412.08,1247.9 414.167,1247.29 416.254,1246.67 418.34,1246.05 420.427,1245.42 422.514,1244.79 424.601,1244.15 426.687,1243.5 428.774,1242.85 430.861,1242.2 432.948,1241.54 435.034,1240.87 437.121,1240.2 439.208,1239.52 441.295,1238.84 443.381,1238.15 445.468,1237.46 447.555,1236.76 449.642,1236.06 451.728,1235.35 453.815,1234.63 455.902,1233.91 457.989,1233.18 460.075,1232.45 462.162,1231.71 464.249,1230.96 466.336,1230.21 468.422,1229.45 470.509,1228.69 472.596,1227.92 474.683,1227.14 476.769,1226.36 478.856,1225.57 480.943,1224.78 483.03,1223.98 485.116,1223.17 487.203,1222.35 489.29,1221.53 491.377,1220.71 493.463,1219.87 495.55,1219.03 497.637,1218.18 499.724,1217.33 501.81,1216.47 503.897,1215.6 505.984,1214.72 508.071,1213.84 510.157,1212.95 512.244,1212.06 514.331,1211.15 516.418,1210.24 518.504,1209.33 520.591,1208.4 522.678,1207.47 524.765,1206.53 526.851,1205.58 528.938,1204.63 531.025,1203.66 533.112,1202.69 535.198,1201.72 537.285,1200.73 539.372,1199.74 541.458,1198.74 543.545,1197.73 545.632,1196.71 547.719,1195.69 549.805,1194.65 551.892,1193.61 553.979,1192.56 556.066,1191.51 558.152,1190.44 560.239,1189.37 562.326,1188.28 564.413,1187.19 566.499,1186.09 568.586,1184.98 570.673,1183.87 572.76,1182.74 574.846,1181.61 576.933,1180.47 579.02,1179.31 581.107,1178.15 583.193,1176.98 585.28,1175.81 587.367,1174.62 589.454,1173.42 591.54,1172.22 593.627,1171 595.714,1169.78 597.801,1168.55 599.887,1167.3 601.974,1166.05 604.061,1164.79 606.148,1163.52 608.234,1162.24 610.321,1160.95 612.408,1159.65 614.495,1158.34 616.581,1157.03 618.668,1155.7 620.755,1154.36 622.842,1153.01 624.928,1151.66 627.015,1150.29 629.102,1148.91 631.189,1147.53 633.275,1146.13 635.362,1144.73 637.449,1143.31 639.536,1141.89 641.622,1140.45 643.709,1139.01 645.796,1137.56 647.883,1136.09 649.969,1134.62 652.056,1133.14 654.143,1131.65 656.23,1130.15 658.316,1128.63 660.403,1127.11 662.49,1125.58 664.577,1124.05 666.663,1122.5 668.75,1120.94 670.837,1119.37 672.924,1117.8 675.01,1116.21 677.097,1114.62 679.184,1113.02 681.271,1111.41 683.357,1109.79 685.444,1108.16 687.531,1106.53 689.618,1104.89 691.704,1103.24 693.791,1101.58 695.878,1099.91 697.965,1098.24 700.051,1096.56 702.138,1094.87 704.225,1093.18 706.312,1091.48 708.398,1089.77 710.485,1088.06 712.572,1086.34 714.659,1084.62 716.745,1082.89 718.832,1081.16 720.919,1079.42 723.006,1077.68 725.092,1075.93 727.179,1074.18 729.266,1072.43 731.353,1070.68 733.439,1068.92 735.526,1067.16 737.613,1065.39 739.7,1063.63 741.786,1061.86 743.873,1060.1 745.96,1058.33 748.047,1056.56 750.133,1054.79 752.22,1053.03 754.307,1051.26 756.394,1049.5 758.48,1047.73 760.567,1045.97 762.654,1044.21 764.741,1042.46 766.827,1040.71 768.914,1038.96 771.001,1037.21 773.088,1035.47 775.174,1033.74 777.261,1032.01 779.348,1030.28 781.435,1028.56 783.521,1026.85 785.608,1025.14 787.695,1023.44 789.782,1021.75 791.868,1020.06 793.955,1018.38 796.042,1016.71 798.129,1015.05 800.215,1013.4 802.302,1011.76 804.389,1010.12 806.476,1008.5 808.562,1006.88 810.649,1005.28 812.736,1003.68 814.823,1002.09 816.909,1000.52 818.996,998.954 821.083,997.4 823.17,995.857 825.256,994.324 827.343,992.803 829.43,991.293 831.516,989.794 833.603,988.307 835.69,986.831 837.777,985.366 839.863,983.912 841.95,982.47 844.037,981.04 846.124,979.621 848.21,978.213 850.297,976.816 852.384,975.431 854.471,974.057 856.557,972.694 858.644,971.342 860.731,970.002 862.818,968.673 864.904,967.355 866.991,966.047 869.078,964.751 871.165,963.465 873.251,962.189 875.338,960.924 877.425,959.669 879.512,958.424 881.598,957.189 883.685,955.964 885.772,954.749 887.859,953.543 889.945,952.347 892.032,951.159 894.119,949.981 896.206,948.812 898.292,947.651 900.379,946.5 902.466,945.356 904.553,944.221 906.639,943.094 908.726,941.975 910.813,940.864 912.9,939.76 914.986,938.664 917.073,937.575 919.16,936.494 921.247,935.419 923.333,934.351 925.42,933.29 927.507,932.236 929.594,931.188 931.68,930.146 933.767,929.11 935.854,928.08 937.941,927.056 940.027,926.037 942.114,925.024 944.201,924.016 946.288,923.013 948.374,922.016 950.461,921.023 952.548,920.035 954.635,919.052 956.721,918.074 958.808,917.099 960.895,916.13 962.982,915.164 965.068,914.202 967.155,913.245 969.242,912.291 971.329,911.341 973.415,910.395 975.502,909.453 977.589,908.514 979.676,907.578 981.762,906.646 983.849,905.716 985.936,904.79 988.023,903.867 990.109,902.947 992.196,902.029 994.283,901.115 996.37,900.203 998.456,899.293 1000.54,898.386 1002.63,897.482 1004.72,896.58 1006.8,895.68 1008.89,894.783 1010.98,893.888 1013.06,892.995 1015.15,892.104 1017.24,891.215 1019.32,890.328 1021.41,889.443 1023.5,888.56 1025.58,887.678 1027.67,886.799 1029.76,885.921 1031.84,885.045 1033.93,884.17 1036.02,883.297 1038.1,882.425 1040.19,881.555 1042.28,880.686 1044.36,879.819 1046.45,878.953 1048.54,878.088 1050.63,877.225 1052.71,876.363 1054.8,875.502 1056.89,874.642 1058.97,873.783 1061.06,872.925 1063.15,872.069 1065.23,871.214 1067.32,870.359 1069.41,869.506 1071.49,868.653 1073.58,867.802 1075.67,866.952 1077.75,866.102 1079.84,865.253 1081.93,864.406 1084.01,863.559 1086.1,862.713 1088.19,861.868 1090.27,861.023 1092.36,860.179 1094.45,859.336 1096.53,858.494 1098.62,857.653 1100.71,856.812 1102.79,855.972 1104.88,855.132 1106.97,854.293 1109.05,853.455 1111.14,852.618 1113.23,851.781 1115.31,850.944 1117.4,850.109 1119.49,849.273 1121.57,848.439 1123.66,847.605 1125.75,846.771 1127.83,845.938 1129.92,845.106 1132.01,844.274 1134.09,843.443 1136.18,842.612 1138.27,841.781 1140.36,840.951 1142.44,840.122 1144.53,839.293 1146.62,838.464 1148.7,837.636 1150.79,836.808 1152.88,835.981 1154.96,835.154 1157.05,834.328 1159.14,833.502 1161.22,832.676 1163.31,831.851 1165.4,831.026 1167.48,830.202 1169.57,829.378 1171.66,828.554 1173.74,827.731 1175.83,826.908 1177.92,826.085 1180,825.263 1182.09,824.441 1184.18,823.62 1186.26,822.799 1188.35,821.978 1190.44,821.158 1192.52,820.337 1194.61,819.518 1196.7,818.698 1198.78,817.879 1200.87,817.061 1202.96,816.242 1205.04,815.424 1207.13,814.606 1209.22,813.789 1211.3,812.972 1213.39,812.155 1215.48,811.339 1217.56,810.522 1219.65,809.707 1221.74,808.891 1223.83,808.076 1225.91,807.261 1228,806.446 1230.09,805.632 1232.17,804.818 1234.26,804.004 1236.35,803.191 1238.43,802.378 1240.52,801.565 1242.61,800.752 1244.69,799.94 1246.78,799.128 1248.87,798.317 1250.95,797.505 1253.04,796.694 1255.13,795.883 1257.21,795.073 1259.3,794.263 1261.39,793.453 1263.47,792.643 1265.56,791.834 1267.65,791.025 1269.73,790.216 1271.82,789.407 1273.91,788.599 1275.99,787.791 1278.08,786.984 1280.17,786.176 1282.25,785.369 1284.34,784.562 1286.43,783.756 1288.51,782.95 1290.6,782.144 1292.69,781.338 1294.77,780.533 1296.86,779.727 1298.95,778.923 1301.03,778.118 1303.12,777.314 1305.21,776.51 1307.3,775.706 1309.38,774.903 1311.47,774.1 1313.56,773.297 1315.64,772.494 1317.73,771.692 1319.82,770.89 1321.9,770.089 1323.99,769.287 1326.08,768.486 1328.16,767.685 1330.25,766.885 1332.34,766.084 1334.42,765.285 1336.51,764.485 1338.6,763.685 1340.68,762.886 1342.77,762.088 1344.86,761.289 1346.94,760.491 1349.03,759.693 1351.12,758.895 1353.2,758.098 1355.29,757.301 1357.38,756.504 1359.46,755.708 1361.55,754.912 1363.64,754.116 1365.72,753.32 1367.81,752.525 1369.9,751.73 1371.98,750.936 1374.07,750.141 1376.16,749.347 1378.24,748.554 1380.33,747.76 1382.42,746.967 1384.5,746.174 1386.59,745.382 1388.68,744.589 1390.77,743.798 1392.85,743.006 1394.94,742.215 1397.03,741.424 1399.11,740.633 1401.2,739.843 1403.29,739.053 1405.37,738.263 1407.46,737.474 1409.55,736.685 1411.63,735.896 1413.72,735.107 1415.81,734.319 1417.89,733.532 1419.98,732.744 1422.07,731.957 1424.15,731.17 1426.24,730.384 1428.33,729.597 1430.41,728.812 1432.5,728.026 1434.59,727.241 1436.67,726.456 1438.76,725.672 1440.85,724.887 1442.93,724.104 1445.02,723.32 1447.11,722.537 1449.19,721.754 1451.28,720.972 1453.37,720.19 1455.45,719.408 1457.54,718.627 1459.63,717.845 1461.71,717.065 1463.8,716.284 1465.89,715.504 1467.97,714.725 1470.06,713.945 1472.15,713.166 1474.23,712.388 1476.32,711.61 1478.41,710.832 1480.5,710.054 1482.58,709.277 1484.67,708.5 1486.76,707.724 1488.84,706.948 1490.93,706.172 1493.02,705.397 1495.1,704.622 1497.19,703.847 1499.28,703.073 1501.36,702.299 1503.45,701.526 1505.54,700.753 1507.62,699.98 1509.71,699.208 1511.8,698.436 1513.88,697.664 1515.97,696.893 1518.06,696.123 1520.14,695.352 1522.23,694.582 1524.32,693.813 1526.4,693.044 1528.49,692.275 1530.58,691.506 1532.66,690.739 1534.75,689.971 1536.84,689.204 1538.92,688.437 1541.01,687.671 1543.1,686.905 1545.18,686.139 1547.27,685.374 1549.36,684.61 1551.44,683.845 1553.53,683.082 1555.62,682.318 1557.7,681.555 1559.79,680.793 1561.88,680.031 1563.97,679.269 1566.05,678.508 1568.14,677.747 1570.23,676.987 1572.31,676.227 1574.4,675.468 1576.49,674.709 1578.57,673.95 1580.66,673.192 1582.75,672.434 1584.83,671.677 1586.92,670.92 1589.01,670.164 1591.09,669.408 1593.18,668.653 1595.27,667.898 1597.35,667.144 1599.44,666.39 1601.53,665.636 1603.61,664.883 1605.7,664.131 1607.79,663.379 1609.87,662.628 1611.96,661.877 1614.05,661.126 1616.13,660.376 1618.22,659.627 1620.31,658.878 1622.39,658.129 1624.48,657.381 1626.57,656.634 1628.65,655.887 1630.74,655.14 1632.83,654.395 1634.91,653.649 1637,652.904 1639.09,652.16 1641.17,651.416 1643.26,650.673 1645.35,649.93 1647.44,649.188 1649.52,648.446 1651.61,647.705 1653.7,646.965 1655.78,646.225 1657.87,645.485 1659.96,644.747 1662.04,644.008 1664.13,643.271 1666.22,642.533 1668.3,641.797 1670.39,641.061 1672.48,640.325 1674.56,639.591 1676.65,638.856 1678.74,638.123 1680.82,637.39 1682.91,636.657 1685,635.925 1687.08,635.194 1689.17,634.463 1691.26,633.733 1693.34,633.004 1695.43,632.275 1697.52,631.547 1699.6,630.82 1701.69,630.093 1703.78,629.366 1705.86,628.641 1707.95,627.916 1710.04,627.192 1712.12,626.468 1714.21,625.745 1716.3,625.023 1718.38,624.301 1720.47,623.58 1722.56,622.86 1724.64,622.141 1726.73,621.422 1728.82,620.704 1730.9,619.986 1732.99,619.27 1735.08,618.554 1737.17,617.838 1739.25,617.124 1741.34,616.41 1743.43,615.697 1745.51,614.985 1747.6,614.273 1749.69,613.562 1751.77,612.852 1753.86,612.143 1755.95,611.434 1758.03,610.726 1760.12,610.019 1762.21,609.313 1764.29,608.607 1766.38,607.902 1768.47,607.199 1770.55,606.496 1772.64,605.793 1774.73,605.092 1776.81,604.392 1778.9,603.692 1780.99,602.993 1783.07,602.295 1785.16,601.598 1787.25,600.902 1789.33,600.207 1791.42,599.513 1793.51,598.819 1795.59,598.127 1797.68,597.435 1799.77,596.744 1801.85,596.055 1803.94,595.366 1806.03,594.678 1808.11,593.991 1810.2,593.305 1812.29,592.62 1814.37,591.936 1816.46,591.253 1818.55,590.571 1820.64,589.89 1822.72,589.209 1824.81,588.53 1826.9,587.852 1828.98,587.175 1831.07,586.499 1833.16,585.824 1835.24,585.151 1837.33,584.478 1839.42,583.806 1841.5,583.136 1843.59,582.466 1845.68,581.798 1847.76,581.131 1849.85,580.465 1851.94,579.8 1854.02,579.136 1856.11,578.474 1858.2,577.813 1860.28,577.153 1862.37,576.494 1864.46,575.836 1866.54,575.18 1868.63,574.525 1870.72,573.871 1872.8,573.219 1874.89,572.567 1876.98,571.918 1879.06,571.269 1881.15,570.622 1883.24,569.976 1885.32,569.332 1887.41,568.689 1889.5,568.048 1891.58,567.408 1893.67,566.769 1895.76,566.132 1897.84,565.497 1899.93,564.862 1902.02,564.23 1904.11,563.599 1906.19,562.97 1908.28,562.342 1910.37,561.716 1912.45,561.091 1914.54,560.468 1916.63,559.847 1918.71,559.227 1920.8,558.609 1922.89,557.993 1924.97,557.378 1927.06,556.765 1929.15,556.154 1931.23,555.545 1933.32,554.937 1935.41,554.332 1937.49,553.728 1939.58,553.127 1941.67,552.527 1943.75,551.93 1945.84,551.334 1947.93,550.741 1950.01,550.149 1952.1,549.56 1954.19,548.973 1956.27,548.388 1958.36,547.805 1960.45,547.224 1962.53,546.646 1964.62,546.07 1966.71,545.496 1968.79,544.925 1970.88,544.356 1972.97,543.79 1975.05,543.225 1977.14,542.664 1979.23,542.105 1981.31,541.549 1983.4,540.995 1985.49,540.444 1987.57,539.896 1989.66,539.351 1991.75,538.808 1993.84,538.269 1995.92,537.732 1998.01,537.199 2000.1,536.668 2002.18,536.141 2004.27,535.617 2006.36,535.096 2008.44,534.579 2010.53,534.064 2012.62,533.554 2014.7,533.047 2016.79,532.543 2018.88,532.044 2020.96,531.548 2023.05,531.055 2025.14,530.567 2027.22,530.083 2029.31,529.603 2031.4,529.127 2033.48,528.655 2035.57,528.187 2037.66,527.723 2039.74,527.264 2041.83,526.809 2043.92,526.36 2046,525.915 2048.09,525.475 2050.18,525.041 2052.26,524.612 2054.35,524.188 2056.44,523.769 2058.52,523.356 2060.61,522.949 2062.7,522.547 2064.78,522.152 2066.87,521.762 2068.96,521.379 2071.04,521.003 2073.13,520.632 2075.22,520.269 2077.31,519.913 2079.39,519.564 2081.48,519.222 2083.57,518.888 2085.65,518.562 2087.74,518.244 2089.83,517.935 2091.91,517.634 2094,517.342 2096.09,517.06 2098.17,516.787 2100.26,516.523 2102.35,516.27 2104.43,516.028 2106.52,515.796 2108.61,515.576 2110.69,515.367 2112.78,515.17 2114.87,514.985 2116.95,514.812 2119.04,514.652 2121.13,514.507 2123.21,514.376 2125.3,514.26 2127.39,514.16 2129.47,514.077 2131.56,514.009 2133.65,513.959 2135.73,513.927 2137.82,513.913 2139.91,513.919 2141.99,513.945 2144.08,513.992 2146.17,514.062 2148.25,514.155 2150.34,514.273 2152.43,514.417 2154.51,514.588 2156.6,514.788 2158.69,515.018 2160.78,515.279 2162.86,515.574 2164.95,515.904 2167.04,516.271 2169.12,516.677 2171.21,517.12 2173.3,517.609 2175.38,518.146 2177.47,518.733 2179.56,519.372 2181.64,520.066 2183.73,520.818 2185.82,521.633 2187.9,522.514 2189.99,523.467 2192.08,524.498 2194.16,525.612 2196.25,526.817 2198.34,528.119 2200.42,529.528 2202.51,531.05 2204.6,532.696 2206.68,534.473 2208.77,536.394 2210.86,538.482 2212.94,540.748 2215.03,543.204 2217.12,545.869 2219.2,548.767 2221.29,551.923 2223.38,555.37 2225.46,559.145 2227.55,563.287 2229.64,567.843 2231.72,572.859 2233.81,578.391 2235.9,584.556 2237.98,591.411 2240.07,599.047 2242.16,607.589 2244.25,617.195 2246.33,628.056 2248.42,640.4 2250.51,654.484 2252.59,670.607 2254.68,689.147 2256.77,710.551 2258.85,735.306 2260.94,763.93 2263.03,796.954 2265.11,834.747 2267.2,877.366 2269.29,924.232 2271.37,974.049 2273.46,1024.45 2275.55,1072.56 2277.63,1115.55 2279.72,1151.46 2281.81,1179.68 2283.89,1200.71 2285.98,1215.76 2288.07,1226.18 2290.15,1233.21 2292.24,1237.84 2294.33,1240.81 2296.41,1242.65 2298.5,1243.7 2300.59,1244.23 2302.67,1244.4 2304.76,1244.33 2306.85,1244.08 2308.93,1243.71 2311.02,1243.26 2313.11,1242.75 2315.19,1242.19 2317.28,1241.6 2319.37,1240.99 2321.45,1240.36 2323.54,1239.71 2325.63,1239.05 2327.71,1238.38 2329.8,1237.7 2331.89,1237.01 2333.98,1236.31 2336.06,1235.61 2338.15,1234.9 2340.24,1234.18 2342.32,1233.46 2344.41,1232.73 2346.5,1231.99 2348.58,1231.25 2350.67,1230.5 2352.76,1229.75 "/>
<polyline clip-path="url(#clip572)" style="stroke:#e26f46; stroke-linecap:round; stroke-linejoin:round; stroke-width:8; stroke-opacity:1; fill:none" points="268.094,1093.05 270.181,1052.09 272.268,994.108 274.355,908.566 276.441,778.871 278.528,589.174 280.615,361.33 282.702,184.12 284.788,104.126 286.875,83.3832 288.962,84.8709 291.049,93.3271 293.135,103.827 295.222,114.874 297.309,126.015 299.396,137.113 301.482,148.124 303.569,159.035 305.656,169.843 307.743,180.548 309.829,191.15 311.916,201.65 314.003,212.049 316.09,222.348 318.176,232.547 320.263,242.649 322.35,252.654 324.437,262.563 326.523,272.376 328.61,282.096 330.697,291.723 332.784,301.257 334.87,310.7 336.957,320.053 339.044,329.317 341.131,338.492 343.217,347.579 345.304,356.58 347.391,365.496 349.478,374.326 351.564,383.073 353.651,391.736 355.738,400.318 357.825,408.817 359.911,417.237 361.998,425.576 364.085,433.837 366.172,442.019 368.258,450.125 370.345,458.154 372.432,466.107 374.519,473.986 376.605,481.79 378.692,489.521 380.779,497.179 382.866,504.766 384.952,512.281 387.039,519.726 389.126,527.102 391.213,534.409 393.299,541.647 395.386,548.818 397.473,555.923 399.56,562.961 401.646,569.934 403.733,576.843 405.82,583.687 407.907,590.468 409.993,597.187 412.08,603.844 414.167,610.439 416.254,616.974 418.34,623.448 420.427,629.863 422.514,636.22 424.601,642.518 426.687,648.759 428.774,654.943 430.861,661.07 432.948,667.142 435.034,673.159 437.121,679.122 439.208,685.03 441.295,690.885 443.381,696.687 445.468,702.437 447.555,708.136 449.642,713.783 451.728,719.379 453.815,724.926 455.902,730.423 457.989,735.872 460.075,741.272 462.162,746.624 464.249,751.929 466.336,757.186 468.422,762.398 470.509,767.564 472.596,772.684 474.683,777.76 476.769,782.791 478.856,787.778 480.943,792.722 483.03,797.623 485.116,802.482 487.203,807.299 489.29,812.075 491.377,816.809 493.463,821.503 495.55,826.157 497.637,830.771 499.724,835.346 501.81,839.882 503.897,844.379 505.984,848.839 508.071,853.261 510.157,857.647 512.244,861.996 514.331,866.308 516.418,870.585 518.504,874.827 520.591,879.033 522.678,883.205 524.765,887.343 526.851,891.446 528.938,895.517 531.025,899.554 533.112,903.559 535.198,907.531 537.285,911.472 539.372,915.381 541.458,919.259 543.545,923.107 545.632,926.924 547.719,930.711 549.805,934.468 551.892,938.196 553.979,941.894 556.066,945.565 558.152,949.206 560.239,952.82 562.326,956.406 564.413,959.965 566.499,963.497 568.586,967.002 570.673,970.481 572.76,973.934 574.846,977.361 576.933,980.763 579.02,984.139 581.107,987.491 583.193,990.819 585.28,994.122 587.367,997.401 589.454,1000.66 591.54,1003.89 593.627,1007.1 595.714,1010.28 597.801,1013.45 599.887,1016.59 601.974,1019.71 604.061,1022.81 606.148,1025.88 608.234,1028.94 610.321,1031.97 612.408,1034.98 614.495,1037.98 616.581,1040.95 618.668,1043.9 620.755,1046.83 622.842,1049.75 624.928,1052.64 627.015,1055.52 629.102,1058.37 631.189,1061.21 633.275,1064.03 635.362,1066.83 637.449,1069.61 639.536,1072.37 641.622,1075.12 643.709,1077.84 645.796,1080.55 647.883,1083.25 649.969,1085.92 652.056,1088.58 654.143,1091.22 656.23,1093.85 658.316,1096.45 660.403,1099.05 662.49,1101.62 664.577,1104.18 666.663,1106.72 668.75,1109.25 670.837,1111.76 672.924,1114.25 675.01,1116.73 677.097,1119.19 679.184,1121.64 681.271,1124.07 683.357,1126.48 685.444,1128.88 687.531,1131.26 689.618,1133.63 691.704,1135.98 693.791,1138.31 695.878,1140.63 697.965,1142.93 700.051,1145.22 702.138,1147.49 704.225,1149.75 706.312,1151.98 708.398,1154.21 710.485,1156.41 712.572,1158.6 714.659,1160.78 716.745,1162.94 718.832,1165.08 720.919,1167.2 723.006,1169.31 725.092,1171.4 727.179,1173.47 729.266,1175.53 731.353,1177.57 733.439,1179.59 735.526,1181.59 737.613,1183.57 739.7,1185.54 741.786,1187.49 743.873,1189.42 745.96,1191.33 748.047,1193.22 750.133,1195.09 752.22,1196.95 754.307,1198.78 756.394,1200.6 758.48,1202.39 760.567,1204.17 762.654,1205.92 764.741,1207.66 766.827,1209.37 768.914,1211.07 771.001,1212.74 773.088,1214.39 775.174,1216.02 777.261,1217.63 779.348,1219.22 781.435,1220.79 783.521,1222.33 785.608,1223.86 787.695,1225.36 789.782,1226.84 791.868,1228.29 793.955,1229.73 796.042,1231.14 798.129,1232.53 800.215,1233.9 802.302,1235.24 804.389,1236.57 806.476,1237.87 808.562,1239.14 810.649,1240.4 812.736,1241.63 814.823,1242.84 816.909,1244.03 818.996,1245.2 821.083,1246.34 823.17,1247.46 825.256,1248.56 827.343,1249.64 829.43,1250.69 831.516,1251.73 833.603,1252.74 835.69,1253.73 837.777,1254.7 839.863,1255.65 841.95,1256.58 844.037,1257.48 846.124,1258.37 848.21,1259.24 850.297,1260.08 852.384,1260.91 854.471,1261.72 856.557,1262.51 858.644,1263.27 860.731,1264.03 862.818,1264.76 864.904,1265.47 866.991,1266.17 869.078,1266.85 871.165,1267.51 873.251,1268.15 875.338,1268.78 877.425,1269.39 879.512,1269.98 881.598,1270.56 883.685,1271.13 885.772,1271.67 887.859,1272.21 889.945,1272.73 892.032,1273.23 894.119,1273.72 896.206,1274.2 898.292,1274.66 900.379,1275.11 902.466,1275.55 904.553,1275.97 906.639,1276.38 908.726,1276.78 910.813,1277.17 912.9,1277.55 914.986,1277.91 917.073,1278.27 919.16,1278.61 921.247,1278.94 923.333,1279.27 925.42,1279.58 927.507,1279.88 929.594,1280.18 931.68,1280.46 933.767,1280.74 935.854,1281.01 937.941,1281.27 940.027,1281.52 942.114,1281.76 944.201,1282 946.288,1282.23 948.374,1282.45 950.461,1282.66 952.548,1282.87 954.635,1283.07 956.721,1283.26 958.808,1283.45 960.895,1283.63 962.982,1283.8 965.068,1283.97 967.155,1284.14 969.242,1284.29 971.329,1284.45 973.415,1284.6 975.502,1284.74 977.589,1284.88 979.676,1285.01 981.762,1285.14 983.849,1285.26 985.936,1285.38 988.023,1285.49 990.109,1285.61 992.196,1285.71 994.283,1285.82 996.37,1285.92 998.456,1286.01 1000.54,1286.11 1002.63,1286.2 1004.72,1286.28 1006.8,1286.37 1008.89,1286.45 1010.98,1286.52 1013.06,1286.6 1015.15,1286.67 1017.24,1286.74 1019.32,1286.8 1021.41,1286.86 1023.5,1286.93 1025.58,1286.98 1027.67,1287.04 1029.76,1287.09 1031.84,1287.15 1033.93,1287.2 1036.02,1287.24 1038.1,1287.29 1040.19,1287.33 1042.28,1287.37 1044.36,1287.41 1046.45,1287.45 1048.54,1287.49 1050.63,1287.52 1052.71,1287.56 1054.8,1287.59 1056.89,1287.62 1058.97,1287.65 1061.06,1287.67 1063.15,1287.7 1065.23,1287.73 1067.32,1287.75 1069.41,1287.77 1071.49,1287.79 1073.58,1287.81 1075.67,1287.83 1077.75,1287.85 1079.84,1287.87 1081.93,1287.88 1084.01,1287.9 1086.1,1287.91 1088.19,1287.92 1090.27,1287.93 1092.36,1287.94 1094.45,1287.95 1096.53,1287.96 1098.62,1287.97 1100.71,1287.98 1102.79,1287.99 1104.88,1287.99 1106.97,1288 1109.05,1288 1111.14,1288.01 1113.23,1288.01 1115.31,1288.01 1117.4,1288.02 1119.49,1288.02 1121.57,1288.02 1123.66,1288.02 1125.75,1288.02 1127.83,1288.02 1129.92,1288.02 1132.01,1288.01 1134.09,1288.01 1136.18,1288.01 1138.27,1288.01 1140.36,1288 1142.44,1288 1144.53,1288 1146.62,1287.99 1148.7,1287.99 1150.79,1287.98 1152.88,1287.97 1154.96,1287.97 1157.05,1287.96 1159.14,1287.95 1161.22,1287.95 1163.31,1287.94 1165.4,1287.93 1167.48,1287.92 1169.57,1287.91 1171.66,1287.9 1173.74,1287.9 1175.83,1287.89 1177.92,1287.88 1180,1287.87 1182.09,1287.86 1184.18,1287.85 1186.26,1287.83 1188.35,1287.82 1190.44,1287.81 1192.52,1287.8 1194.61,1287.79 1196.7,1287.78 1198.78,1287.77 1200.87,1287.75 1202.96,1287.74 1205.04,1287.73 1207.13,1287.72 1209.22,1287.7 1211.3,1287.69 1213.39,1287.68 1215.48,1287.66 1217.56,1287.65 1219.65,1287.63 1221.74,1287.62 1223.83,1287.61 1225.91,1287.59 1228,1287.58 1230.09,1287.56 1232.17,1287.55 1234.26,1287.53 1236.35,1287.52 1238.43,1287.5 1240.52,1287.48 1242.61,1287.47 1244.69,1287.45 1246.78,1287.44 1248.87,1287.42 1250.95,1287.41 1253.04,1287.39 1255.13,1287.37 1257.21,1287.36 1259.3,1287.34 1261.39,1287.32 1263.47,1287.31 1265.56,1287.29 1267.65,1287.27 1269.73,1287.25 1271.82,1287.24 1273.91,1287.22 1275.99,1287.2 1278.08,1287.18 1280.17,1287.17 1282.25,1287.15 1284.34,1287.13 1286.43,1287.11 1288.51,1287.09 1290.6,1287.08 1292.69,1287.06 1294.77,1287.04 1296.86,1287.02 1298.95,1287 1301.03,1286.98 1303.12,1286.96 1305.21,1286.94 1307.3,1286.92 1309.38,1286.91 1311.47,1286.89 1313.56,1286.87 1315.64,1286.85 1317.73,1286.83 1319.82,1286.81 1321.9,1286.79 1323.99,1286.77 1326.08,1286.75 1328.16,1286.73 1330.25,1286.71 1332.34,1286.69 1334.42,1286.67 1336.51,1286.65 1338.6,1286.63 1340.68,1286.61 1342.77,1286.59 1344.86,1286.57 1346.94,1286.54 1349.03,1286.52 1351.12,1286.5 1353.2,1286.48 1355.29,1286.46 1357.38,1286.44 1359.46,1286.42 1361.55,1286.4 1363.64,1286.38 1365.72,1286.35 1367.81,1286.33 1369.9,1286.31 1371.98,1286.29 1374.07,1286.27 1376.16,1286.25 1378.24,1286.22 1380.33,1286.2 1382.42,1286.18 1384.5,1286.16 1386.59,1286.13 1388.68,1286.11 1390.77,1286.09 1392.85,1286.07 1394.94,1286.04 1397.03,1286.02 1399.11,1286 1401.2,1285.98 1403.29,1285.95 1405.37,1285.93 1407.46,1285.91 1409.55,1285.88 1411.63,1285.86 1413.72,1285.84 1415.81,1285.81 1417.89,1285.79 1419.98,1285.76 1422.07,1285.74 1424.15,1285.72 1426.24,1285.69 1428.33,1285.67 1430.41,1285.64 1432.5,1285.62 1434.59,1285.6 1436.67,1285.57 1438.76,1285.55 1440.85,1285.52 1442.93,1285.5 1445.02,1285.47 1447.11,1285.45 1449.19,1285.42 1451.28,1285.4 1453.37,1285.37 1455.45,1285.35 1457.54,1285.32 1459.63,1285.3 1461.71,1285.27 1463.8,1285.25 1465.89,1285.22 1467.97,1285.19 1470.06,1285.17 1472.15,1285.14 1474.23,1285.12 1476.32,1285.09 1478.41,1285.06 1480.5,1285.04 1482.58,1285.01 1484.67,1284.98 1486.76,1284.96 1488.84,1284.93 1490.93,1284.9 1493.02,1284.88 1495.1,1284.85 1497.19,1284.82 1499.28,1284.79 1501.36,1284.77 1503.45,1284.74 1505.54,1284.71 1507.62,1284.68 1509.71,1284.66 1511.8,1284.63 1513.88,1284.6 1515.97,1284.57 1518.06,1284.54 1520.14,1284.52 1522.23,1284.49 1524.32,1284.46 1526.4,1284.43 1528.49,1284.4 1530.58,1284.37 1532.66,1284.34 1534.75,1284.31 1536.84,1284.28 1538.92,1284.26 1541.01,1284.23 1543.1,1284.2 1545.18,1284.17 1547.27,1284.14 1549.36,1284.11 1551.44,1284.08 1553.53,1284.05 1555.62,1284.02 1557.7,1283.99 1559.79,1283.96 1561.88,1283.92 1563.97,1283.89 1566.05,1283.86 1568.14,1283.83 1570.23,1283.8 1572.31,1283.77 1574.4,1283.74 1576.49,1283.71 1578.57,1283.67 1580.66,1283.64 1582.75,1283.61 1584.83,1283.58 1586.92,1283.55 1589.01,1283.51 1591.09,1283.48 1593.18,1283.45 1595.27,1283.42 1597.35,1283.38 1599.44,1283.35 1601.53,1283.32 1603.61,1283.28 1605.7,1283.25 1607.79,1283.21 1609.87,1283.18 1611.96,1283.15 1614.05,1283.11 1616.13,1283.08 1618.22,1283.04 1620.31,1283.01 1622.39,1282.97 1624.48,1282.94 1626.57,1282.9 1628.65,1282.87 1630.74,1282.83 1632.83,1282.8 1634.91,1282.76 1637,1282.73 1639.09,1282.69 1641.17,1282.65 1643.26,1282.62 1645.35,1282.58 1647.44,1282.54 1649.52,1282.51 1651.61,1282.47 1653.7,1282.43 1655.78,1282.39 1657.87,1282.36 1659.96,1282.32 1662.04,1282.28 1664.13,1282.24 1666.22,1282.2 1668.3,1282.16 1670.39,1282.13 1672.48,1282.09 1674.56,1282.05 1676.65,1282.01 1678.74,1281.97 1680.82,1281.93 1682.91,1281.89 1685,1281.85 1687.08,1281.81 1689.17,1281.77 1691.26,1281.73 1693.34,1281.69 1695.43,1281.64 1697.52,1281.6 1699.6,1281.56 1701.69,1281.52 1703.78,1281.48 1705.86,1281.43 1707.95,1281.39 1710.04,1281.35 1712.12,1281.31 1714.21,1281.26 1716.3,1281.22 1718.38,1281.18 1720.47,1281.13 1722.56,1281.09 1724.64,1281.04 1726.73,1281 1728.82,1280.95 1730.9,1280.91 1732.99,1280.86 1735.08,1280.82 1737.17,1280.77 1739.25,1280.72 1741.34,1280.68 1743.43,1280.63 1745.51,1280.58 1747.6,1280.54 1749.69,1280.49 1751.77,1280.44 1753.86,1280.39 1755.95,1280.34 1758.03,1280.3 1760.12,1280.25 1762.21,1280.2 1764.29,1280.15 1766.38,1280.1 1768.47,1280.05 1770.55,1280 1772.64,1279.95 1774.73,1279.9 1776.81,1279.84 1778.9,1279.79 1780.99,1279.74 1783.07,1279.69 1785.16,1279.63 1787.25,1279.58 1789.33,1279.53 1791.42,1279.47 1793.51,1279.42 1795.59,1279.36 1797.68,1279.31 1799.77,1279.25 1801.85,1279.2 1803.94,1279.14 1806.03,1279.08 1808.11,1279.03 1810.2,1278.97 1812.29,1278.91 1814.37,1278.85 1816.46,1278.8 1818.55,1278.74 1820.64,1278.68 1822.72,1278.62 1824.81,1278.56 1826.9,1278.5 1828.98,1278.44 1831.07,1278.37 1833.16,1278.31 1835.24,1278.25 1837.33,1278.19 1839.42,1278.12 1841.5,1278.06 1843.59,1278 1845.68,1277.93 1847.76,1277.87 1849.85,1277.8 1851.94,1277.73 1854.02,1277.67 1856.11,1277.6 1858.2,1277.53 1860.28,1277.46 1862.37,1277.39 1864.46,1277.33 1866.54,1277.26 1868.63,1277.18 1870.72,1277.11 1872.8,1277.04 1874.89,1276.97 1876.98,1276.9 1879.06,1276.82 1881.15,1276.75 1883.24,1276.67 1885.32,1276.6 1887.41,1276.52 1889.5,1276.45 1891.58,1276.37 1893.67,1276.29 1895.76,1276.21 1897.84,1276.13 1899.93,1276.05 1902.02,1275.97 1904.11,1275.89 1906.19,1275.81 1908.28,1275.73 1910.37,1275.64 1912.45,1275.56 1914.54,1275.47 1916.63,1275.39 1918.71,1275.3 1920.8,1275.21 1922.89,1275.12 1924.97,1275.03 1927.06,1274.94 1929.15,1274.85 1931.23,1274.76 1933.32,1274.67 1935.41,1274.57 1937.49,1274.48 1939.58,1274.38 1941.67,1274.28 1943.75,1274.19 1945.84,1274.09 1947.93,1273.99 1950.01,1273.88 1952.1,1273.78 1954.19,1273.68 1956.27,1273.57 1958.36,1273.47 1960.45,1273.36 1962.53,1273.25 1964.62,1273.14 1966.71,1273.03 1968.79,1272.92 1970.88,1272.81 1972.97,1272.69 1975.05,1272.58 1977.14,1272.46 1979.23,1272.34 1981.31,1272.22 1983.4,1272.1 1985.49,1271.98 1987.57,1271.85 1989.66,1271.73 1991.75,1271.6 1993.84,1271.47 1995.92,1271.34 1998.01,1271.21 2000.1,1271.07 2002.18,1270.94 2004.27,1270.8 2006.36,1270.66 2008.44,1270.52 2010.53,1270.38 2012.62,1270.23 2014.7,1270.08 2016.79,1269.93 2018.88,1269.78 2020.96,1269.63 2023.05,1269.47 2025.14,1269.31 2027.22,1269.15 2029.31,1268.99 2031.4,1268.82 2033.48,1268.65 2035.57,1268.48 2037.66,1268.31 2039.74,1268.13 2041.83,1267.95 2043.92,1267.77 2046,1267.58 2048.09,1267.4 2050.18,1267.2 2052.26,1267.01 2054.35,1266.81 2056.44,1266.61 2058.52,1266.4 2060.61,1266.19 2062.7,1265.98 2064.78,1265.77 2066.87,1265.54 2068.96,1265.32 2071.04,1265.09 2073.13,1264.86 2075.22,1264.62 2077.31,1264.38 2079.39,1264.13 2081.48,1263.88 2083.57,1263.62 2085.65,1263.36 2087.74,1263.09 2089.83,1262.82 2091.91,1262.54 2094,1262.26 2096.09,1261.96 2098.17,1261.67 2100.26,1261.36 2102.35,1261.05 2104.43,1260.73 2106.52,1260.4 2108.61,1260.07 2110.69,1259.72 2112.78,1259.37 2114.87,1259.01 2116.95,1258.64 2119.04,1258.27 2121.13,1257.88 2123.21,1257.48 2125.3,1257.07 2127.39,1256.65 2129.47,1256.21 2131.56,1255.77 2133.65,1255.31 2135.73,1254.84 2137.82,1254.35 2139.91,1253.85 2141.99,1253.34 2144.08,1252.81 2146.17,1252.26 2148.25,1251.69 2150.34,1251.11 2152.43,1250.5 2154.51,1249.87 2156.6,1249.23 2158.69,1248.55 2160.78,1247.86 2162.86,1247.14 2164.95,1246.38 2167.04,1245.61 2169.12,1244.79 2171.21,1243.95 2173.3,1243.08 2175.38,1242.16 2177.47,1241.2 2179.56,1240.21 2181.64,1239.16 2183.73,1238.07 2185.82,1236.93 2187.9,1235.73 2189.99,1234.47 2192.08,1233.15 2194.16,1231.76 2196.25,1230.29 2198.34,1228.74 2200.42,1227.1 2202.51,1225.36 2204.6,1223.52 2206.68,1221.56 2208.77,1219.49 2210.86,1217.26 2212.94,1214.88 2215.03,1212.34 2217.12,1209.61 2219.2,1206.68 2221.29,1203.52 2223.38,1200.1 2225.46,1196.39 2227.55,1192.35 2229.64,1187.94 2231.72,1183.12 2233.81,1177.83 2235.9,1171.96 2237.98,1165.46 2240.07,1158.26 2242.16,1150.22 2244.25,1141.2 2246.33,1131.03 2248.42,1119.48 2250.51,1106.31 2252.59,1091.25 2254.68,1073.93 2256.77,1053.93 2258.85,1030.8 2260.94,1004.05 2263.03,973.184 2265.11,937.882 2267.2,898.13 2269.29,854.548 2271.37,808.465 2273.46,762.267 2275.55,718.802 2277.63,680.869 2279.72,650.365 2281.81,627.818 2283.89,612.638 2285.98,603.571 2288.07,599.192 2290.15,598.231 2292.24,599.664 2294.33,602.735 2296.41,606.907 2298.5,611.81 2300.59,617.189 2302.67,622.872 2304.76,628.745 2306.85,634.73 2308.93,640.773 2311.02,646.84 2313.11,652.907 2315.19,658.956 2317.28,664.978 2319.37,670.964 2321.45,676.909 2323.54,682.811 2325.63,688.666 2327.71,694.473 2329.8,700.232 2331.89,705.942 2333.98,711.603 2336.06,717.214 2338.15,722.777 2340.24,728.29 2342.32,733.755 2344.41,739.172 2346.5,744.542 2348.58,749.864 2350.67,755.139 2352.76,760.368 "/>
<path clip-path="url(#clip570)" d="M2045.22 245.328 L2283.27 245.328 L2283.27 89.8079 L2045.22 89.8079  Z" fill="#ffffff" fill-rule="evenodd" fill-opacity="1"/>
<polyline clip-path="url(#clip570)" style="stroke:#000000; stroke-linecap:round; stroke-linejoin:round; stroke-width:4; stroke-opacity:1; fill:none" points="2045.22,245.328 2283.27,245.328 2283.27,89.8079 2045.22,89.8079 2045.22,245.328 "/>
<polyline clip-path="url(#clip570)" style="stroke:#009af9; stroke-linecap:round; stroke-linejoin:round; stroke-width:8; stroke-opacity:1; fill:none" points="2068.38,141.648 2207.36,141.648 "/>
<path clip-path="url(#clip570)" d="M2230.52 124.368 L2235.54 124.368 L2245.13 138.581 L2254.64 124.368 L2259.66 124.368 L2247.44 142.47 L2247.44 158.928 L2242.74 158.928 L2242.74 142.47 L2230.52 124.368 Z" fill="#000000" fill-rule="nonzero" fill-opacity="1" /><polyline clip-path="url(#clip570)" style="stroke:#e26f46; stroke-linecap:round; stroke-linejoin:round; stroke-width:8; stroke-opacity:1; fill:none" points="2068.38,193.488 2207.36,193.488 "/>
<path clip-path="url(#clip570)" d="M2232.1 176.208 L2237.12 176.208 L2245.71 189.055 L2254.34 176.208 L2259.36 176.208 L2248.25 192.805 L2260.1 210.768 L2255.08 210.768 L2245.36 196.069 L2235.57 210.768 L2230.52 210.768 L2242.86 192.319 L2232.1 176.208 Z" fill="#000000" fill-rule="nonzero" fill-opacity="1" /></svg>
