<?xml version="1.0" encoding="utf-8"?>
<svg xmlns="http://www.w3.org/2000/svg" xmlns:xlink="http://www.w3.org/1999/xlink" width="600" height="400" viewBox="0 0 2400 1600">
<defs>
  <clipPath id="clip720">
    <rect x="0" y="0" width="2400" height="1600"/>
  </clipPath>
</defs>
<path clip-path="url(#clip720)" d="M0 1600 L2400 1600 L2400 0 L0 0  Z" fill="#ffffff" fill-rule="evenodd" fill-opacity="1"/>
<defs>
  <clipPath id="clip721">
    <rect x="480" y="0" width="1681" height="1600"/>
  </clipPath>
</defs>
<path clip-path="url(#clip720)" d="M138.959 1423.18 L2352.76 1423.18 L2352.76 47.2441 L138.959 47.2441  Z" fill="#ffffff" fill-rule="evenodd" fill-opacity="1"/>
<defs>
  <clipPath id="clip722">
    <rect x="138" y="47" width="2215" height="1377"/>
  </clipPath>
</defs>
<polyline clip-path="url(#clip722)" style="stroke:#000000; stroke-linecap:round; stroke-linejoin:round; stroke-width:2; stroke-opacity:0.1; fill:none" points="138.959,1423.18 138.959,47.2441 "/>
<polyline clip-path="url(#clip722)" style="stroke:#000000; stroke-linecap:round; stroke-linejoin:round; stroke-width:2; stroke-opacity:0.1; fill:none" points="490.109,1423.18 490.109,47.2441 "/>
<polyline clip-path="url(#clip722)" style="stroke:#000000; stroke-linecap:round; stroke-linejoin:round; stroke-width:2; stroke-opacity:0.1; fill:none" points="841.259,1423.18 841.259,47.2441 "/>
<polyline clip-path="url(#clip722)" style="stroke:#000000; stroke-linecap:round; stroke-linejoin:round; stroke-width:2; stroke-opacity:0.1; fill:none" points="1192.41,1423.18 1192.41,47.2441 "/>
<polyline clip-path="url(#clip722)" style="stroke:#000000; stroke-linecap:round; stroke-linejoin:round; stroke-width:2; stroke-opacity:0.1; fill:none" points="1543.56,1423.18 1543.56,47.2441 "/>
<polyline clip-path="url(#clip722)" style="stroke:#000000; stroke-linecap:round; stroke-linejoin:round; stroke-width:2; stroke-opacity:0.1; fill:none" points="1894.71,1423.18 1894.71,47.2441 "/>
<polyline clip-path="url(#clip722)" style="stroke:#000000; stroke-linecap:round; stroke-linejoin:round; stroke-width:2; stroke-opacity:0.1; fill:none" points="2245.86,1423.18 2245.86,47.2441 "/>
<polyline clip-path="url(#clip720)" style="stroke:#000000; stroke-linecap:round; stroke-linejoin:round; stroke-width:4; stroke-opacity:1; fill:none" points="138.959,1423.18 2352.76,1423.18 "/>
<polyline clip-path="url(#clip720)" style="stroke:#000000; stroke-linecap:round; stroke-linejoin:round; stroke-width:4; stroke-opacity:1; fill:none" points="138.959,1423.18 138.959,1404.28 "/>
<polyline clip-path="url(#clip720)" style="stroke:#000000; stroke-linecap:round; stroke-linejoin:round; stroke-width:4; stroke-opacity:1; fill:none" points="490.109,1423.18 490.109,1404.28 "/>
<polyline clip-path="url(#clip720)" style="stroke:#000000; stroke-linecap:round; stroke-linejoin:round; stroke-width:4; stroke-opacity:1; fill:none" points="841.259,1423.18 841.259,1404.28 "/>
<polyline clip-path="url(#clip720)" style="stroke:#000000; stroke-linecap:round; stroke-linejoin:round; stroke-width:4; stroke-opacity:1; fill:none" points="1192.41,1423.18 1192.41,1404.28 "/>
<polyline clip-path="url(#clip720)" style="stroke:#000000; stroke-linecap:round; stroke-linejoin:round; stroke-width:4; stroke-opacity:1; fill:none" points="1543.56,1423.18 1543.56,1404.28 "/>
<polyline clip-path="url(#clip720)" style="stroke:#000000; stroke-linecap:round; stroke-linejoin:round; stroke-width:4; stroke-opacity:1; fill:none" points="1894.71,1423.18 1894.71,1404.28 "/>
<polyline clip-path="url(#clip720)" style="stroke:#000000; stroke-linecap:round; stroke-linejoin:round; stroke-width:4; stroke-opacity:1; fill:none" points="2245.86,1423.18 2245.86,1404.28 "/>
<path clip-path="url(#clip720)" d="M101.263 1454.1 Q97.6518 1454.1 95.8231 1457.66 Q94.0176 1461.2 94.0176 1468.33 Q94.0176 1475.44 95.8231 1479.01 Q97.6518 1482.55 101.263 1482.55 Q104.897 1482.55 106.703 1479.01 Q108.531 1475.44 108.531 1468.33 Q108.531 1461.2 106.703 1457.66 Q104.897 1454.1 101.263 1454.1 M101.263 1450.39 Q107.073 1450.39 110.129 1455 Q113.207 1459.58 113.207 1468.33 Q113.207 1477.06 110.129 1481.67 Q107.073 1486.25 101.263 1486.25 Q95.4527 1486.25 92.374 1481.67 Q89.3185 1477.06 89.3185 1468.33 Q89.3185 1459.58 92.374 1455 Q95.4527 1450.39 101.263 1450.39 Z" fill="#000000" fill-rule="nonzero" fill-opacity="1" /><path clip-path="url(#clip720)" d="M121.425 1479.7 L126.309 1479.7 L126.309 1485.58 L121.425 1485.58 L121.425 1479.7 Z" fill="#000000" fill-rule="nonzero" fill-opacity="1" /><path clip-path="url(#clip720)" d="M146.494 1454.1 Q142.883 1454.1 141.054 1457.66 Q139.249 1461.2 139.249 1468.33 Q139.249 1475.44 141.054 1479.01 Q142.883 1482.55 146.494 1482.55 Q150.128 1482.55 151.934 1479.01 Q153.763 1475.44 153.763 1468.33 Q153.763 1461.2 151.934 1457.66 Q150.128 1454.1 146.494 1454.1 M146.494 1450.39 Q152.304 1450.39 155.36 1455 Q158.439 1459.58 158.439 1468.33 Q158.439 1477.06 155.36 1481.67 Q152.304 1486.25 146.494 1486.25 Q140.684 1486.25 137.605 1481.67 Q134.55 1477.06 134.55 1468.33 Q134.55 1459.58 137.605 1455 Q140.684 1450.39 146.494 1450.39 Z" fill="#000000" fill-rule="nonzero" fill-opacity="1" /><path clip-path="url(#clip720)" d="M176.656 1454.1 Q173.045 1454.1 171.216 1457.66 Q169.411 1461.2 169.411 1468.33 Q169.411 1475.44 171.216 1479.01 Q173.045 1482.55 176.656 1482.55 Q180.29 1482.55 182.096 1479.01 Q183.924 1475.44 183.924 1468.33 Q183.924 1461.2 182.096 1457.66 Q180.29 1454.1 176.656 1454.1 M176.656 1450.39 Q182.466 1450.39 185.522 1455 Q188.6 1459.58 188.6 1468.33 Q188.6 1477.06 185.522 1481.67 Q182.466 1486.25 176.656 1486.25 Q170.846 1486.25 167.767 1481.67 Q164.712 1477.06 164.712 1468.33 Q164.712 1459.58 167.767 1455 Q170.846 1450.39 176.656 1450.39 Z" fill="#000000" fill-rule="nonzero" fill-opacity="1" /><path clip-path="url(#clip720)" d="M453.211 1454.1 Q449.6 1454.1 447.772 1457.66 Q445.966 1461.2 445.966 1468.33 Q445.966 1475.44 447.772 1479.01 Q449.6 1482.55 453.211 1482.55 Q456.846 1482.55 458.651 1479.01 Q460.48 1475.44 460.48 1468.33 Q460.48 1461.2 458.651 1457.66 Q456.846 1454.1 453.211 1454.1 M453.211 1450.39 Q459.022 1450.39 462.077 1455 Q465.156 1459.58 465.156 1468.33 Q465.156 1477.06 462.077 1481.67 Q459.022 1486.25 453.211 1486.25 Q447.401 1486.25 444.323 1481.67 Q441.267 1477.06 441.267 1468.33 Q441.267 1459.58 444.323 1455 Q447.401 1450.39 453.211 1450.39 Z" fill="#000000" fill-rule="nonzero" fill-opacity="1" /><path clip-path="url(#clip720)" d="M473.373 1479.7 L478.258 1479.7 L478.258 1485.58 L473.373 1485.58 L473.373 1479.7 Z" fill="#000000" fill-rule="nonzero" fill-opacity="1" /><path clip-path="url(#clip720)" d="M498.443 1454.1 Q494.832 1454.1 493.003 1457.66 Q491.197 1461.2 491.197 1468.33 Q491.197 1475.44 493.003 1479.01 Q494.832 1482.55 498.443 1482.55 Q502.077 1482.55 503.882 1479.01 Q505.711 1475.44 505.711 1468.33 Q505.711 1461.2 503.882 1457.66 Q502.077 1454.1 498.443 1454.1 M498.443 1450.39 Q504.253 1450.39 507.308 1455 Q510.387 1459.58 510.387 1468.33 Q510.387 1477.06 507.308 1481.67 Q504.253 1486.25 498.443 1486.25 Q492.632 1486.25 489.554 1481.67 Q486.498 1477.06 486.498 1468.33 Q486.498 1459.58 489.554 1455 Q492.632 1450.39 498.443 1450.39 Z" fill="#000000" fill-rule="nonzero" fill-opacity="1" /><path clip-path="url(#clip720)" d="M522.632 1481.64 L538.952 1481.64 L538.952 1485.58 L517.007 1485.58 L517.007 1481.64 Q519.669 1478.89 524.253 1474.26 Q528.859 1469.61 530.04 1468.27 Q532.285 1465.74 533.165 1464.01 Q534.067 1462.25 534.067 1460.56 Q534.067 1457.8 532.123 1456.07 Q530.202 1454.33 527.1 1454.33 Q524.901 1454.33 522.447 1455.09 Q520.017 1455.86 517.239 1457.41 L517.239 1452.69 Q520.063 1451.55 522.517 1450.97 Q524.97 1450.39 527.007 1450.39 Q532.378 1450.39 535.572 1453.08 Q538.766 1455.77 538.766 1460.26 Q538.766 1462.39 537.956 1464.31 Q537.169 1466.2 535.063 1468.8 Q534.484 1469.47 531.382 1472.69 Q528.28 1475.88 522.632 1481.64 Z" fill="#000000" fill-rule="nonzero" fill-opacity="1" /><path clip-path="url(#clip720)" d="M803.32 1454.1 Q799.708 1454.1 797.88 1457.66 Q796.074 1461.2 796.074 1468.33 Q796.074 1475.44 797.88 1479.01 Q799.708 1482.55 803.32 1482.55 Q806.954 1482.55 808.759 1479.01 Q810.588 1475.44 810.588 1468.33 Q810.588 1461.2 808.759 1457.66 Q806.954 1454.1 803.32 1454.1 M803.32 1450.39 Q809.13 1450.39 812.185 1455 Q815.264 1459.58 815.264 1468.33 Q815.264 1477.06 812.185 1481.67 Q809.13 1486.25 803.32 1486.25 Q797.509 1486.25 794.431 1481.67 Q791.375 1477.06 791.375 1468.33 Q791.375 1459.58 794.431 1455 Q797.509 1450.39 803.32 1450.39 Z" fill="#000000" fill-rule="nonzero" fill-opacity="1" /><path clip-path="url(#clip720)" d="M823.482 1479.7 L828.366 1479.7 L828.366 1485.58 L823.482 1485.58 L823.482 1479.7 Z" fill="#000000" fill-rule="nonzero" fill-opacity="1" /><path clip-path="url(#clip720)" d="M848.551 1454.1 Q844.94 1454.1 843.111 1457.66 Q841.305 1461.2 841.305 1468.33 Q841.305 1475.44 843.111 1479.01 Q844.94 1482.55 848.551 1482.55 Q852.185 1482.55 853.991 1479.01 Q855.819 1475.44 855.819 1468.33 Q855.819 1461.2 853.991 1457.66 Q852.185 1454.1 848.551 1454.1 M848.551 1450.39 Q854.361 1450.39 857.417 1455 Q860.495 1459.58 860.495 1468.33 Q860.495 1477.06 857.417 1481.67 Q854.361 1486.25 848.551 1486.25 Q842.741 1486.25 839.662 1481.67 Q836.606 1477.06 836.606 1468.33 Q836.606 1459.58 839.662 1455 Q842.741 1450.39 848.551 1450.39 Z" fill="#000000" fill-rule="nonzero" fill-opacity="1" /><path clip-path="url(#clip720)" d="M881.56 1455.09 L869.754 1473.54 L881.56 1473.54 L881.56 1455.09 M880.333 1451.02 L886.213 1451.02 L886.213 1473.54 L891.143 1473.54 L891.143 1477.43 L886.213 1477.43 L886.213 1485.58 L881.56 1485.58 L881.56 1477.43 L865.958 1477.43 L865.958 1472.92 L880.333 1451.02 Z" fill="#000000" fill-rule="nonzero" fill-opacity="1" /><path clip-path="url(#clip720)" d="M1154.63 1454.1 Q1151.02 1454.1 1149.19 1457.66 Q1147.39 1461.2 1147.39 1468.33 Q1147.39 1475.44 1149.19 1479.01 Q1151.02 1482.55 1154.63 1482.55 Q1158.27 1482.55 1160.07 1479.01 Q1161.9 1475.44 1161.9 1468.33 Q1161.9 1461.2 1160.07 1457.66 Q1158.27 1454.1 1154.63 1454.1 M1154.63 1450.39 Q1160.44 1450.39 1163.5 1455 Q1166.58 1459.58 1166.58 1468.33 Q1166.58 1477.06 1163.5 1481.67 Q1160.44 1486.25 1154.63 1486.25 Q1148.82 1486.25 1145.74 1481.67 Q1142.69 1477.06 1142.69 1468.33 Q1142.69 1459.58 1145.74 1455 Q1148.82 1450.39 1154.63 1450.39 Z" fill="#000000" fill-rule="nonzero" fill-opacity="1" /><path clip-path="url(#clip720)" d="M1174.79 1479.7 L1179.68 1479.7 L1179.68 1485.58 L1174.79 1485.58 L1174.79 1479.7 Z" fill="#000000" fill-rule="nonzero" fill-opacity="1" /><path clip-path="url(#clip720)" d="M1199.86 1454.1 Q1196.25 1454.1 1194.42 1457.66 Q1192.62 1461.2 1192.62 1468.33 Q1192.62 1475.44 1194.42 1479.01 Q1196.25 1482.55 1199.86 1482.55 Q1203.5 1482.55 1205.3 1479.01 Q1207.13 1475.44 1207.13 1468.33 Q1207.13 1461.2 1205.3 1457.66 Q1203.5 1454.1 1199.86 1454.1 M1199.86 1450.39 Q1205.67 1450.39 1208.73 1455 Q1211.81 1459.58 1211.81 1468.33 Q1211.81 1477.06 1208.73 1481.67 Q1205.67 1486.25 1199.86 1486.25 Q1194.05 1486.25 1190.97 1481.67 Q1187.92 1477.06 1187.92 1468.33 Q1187.92 1459.58 1190.97 1455 Q1194.05 1450.39 1199.86 1450.39 Z" fill="#000000" fill-rule="nonzero" fill-opacity="1" /><path clip-path="url(#clip720)" d="M1230.6 1466.44 Q1227.46 1466.44 1225.6 1468.59 Q1223.77 1470.74 1223.77 1474.49 Q1223.77 1478.22 1225.6 1480.39 Q1227.46 1482.55 1230.6 1482.55 Q1233.75 1482.55 1235.58 1480.39 Q1237.43 1478.22 1237.43 1474.49 Q1237.43 1470.74 1235.58 1468.59 Q1233.75 1466.44 1230.6 1466.44 M1239.89 1451.78 L1239.89 1456.04 Q1238.13 1455.21 1236.32 1454.77 Q1234.54 1454.33 1232.78 1454.33 Q1228.15 1454.33 1225.7 1457.45 Q1223.27 1460.58 1222.92 1466.9 Q1224.28 1464.89 1226.34 1463.82 Q1228.4 1462.73 1230.88 1462.73 Q1236.09 1462.73 1239.1 1465.9 Q1242.13 1469.05 1242.13 1474.49 Q1242.13 1479.82 1238.98 1483.03 Q1235.83 1486.25 1230.6 1486.25 Q1224.61 1486.25 1221.44 1481.67 Q1218.27 1477.06 1218.27 1468.33 Q1218.27 1460.14 1222.15 1455.28 Q1226.04 1450.39 1232.59 1450.39 Q1234.35 1450.39 1236.14 1450.74 Q1237.94 1451.09 1239.89 1451.78 Z" fill="#000000" fill-rule="nonzero" fill-opacity="1" /><path clip-path="url(#clip720)" d="M1505.91 1454.1 Q1502.3 1454.1 1500.47 1457.66 Q1498.66 1461.2 1498.66 1468.33 Q1498.66 1475.44 1500.47 1479.01 Q1502.3 1482.55 1505.91 1482.55 Q1509.54 1482.55 1511.35 1479.01 Q1513.18 1475.44 1513.18 1468.33 Q1513.18 1461.2 1511.35 1457.66 Q1509.54 1454.1 1505.91 1454.1 M1505.91 1450.39 Q1511.72 1450.39 1514.77 1455 Q1517.85 1459.58 1517.85 1468.33 Q1517.85 1477.06 1514.77 1481.67 Q1511.72 1486.25 1505.91 1486.25 Q1500.1 1486.25 1497.02 1481.67 Q1493.96 1477.06 1493.96 1468.33 Q1493.96 1459.58 1497.02 1455 Q1500.1 1450.39 1505.91 1450.39 Z" fill="#000000" fill-rule="nonzero" fill-opacity="1" /><path clip-path="url(#clip720)" d="M1526.07 1479.7 L1530.95 1479.7 L1530.95 1485.58 L1526.07 1485.58 L1526.07 1479.7 Z" fill="#000000" fill-rule="nonzero" fill-opacity="1" /><path clip-path="url(#clip720)" d="M1551.14 1454.1 Q1547.53 1454.1 1545.7 1457.66 Q1543.89 1461.2 1543.89 1468.33 Q1543.89 1475.44 1545.7 1479.01 Q1547.53 1482.55 1551.14 1482.55 Q1554.77 1482.55 1556.58 1479.01 Q1558.41 1475.44 1558.41 1468.33 Q1558.41 1461.2 1556.58 1457.66 Q1554.77 1454.1 1551.14 1454.1 M1551.14 1450.39 Q1556.95 1450.39 1560.01 1455 Q1563.08 1459.58 1563.08 1468.33 Q1563.08 1477.06 1560.01 1481.67 Q1556.95 1486.25 1551.14 1486.25 Q1545.33 1486.25 1542.25 1481.67 Q1539.2 1477.06 1539.2 1468.33 Q1539.2 1459.58 1542.25 1455 Q1545.33 1450.39 1551.14 1450.39 Z" fill="#000000" fill-rule="nonzero" fill-opacity="1" /><path clip-path="url(#clip720)" d="M1581.3 1469.17 Q1577.97 1469.17 1576.05 1470.95 Q1574.15 1472.73 1574.15 1475.86 Q1574.15 1478.98 1576.05 1480.77 Q1577.97 1482.55 1581.3 1482.55 Q1584.64 1482.55 1586.56 1480.77 Q1588.48 1478.96 1588.48 1475.86 Q1588.48 1472.73 1586.56 1470.95 Q1584.66 1469.17 1581.3 1469.17 M1576.63 1467.18 Q1573.62 1466.44 1571.93 1464.38 Q1570.26 1462.32 1570.26 1459.35 Q1570.26 1455.21 1573.2 1452.8 Q1576.16 1450.39 1581.3 1450.39 Q1586.46 1450.39 1589.4 1452.8 Q1592.34 1455.21 1592.34 1459.35 Q1592.34 1462.32 1590.65 1464.38 Q1588.99 1466.44 1586 1467.18 Q1589.38 1467.96 1591.26 1470.26 Q1593.15 1472.55 1593.15 1475.86 Q1593.15 1480.88 1590.07 1483.57 Q1587.02 1486.25 1581.3 1486.25 Q1575.58 1486.25 1572.51 1483.57 Q1569.45 1480.88 1569.45 1475.86 Q1569.45 1472.55 1571.35 1470.26 Q1573.25 1467.96 1576.63 1467.18 M1574.91 1459.79 Q1574.91 1462.48 1576.58 1463.98 Q1578.27 1465.49 1581.3 1465.49 Q1584.31 1465.49 1586 1463.98 Q1587.71 1462.48 1587.71 1459.79 Q1587.71 1457.11 1586 1455.6 Q1584.31 1454.1 1581.3 1454.1 Q1578.27 1454.1 1576.58 1455.6 Q1574.91 1457.11 1574.91 1459.79 Z" fill="#000000" fill-rule="nonzero" fill-opacity="1" /><path clip-path="url(#clip720)" d="M1857.01 1454.1 Q1853.4 1454.1 1851.57 1457.66 Q1849.77 1461.2 1849.77 1468.33 Q1849.77 1475.44 1851.57 1479.01 Q1853.4 1482.55 1857.01 1482.55 Q1860.65 1482.55 1862.45 1479.01 Q1864.28 1475.44 1864.28 1468.33 Q1864.28 1461.2 1862.45 1457.66 Q1860.65 1454.1 1857.01 1454.1 M1857.01 1450.39 Q1862.82 1450.39 1865.88 1455 Q1868.96 1459.58 1868.96 1468.33 Q1868.96 1477.06 1865.88 1481.67 Q1862.82 1486.25 1857.01 1486.25 Q1851.2 1486.25 1848.12 1481.67 Q1845.07 1477.06 1845.07 1468.33 Q1845.07 1459.58 1848.12 1455 Q1851.2 1450.39 1857.01 1450.39 Z" fill="#000000" fill-rule="nonzero" fill-opacity="1" /><path clip-path="url(#clip720)" d="M1877.17 1479.7 L1882.06 1479.7 L1882.06 1485.58 L1877.17 1485.58 L1877.17 1479.7 Z" fill="#000000" fill-rule="nonzero" fill-opacity="1" /><path clip-path="url(#clip720)" d="M1893.05 1481.64 L1900.69 1481.64 L1900.69 1455.28 L1892.38 1456.95 L1892.38 1452.69 L1900.65 1451.02 L1905.32 1451.02 L1905.32 1481.64 L1912.96 1481.64 L1912.96 1485.58 L1893.05 1485.58 L1893.05 1481.64 Z" fill="#000000" fill-rule="nonzero" fill-opacity="1" /><path clip-path="url(#clip720)" d="M1932.41 1454.1 Q1928.79 1454.1 1926.97 1457.66 Q1925.16 1461.2 1925.16 1468.33 Q1925.16 1475.44 1926.97 1479.01 Q1928.79 1482.55 1932.41 1482.55 Q1936.04 1482.55 1937.85 1479.01 Q1939.67 1475.44 1939.67 1468.33 Q1939.67 1461.2 1937.85 1457.66 Q1936.04 1454.1 1932.41 1454.1 M1932.41 1450.39 Q1938.22 1450.39 1941.27 1455 Q1944.35 1459.58 1944.35 1468.33 Q1944.35 1477.06 1941.27 1481.67 Q1938.22 1486.25 1932.41 1486.25 Q1926.6 1486.25 1923.52 1481.67 Q1920.46 1477.06 1920.46 1468.33 Q1920.46 1459.58 1923.52 1455 Q1926.6 1450.39 1932.41 1450.39 Z" fill="#000000" fill-rule="nonzero" fill-opacity="1" /><path clip-path="url(#clip720)" d="M2208.96 1454.1 Q2205.35 1454.1 2203.52 1457.66 Q2201.72 1461.2 2201.72 1468.33 Q2201.72 1475.44 2203.52 1479.01 Q2205.35 1482.55 2208.96 1482.55 Q2212.59 1482.55 2214.4 1479.01 Q2216.23 1475.44 2216.23 1468.33 Q2216.23 1461.2 2214.4 1457.66 Q2212.59 1454.1 2208.96 1454.1 M2208.96 1450.39 Q2214.77 1450.39 2217.83 1455 Q2220.91 1459.58 2220.91 1468.33 Q2220.91 1477.06 2217.83 1481.67 Q2214.77 1486.25 2208.96 1486.25 Q2203.15 1486.25 2200.07 1481.67 Q2197.02 1477.06 2197.02 1468.33 Q2197.02 1459.58 2200.07 1455 Q2203.15 1450.39 2208.96 1450.39 Z" fill="#000000" fill-rule="nonzero" fill-opacity="1" /><path clip-path="url(#clip720)" d="M2229.12 1479.7 L2234.01 1479.7 L2234.01 1485.58 L2229.12 1485.58 L2229.12 1479.7 Z" fill="#000000" fill-rule="nonzero" fill-opacity="1" /><path clip-path="url(#clip720)" d="M2245 1481.64 L2252.64 1481.64 L2252.64 1455.28 L2244.33 1456.95 L2244.33 1452.69 L2252.59 1451.02 L2257.27 1451.02 L2257.27 1481.64 L2264.91 1481.64 L2264.91 1485.58 L2245 1485.58 L2245 1481.64 Z" fill="#000000" fill-rule="nonzero" fill-opacity="1" /><path clip-path="url(#clip720)" d="M2278.38 1481.64 L2294.7 1481.64 L2294.7 1485.58 L2272.76 1485.58 L2272.76 1481.64 Q2275.42 1478.89 2280 1474.26 Q2284.61 1469.61 2285.79 1468.27 Q2288.03 1465.74 2288.91 1464.01 Q2289.82 1462.25 2289.82 1460.56 Q2289.82 1457.8 2287.87 1456.07 Q2285.95 1454.33 2282.85 1454.33 Q2280.65 1454.33 2278.2 1455.09 Q2275.77 1455.86 2272.99 1457.41 L2272.99 1452.69 Q2275.81 1451.55 2278.27 1450.97 Q2280.72 1450.39 2282.76 1450.39 Q2288.13 1450.39 2291.32 1453.08 Q2294.52 1455.77 2294.52 1460.26 Q2294.52 1462.39 2293.71 1464.31 Q2292.92 1466.2 2290.81 1468.8 Q2290.23 1469.47 2287.13 1472.69 Q2284.03 1475.88 2278.38 1481.64 Z" fill="#000000" fill-rule="nonzero" fill-opacity="1" /><path clip-path="url(#clip720)" d="M1244.92 1522.27 L1244.92 1532.4 L1256.98 1532.4 L1256.98 1536.95 L1244.92 1536.95 L1244.92 1556.3 Q1244.92 1560.66 1246.1 1561.9 Q1247.31 1563.14 1250.97 1563.14 L1256.98 1563.14 L1256.98 1568.04 L1250.97 1568.04 Q1244.19 1568.04 1241.61 1565.53 Q1239.03 1562.98 1239.03 1556.3 L1239.03 1536.95 L1234.73 1536.95 L1234.73 1532.4 L1239.03 1532.4 L1239.03 1522.27 L1244.92 1522.27 Z" fill="#000000" fill-rule="nonzero" fill-opacity="1" /><polyline clip-path="url(#clip722)" style="stroke:#000000; stroke-linecap:round; stroke-linejoin:round; stroke-width:2; stroke-opacity:0.1; fill:none" points="138.959,1343.44 2352.76,1343.44 "/>
<polyline clip-path="url(#clip722)" style="stroke:#000000; stroke-linecap:round; stroke-linejoin:round; stroke-width:2; stroke-opacity:0.1; fill:none" points="138.959,1157.64 2352.76,1157.64 "/>
<polyline clip-path="url(#clip722)" style="stroke:#000000; stroke-linecap:round; stroke-linejoin:round; stroke-width:2; stroke-opacity:0.1; fill:none" points="138.959,971.842 2352.76,971.842 "/>
<polyline clip-path="url(#clip722)" style="stroke:#000000; stroke-linecap:round; stroke-linejoin:round; stroke-width:2; stroke-opacity:0.1; fill:none" points="138.959,786.043 2352.76,786.043 "/>
<polyline clip-path="url(#clip722)" style="stroke:#000000; stroke-linecap:round; stroke-linejoin:round; stroke-width:2; stroke-opacity:0.1; fill:none" points="138.959,600.244 2352.76,600.244 "/>
<polyline clip-path="url(#clip722)" style="stroke:#000000; stroke-linecap:round; stroke-linejoin:round; stroke-width:2; stroke-opacity:0.1; fill:none" points="138.959,414.445 2352.76,414.445 "/>
<polyline clip-path="url(#clip722)" style="stroke:#000000; stroke-linecap:round; stroke-linejoin:round; stroke-width:2; stroke-opacity:0.1; fill:none" points="138.959,228.646 2352.76,228.646 "/>
<polyline clip-path="url(#clip720)" style="stroke:#000000; stroke-linecap:round; stroke-linejoin:round; stroke-width:4; stroke-opacity:1; fill:none" points="138.959,1423.18 138.959,47.2441 "/>
<polyline clip-path="url(#clip720)" style="stroke:#000000; stroke-linecap:round; stroke-linejoin:round; stroke-width:4; stroke-opacity:1; fill:none" points="138.959,1343.44 157.857,1343.44 "/>
<polyline clip-path="url(#clip720)" style="stroke:#000000; stroke-linecap:round; stroke-linejoin:round; stroke-width:4; stroke-opacity:1; fill:none" points="138.959,1157.64 157.857,1157.64 "/>
<polyline clip-path="url(#clip720)" style="stroke:#000000; stroke-linecap:round; stroke-linejoin:round; stroke-width:4; stroke-opacity:1; fill:none" points="138.959,971.842 157.857,971.842 "/>
<polyline clip-path="url(#clip720)" style="stroke:#000000; stroke-linecap:round; stroke-linejoin:round; stroke-width:4; stroke-opacity:1; fill:none" points="138.959,786.043 157.857,786.043 "/>
<polyline clip-path="url(#clip720)" style="stroke:#000000; stroke-linecap:round; stroke-linejoin:round; stroke-width:4; stroke-opacity:1; fill:none" points="138.959,600.244 157.857,600.244 "/>
<polyline clip-path="url(#clip720)" style="stroke:#000000; stroke-linecap:round; stroke-linejoin:round; stroke-width:4; stroke-opacity:1; fill:none" points="138.959,414.445 157.857,414.445 "/>
<polyline clip-path="url(#clip720)" style="stroke:#000000; stroke-linecap:round; stroke-linejoin:round; stroke-width:4; stroke-opacity:1; fill:none" points="138.959,228.646 157.857,228.646 "/>
<path clip-path="url(#clip720)" d="M91.0151 1329.24 Q87.404 1329.24 85.5753 1332.8 Q83.7697 1336.34 83.7697 1343.47 Q83.7697 1350.58 85.5753 1354.15 Q87.404 1357.69 91.0151 1357.69 Q94.6493 1357.69 96.4548 1354.15 Q98.2835 1350.58 98.2835 1343.47 Q98.2835 1336.34 96.4548 1332.8 Q94.6493 1329.24 91.0151 1329.24 M91.0151 1325.53 Q96.8252 1325.53 99.8808 1330.14 Q102.959 1334.72 102.959 1343.47 Q102.959 1352.2 99.8808 1356.81 Q96.8252 1361.39 91.0151 1361.39 Q85.2049 1361.39 82.1262 1356.81 Q79.0707 1352.2 79.0707 1343.47 Q79.0707 1334.72 82.1262 1330.14 Q85.2049 1325.53 91.0151 1325.53 Z" fill="#000000" fill-rule="nonzero" fill-opacity="1" /><path clip-path="url(#clip720)" d="M86.6401 1170.99 L102.959 1170.99 L102.959 1174.92 L81.0151 1174.92 L81.0151 1170.99 Q83.6771 1168.23 88.2604 1163.6 Q92.8669 1158.95 94.0475 1157.61 Q96.2928 1155.08 97.1724 1153.35 Q98.0752 1151.59 98.0752 1149.9 Q98.0752 1147.14 96.1308 1145.41 Q94.2095 1143.67 91.1077 1143.67 Q88.9086 1143.67 86.4549 1144.43 Q84.0244 1145.2 81.2466 1146.75 L81.2466 1142.03 Q84.0707 1140.89 86.5243 1140.31 Q88.978 1139.74 91.0151 1139.74 Q96.3854 1139.74 99.5798 1142.42 Q102.774 1145.11 102.774 1149.6 Q102.774 1151.73 101.964 1153.65 Q101.177 1155.55 99.0706 1158.14 Q98.4919 1158.81 95.39 1162.03 Q92.2882 1165.22 86.6401 1170.99 Z" fill="#000000" fill-rule="nonzero" fill-opacity="1" /><path clip-path="url(#clip720)" d="M93.3762 958.636 L81.5707 977.085 L93.3762 977.085 L93.3762 958.636 M92.1493 954.562 L98.0289 954.562 L98.0289 977.085 L102.959 977.085 L102.959 980.974 L98.0289 980.974 L98.0289 989.122 L93.3762 989.122 L93.3762 980.974 L77.7744 980.974 L77.7744 976.46 L92.1493 954.562 Z" fill="#000000" fill-rule="nonzero" fill-opacity="1" /><path clip-path="url(#clip720)" d="M91.4317 784.18 Q88.2836 784.18 86.4318 786.332 Q84.6031 788.485 84.6031 792.235 Q84.6031 795.962 86.4318 798.138 Q88.2836 800.291 91.4317 800.291 Q94.5799 800.291 96.4085 798.138 Q98.2604 795.962 98.2604 792.235 Q98.2604 788.485 96.4085 786.332 Q94.5799 784.18 91.4317 784.18 M100.714 769.527 L100.714 773.786 Q98.9548 772.953 97.1493 772.513 Q95.3669 772.073 93.6076 772.073 Q88.978 772.073 86.5243 775.198 Q84.0938 778.323 83.7466 784.643 Q85.1123 782.629 87.1725 781.564 Q89.2327 780.476 91.7095 780.476 Q96.9178 780.476 99.927 783.647 Q102.959 786.795 102.959 792.235 Q102.959 797.559 99.8113 800.777 Q96.6632 803.994 91.4317 803.994 Q85.4364 803.994 82.2651 799.411 Q79.0938 794.805 79.0938 786.078 Q79.0938 777.883 82.9827 773.022 Q86.8716 768.138 93.4225 768.138 Q95.1817 768.138 96.9641 768.485 Q98.7696 768.833 100.714 769.527 Z" fill="#000000" fill-rule="nonzero" fill-opacity="1" /><path clip-path="url(#clip720)" d="M91.1077 601.112 Q87.7743 601.112 85.8531 602.895 Q83.9549 604.677 83.9549 607.802 Q83.9549 610.927 85.8531 612.709 Q87.7743 614.492 91.1077 614.492 Q94.441 614.492 96.3623 612.709 Q98.2835 610.904 98.2835 607.802 Q98.2835 604.677 96.3623 602.895 Q94.4641 601.112 91.1077 601.112 M86.4318 599.121 Q83.4225 598.381 81.7327 596.321 Q80.066 594.26 80.066 591.297 Q80.066 587.154 83.0058 584.747 Q85.9688 582.339 91.1077 582.339 Q96.2697 582.339 99.2095 584.747 Q102.149 587.154 102.149 591.297 Q102.149 594.26 100.459 596.321 Q98.7928 598.381 95.8067 599.121 Q99.1863 599.909 101.061 602.2 Q102.959 604.492 102.959 607.802 Q102.959 612.825 99.8808 615.51 Q96.8252 618.195 91.1077 618.195 Q85.3901 618.195 82.3114 615.51 Q79.2559 612.825 79.2559 607.802 Q79.2559 604.492 81.154 602.2 Q83.0521 599.909 86.4318 599.121 M84.7188 591.737 Q84.7188 594.422 86.3855 595.927 Q88.0753 597.432 91.1077 597.432 Q94.1169 597.432 95.8067 595.927 Q97.5197 594.422 97.5197 591.737 Q97.5197 589.052 95.8067 587.547 Q94.1169 586.043 91.1077 586.043 Q88.0753 586.043 86.3855 587.547 Q84.7188 589.052 84.7188 591.737 Z" fill="#000000" fill-rule="nonzero" fill-opacity="1" /><path clip-path="url(#clip720)" d="M51.6634 427.79 L59.3023 427.79 L59.3023 401.425 L50.9921 403.091 L50.9921 398.832 L59.256 397.165 L63.9319 397.165 L63.9319 427.79 L71.5707 427.79 L71.5707 431.725 L51.6634 431.725 L51.6634 427.79 Z" fill="#000000" fill-rule="nonzero" fill-opacity="1" /><path clip-path="url(#clip720)" d="M91.0151 400.244 Q87.404 400.244 85.5753 403.809 Q83.7697 407.35 83.7697 414.48 Q83.7697 421.586 85.5753 425.151 Q87.404 428.693 91.0151 428.693 Q94.6493 428.693 96.4548 425.151 Q98.2835 421.586 98.2835 414.48 Q98.2835 407.35 96.4548 403.809 Q94.6493 400.244 91.0151 400.244 M91.0151 396.54 Q96.8252 396.54 99.8808 401.147 Q102.959 405.73 102.959 414.48 Q102.959 423.207 99.8808 427.813 Q96.8252 432.397 91.0151 432.397 Q85.2049 432.397 82.1262 427.813 Q79.0707 423.207 79.0707 414.48 Q79.0707 405.73 82.1262 401.147 Q85.2049 396.54 91.0151 396.54 Z" fill="#000000" fill-rule="nonzero" fill-opacity="1" /><path clip-path="url(#clip720)" d="M53.2606 241.991 L60.8995 241.991 L60.8995 215.626 L52.5893 217.292 L52.5893 213.033 L60.8532 211.366 L65.5291 211.366 L65.5291 241.991 L73.1679 241.991 L73.1679 245.926 L53.2606 245.926 L53.2606 241.991 Z" fill="#000000" fill-rule="nonzero" fill-opacity="1" /><path clip-path="url(#clip720)" d="M86.6401 241.991 L102.959 241.991 L102.959 245.926 L81.0151 245.926 L81.0151 241.991 Q83.6771 239.237 88.2604 234.607 Q92.8669 229.954 94.0475 228.612 Q96.2928 226.089 97.1724 224.352 Q98.0752 222.593 98.0752 220.903 Q98.0752 218.149 96.1308 216.413 Q94.2095 214.677 91.1077 214.677 Q88.9086 214.677 86.4549 215.44 Q84.0244 216.204 81.2466 217.755 L81.2466 213.033 Q84.0707 211.899 86.5243 211.32 Q88.978 210.741 91.0151 210.741 Q96.3854 210.741 99.5798 213.427 Q102.774 216.112 102.774 220.602 Q102.774 222.732 101.964 224.653 Q101.177 226.552 99.0706 229.144 Q98.4919 229.815 95.39 233.033 Q92.2882 236.227 86.6401 241.991 Z" fill="#000000" fill-rule="nonzero" fill-opacity="1" /><polyline clip-path="url(#clip722)" style="stroke:#009af9; stroke-linecap:round; stroke-linejoin:round; stroke-width:8; stroke-opacity:1; fill:none" points="138.959,414.445 138.96,414.41 138.96,414.295 138.96,414.248 138.961,414.197 138.961,414.052 138.962,414.028 138.962,414.242 138.963,414.291 138.964,414.281 138.964,414.245 138.965,414.298 138.966,414.247 138.967,414.048 138.969,414.106 138.97,414.231 138.972,414.181 138.973,414.134 138.975,414.271 138.978,414.116 138.98,414.54 138.983,414.745 138.986,415.191 138.99,415.008 138.994,415.015 138.999,414.671 139.004,414.966 139.01,414.618 139.016,415.265 139.024,414.506 139.032,415.221 139.041,415.429 139.052,416.083 139.064,415.869 139.077,415.397 139.092,415.403 139.109,415.613 139.128,415.188 139.149,415.704 139.173,415.422 139.2,415.443 139.231,415.38 139.265,413.828 139.303,414.852 139.347,415.756 139.395,416.324 139.45,416.726 139.512,415.566 139.581,414.757 139.659,413.625 139.747,412.583 139.845,411.029 139.956,411.63 140.081,414.969 140.222,423.223 140.38,421.754 140.558,417.604 140.758,422.133 140.983,425.913 141.236,427.808 141.521,426.195 141.841,425.996 142.202,426.368 142.607,427.071 143.063,428.663 143.577,433.912 144.154,427.688 144.804,424.943 145.535,421.319 146.357,420.468 147.282,414.278 148.322,422.804 149.493,425.351 150.81,429.33 152.291,420.513 153.958,423.848 155.833,435.015 157.943,428.454 160.316,452.077 161.86,462.472 163.598,470.929 165.553,465.296 167.751,471.509 170.225,478.81 173.008,477.669 176.139,491.602 179.662,476.349 183.624,487.934 188.082,507.779 193.098,519.644 198.74,529.818 205.087,514.971 212.228,505.156 214.692,497.525 217.464,491.869 220.583,494.303 224.092,488.622 228.039,504.056 232.48,479.971 236.307,468.566 240.611,450.768 245.454,460.621 250.902,467.055 257.031,448.885 263.926,428.097 271.683,439.427 280.41,453.064 290.227,475.039 295.536,485.461 301.507,497.971 308.226,502.544 315.784,505.495 324.286,483.011 333.454,508.158 343.768,494.547 355.371,483.65 361.676,507.451 368.769,472.412 374.803,481.48 381.591,481.156 389.228,484.557 397.82,460.941 403.07,462.358 408.976,462.498 415.483,462.235 422.802,459.135 428.818,469.904 435.586,464.664 443.2,425.673 445.224,421.958 447.5,413.798 450.061,412.736 452.942,415.212 456.183,412.538 459.829,417.359 463.931,415.652 468.546,416.647 469.468,421.69 470.507,414.015 471.675,412.367 472.989,416.335 474.467,412.557 476.131,407.317 478.002,417.489 479.458,426.838 481.097,429.212 482.94,420.087 485.014,419.49 487.347,442.829 488.663,437.554 490.144,432.872 491.81,423.162 493.685,426.396 495.794,416.666 498.166,427.952 500.835,423.697 503.4,424.325 506.286,422.4 509.532,422.793 513.184,426.188 517.293,427.452 519.545,434.544 522.078,441.164 524.928,433.604 528.135,453.339 531.742,470.599 535.8,458.258 540.365,490.451 542.66,485.985 545.242,466.473 548.146,460.68 551.413,473.33 555.089,482.141 559.224,485.619 563.876,493.613 569.11,491.292 574.998,494.715 577.393,502.073 580.087,486.579 583.119,486.234 586.529,476.628 590.366,458.677 594.682,455.337 599.537,465.634 605,444.987 611.145,464.856 618.059,472.712 625.12,465.895 632.005,454.801 639.752,456.619 648.466,468.682 656.203,513.725 660.333,514.727 664.979,517.831 670.206,535.906 676.086,538.614 682.701,564.392 690.143,566.257 694.421,559.722 699.233,541.79 704.646,521.411 710.736,493.803 717.588,501.777 725.233,459.848 730.341,477.511 736.087,454.513 742.552,473.043 746.509,451.557 750.96,431.079 755.968,434.804 761.601,488.836 763.076,484.102 764.736,490.495 766.602,500.009 768.702,497.6 771.065,500.201 773.723,475.413 776.713,456.264 780.077,480.626 783.862,484.393 788.119,476.277 792.909,475.943 798.297,468.314 804.359,480.72 811.179,481.026 814.812,482.977 818.899,472.453 823.496,471.32 828.669,476.902 834.488,450.709 837.859,471.374 841.652,456.316 845.919,473.537 850.72,470.886 856.121,459.316 862.196,448.14 869.031,462.178 876.721,481.091 883.01,470.356 890.086,473.105 898.047,474.282 907.002,489.777 917.077,526.285 924.118,519.09 932.04,532.014 936.412,539.184 941.332,604.447 942.362,598.051 943.521,585.983 944.825,580.181 945.589,573.08 946.449,564.205 947.417,555.129 948.505,550.11 949.251,557.635 950.089,537.632 951.033,522.872 952.094,525.923 953.288,534.164 954.631,521.71 955.682,533.313 956.865,526.873 958.195,536.534 959.691,529.642 961.375,513.407 963.268,523.122 965.399,518.313 967.796,510.898 970.492,492.073 971.032,487.104 971.638,496.519 972.321,487.209 973.089,505.42 973.953,509.446 974.924,511.962 976.018,526.513 977.153,534.19 978.43,543.136 979.867,539.119 981.483,535.449 982.733,551.384 984.14,558.122 985.723,584.865 987.503,594.337 989.506,608.906 991.759,605.29 994.294,614.883 997.145,617.319 1000.35,636.012 1003.96,628.242 1008.02,611.511 1012.59,620.437 1017.73,636.173 1023.51,600.371 1025.09,584.171 1026.87,564.888 1028.87,585.365 1031.12,574.259 1033.65,595.48 1035.83,588.994 1038.29,585.836 1041.06,597.826 1044.17,598.442 1047.67,586.67 1051.61,566.519 1053.62,567.575 1055.87,564.373 1058.41,564.303 1061.26,554.742 1064.47,547.342 1067.66,542.015 1071.25,542.539 1075.28,521.169 1079.82,533.469 1084.93,549.372 1090.67,566.755 1092.11,591.092 1093.73,577.513 1095.55,563.132 1097.59,560.643 1099.89,554.237 1102.48,566.566 1105.4,578.677 1108.67,582.44 1112.36,585.542 1116.51,622.769 1120.07,628.94 1124.08,649.48 1126.82,628.715 1129.9,633.826 1133.36,638.611 1137.26,605.628 1141.65,581.797 1146.58,560.948 1149.37,564.274 1152.5,572.984 1156.03,585.442 1159.99,622.212 1164.35,665.303 1166.92,656.235 1168.51,660.23 1170.28,672.613 1172.28,689.086 1174.54,662.278 1176.92,659.651 1179.6,662.952 1182.61,681.835 1186.01,664.387 1188.98,703.06 1192.33,734.684 1196.09,713.276 1200.33,689.741 1205.09,690.658 1210.45,708.367 1216.48,691.337 1223.27,676.177 1229.04,680.294 1235.53,697.614 1242.83,706.539 1251.04,701.927 1260.29,714.768 1270.68,774.686 1281.55,780.609 1290.77,813.2 1301.14,864.781 1312.81,932.14 1325.94,981.039 1336.6,1081.53 1344.08,1044.62 1352.48,1063.59 1361.95,1105.07 1371.07,1094.57 1381.33,1126.29 1386.53,1097.51 1392.39,1088.08 1394.63,1115.88 1397.14,1122.15 1399.97,1092.64 1403.16,1079.45 1404.96,1073.49 1406.98,1106.14 1409.25,1108.05 1411.81,1132.79 1414.69,1141.04 1417.93,1171.61 1420.28,1189.34 1422.92,1192.13 1424.02,1164.76 1425.25,1179.8 1426.64,1180.37 1428.21,1175.64 1429.96,1179.55 1431.94,1165.14 1434.17,1162.09 1436.67,1176.49 1439.49,1178.48 1440.32,1182.7 1441.25,1173.33 1442.3,1155.15 1443.48,1145.13 1444.8,1130.63 1446.3,1126.7 1447.74,1118.24 1449.36,1151.9 1451.19,1138.18 1452.55,1115.41 1454.09,1106.76 1455.82,1107.43 1457.76,1107.42 1459.95,1086.98 1462.41,1078.37 1465.18,1100.13 1468.29,1103.48 1471.8,1154.92 1473.62,1161.76 1475.66,1147.85 1477.96,1137.79 1480.55,1147.82 1483.46,1143.02 1486.73,1140.72 1490.42,1149.44 1493.82,1127 1497.64,1078.83 1499.39,1091.15 1501.37,1089.5 1503.58,1126.93 1505.64,1157.93 1506.29,1165.85 1507.02,1157.9 1507.64,1160.03 1508.33,1154.51 1509.11,1143.71 1509.98,1142.32 1510.96,1138.71 1512.07,1130.17 1513.32,1126.65 1514.72,1141.94 1516.29,1148.08 1518.07,1144.89 1520.06,1160.76 1522.3,1141.74 1524.76,1118.11 1527.52,1142.22 1530.63,1121.91 1533.14,1161.9 1535.95,1196.83 1539.06,1180.82 1542.57,1180.17 1545.81,1224.4 1547.09,1228.31 1548.54,1241.08 1550.17,1250.88 1552,1258.51 1554.07,1252.16 1555.76,1257.29 1556.57,1262.51 1557.47,1274.97 1558.49,1278.3 1559.63,1288.44 1560.91,1299.58 1562.36,1282.58 1563.99,1281.43 1565.82,1289.71 1567.88,1281.56 1570.19,1284.93 1572.8,1299.61 1575.73,1286.57 1576.43,1304.32 1577.21,1308.92 1578.09,1320.89 1579.07,1324.29 1580.19,1313.72 1580.91,1321.75 1581.73,1318.41 1582.65,1304.94 1583.1,1300.97 1583.6,1302.69 1584.17,1299.56 1584.81,1294.55 1585.53,1305.95 1586.34,1302.7 1587.25,1310.98 1588.28,1322.34 1588.88,1330.08 1589.56,1330.85 1590.32,1324.8 1590.75,1317.7 1591.24,1320.81 1591.78,1328.47 1592.39,1330.82 1593.08,1328.22 1593.86,1329.55 1594.73,1332.75 1595.71,1326.81 1596.54,1315.4 1597.48,1309.7 1598.54,1306.61 1599.73,1313.09 1600.45,1308.3 1601.25,1311.15 1602.15,1314.53 1603.17,1314.8 1604.31,1326.42 1605.6,1328.89 1607.05,1324.92 1608.67,1329.71 1610.51,1329.63 1612.57,1321.69 1613.58,1323.33 1614.71,1324.28 1615.99,1335.8 1617,1328.05 1618.14,1331 1619.35,1336.38 1620.7,1329.34 1622.22,1327.97 1623.93,1321.83 1625.85,1334.51 1628.02,1320.96 1630.45,1318.28 1631.71,1310.91 1633.12,1302.78 1634.71,1304.91 1636.5,1307.04 1638.51,1312.1 1640.77,1299.16 1642.45,1285.66 1644.35,1298.51 1646.48,1296.18 1647.96,1299.91 1649.11,1283.09 1649.72,1282.95 1650.4,1298.61 1651.16,1294.97 1652.02,1286.87 1652.99,1275.68 1654.08,1272.6 1655.31,1268.38 1656.69,1256.67 1657.48,1261.01 1658.37,1253.24 1659.37,1239.93 1660.49,1241.89 1661.76,1245.1 1663.18,1246.55 1664.78,1245.6 1665.76,1263.68 1666.86,1276.77 1668.1,1282.6 1669.5,1274.52 1670.61,1280.19 1671.87,1288.2 1673.29,1298.16 1674.22,1301.84 1675.28,1297.63 1676.47,1307.86 1677.8,1298.45 1679.3,1294.66 1680.99,1299.42 1682.37,1298.41 1683.23,1298.66 1684.21,1294.54 1685.3,1301.2 1686.49,1296.31 1687.81,1291.46 1689.07,1281.95 1690.48,1273.62 1692.07,1284.35 1693.85,1269 1694.76,1268.8 1695.78,1257.97 1696.92,1261.18 1698.22,1262.62 1699.67,1267.21 1700.2,1266.74 1700.81,1266.48 1701.49,1261.55 1702.09,1270.05 1702.77,1278.93 1703.53,1275.55 1703.93,1288.62 1704.38,1293.67 1704.89,1285.07 1705.46,1287.58 1705.79,1284.18 1706.15,1281.82 1706.57,1281.88 1707.03,1281.75 1707.55,1283.73 1708.14,1290.82 1708.8,1282.69 1709.55,1276.15 1709.96,1272.55 1710.43,1272.44 1710.95,1272.45 1711.54,1268.93 1711.76,1263.29 1712.02,1269.67 1712.3,1272.55 1712.62,1286.15 1712.98,1282.63 1713.39,1289.24 1713.85,1287.93 1714.36,1293.78 1714.94,1291.89 1715.59,1304.04 1716.28,1299.58 1717.06,1300.91 1717.94,1312.89 1718.66,1317.89 1719.47,1314.33 1719.94,1310.11 1720.47,1304.54 1721.06,1309.34 1721.72,1309.11 1722.31,1307 1722.96,1304.18 1723.7,1302.02 1724.53,1308.64 1725.47,1300.03 1726.52,1288.99 1727.01,1283.75 1727.56,1280.6 1728.18,1280.38 1728.88,1279.27 1729.67,1284.11 1730.55,1304.59 1731.36,1304.68 1732.28,1304.2 1733.31,1296.4 1734.28,1304.05 1735.37,1305.27 1736.6,1308.12 1737.99,1303.73 1739.54,1303.7 1741.29,1310.59 1743.14,1305.33 1745.18,1308.58 1747.47,1297.18 1749.26,1291.95 1751.26,1302.11 1753.52,1287.4 1754.9,1284.37 1756.17,1288.13 1757.6,1288.73 1758.91,1282.59 1760.3,1290.84 1761.12,1285.1 1761.48,1284.9 1761.87,1279.2 1762.32,1279.61 1762.82,1284.09 1763.39,1277.83 1764.02,1275.97 1764.74,1271.05 1765.54,1271.35 1766.45,1265.25 1767.47,1240.54 1768.38,1235.39 1769.41,1229.56 1770.57,1216.66 1771.87,1211.89 1773.33,1195.66 1774.97,1193.5 1776.83,1189.54 1778.91,1179.9 1779.99,1177.37 1781.19,1160.9 1782.14,1147.54 1783.21,1143.87 1784.42,1144.87 1785.77,1135.98 1787.29,1137.81 1789,1158.53 1790.93,1167.12 1793.09,1167.78 1795.53,1190.07 1798.27,1223.56 1800.41,1236.46 1802.82,1221.16 1805.41,1214.89 1808.33,1231.52 1811.61,1202.18 1814.39,1230.38 1817.52,1236.8 1821.04,1260.45 1823.61,1263.01 1826.49,1265.67 1829.53,1238.66 1832.96,1243.51 1836.81,1241.67 1841.15,1235.17 1845.86,1246.21 1851.16,1224.56 1853.13,1232.02 1855.35,1233.79 1857.85,1241.77 1859.48,1259.53 1861.32,1258.44 1863.38,1247.65 1864.46,1266.92 1865.67,1292.43 1867.04,1307.57 1868.58,1312.67 1870.3,1332.28 1871.76,1329.75 1873.41,1321.39 1874.61,1321.93 1875.97,1320.19 1877.49,1316.19 1878.26,1314.57 1879.12,1316.23 1880.09,1307.15 1881.18,1311.45 1882.4,1325.5 1883.78,1317.07 1885.33,1324.11 1886.56,1317.47 1887.95,1322.62 1888.78,1327.74 1889.71,1334.1 1890.77,1327.2 1891.38,1327.82 1892.07,1326.42 1892.85,1319.26 1893.73,1313.63 1894.71,1301.74 1895.5,1308.27 1896.4,1300.38 1897.4,1289.33 1898.53,1281.02 1899.8,1269.11 1901.22,1258.51 1902.83,1251.61 1904.64,1264.84 1906.67,1286.26 1908.96,1281.47 1910.84,1273.2 1912.96,1252.48 1915.35,1249.37 1918.03,1253.57 1921.05,1281.92 1923.25,1289.74 1925.72,1281.74 1928.5,1307.59 1929.81,1313.53 1931.29,1316.9 1932.95,1317.31 1933.99,1311.38 1934.82,1293.92 1935.58,1298.23 1936.43,1292.69 1936.79,1283.38 1937.2,1290.04 1937.67,1288.06 1938.19,1278.14 1938.77,1288.46 1939.11,1287.3 1939.48,1274.43 1939.68,1268.58 1939.91,1281.46 1940.16,1283.19 1940.44,1282.32 1940.76,1284.33 1941.12,1280.93 1941.53,1277.6 1941.98,1269.08 1942.5,1277.34 1943.07,1267.07 1943.72,1267.46 1944.45,1258.82 1945.27,1258.71 1946.19,1249.33 1947.23,1263.35 1948.4,1270.38 1949.71,1275.03 1951.19,1262.81 1952.86,1257.43 1954.73,1270.38 1955.96,1271.83 1956.71,1277.7 1957.55,1264.85 1958.49,1266.75 1959.56,1267.01 1960.21,1271.52 1960.94,1279.29 1961.77,1273.64 1962.39,1279.11 1963.09,1277.12 1963.89,1278.62 1964.77,1286.39 1965.78,1279.65 1966.9,1290.35 1968.17,1289.69 1968.53,1286.36 1968.94,1295.91 1969.39,1291.82 1969.91,1283.56 1970.19,1284.28 1970.51,1282.91 1970.87,1273.31 1971.27,1274.55 1971.72,1269.23 1972.24,1259.33 1972.81,1273.23 1973.45,1283.91 1974.18,1287.88 1975,1293.76 1975.92,1299.99 1976.95,1295.26 1978.12,1294.85 1979.09,1296.1 1980.18,1297.67 1981.4,1293.17 1982.78,1293.12 1984.34,1289.86 1986.09,1291.72 1988.05,1310.4 1989.79,1302.71 1991.75,1309.79 1993.95,1310.59 1996.27,1303.95 1998.87,1304.77 2000.5,1299.18 2002.32,1299.92 2003.48,1299.34 2004.42,1303.27 2005.47,1305.91 2006.66,1303.01 2008,1290.16 2009.5,1300.44 2011.19,1307.23 2013.09,1318.12 2013.87,1322.58 2014.75,1324.47 2014.97,1324.78 2015.21,1330.97 2015.49,1334.06 2015.8,1337.42 2016.15,1341.87 2016.54,1339.05 2016.98,1334.94 2017.39,1339.23 2017.85,1341.3 2018.37,1340.51 2018.96,1343.33 2019.62,1340.29 2020.04,1339.84 2020.52,1343.88 2021.05,1348.27 2021.65,1350.23 2022.33,1353.51 2022.84,1351.73 2023.43,1350.92 2024.08,1354.35 2024.82,1353.7 2025.65,1356.39 2026.58,1355.31 2027.63,1358.82 2028.41,1354.41 2029.29,1347.5 2030.28,1340.99 2031.39,1344.56 2031.79,1346.57 2032.23,1351.19 2032.73,1357.23 2033.02,1354.67 2033.34,1351.88 2033.71,1351.98 2034.03,1348.64 2034.39,1348.41 2034.8,1348.13 2035.26,1349.89 2035.78,1352.34 2036.36,1353.5 2037.01,1345.4 2037.75,1339.45 2038.57,1333.33 2039.5,1328.89 2040.55,1327.79 2041.73,1323.73 2043.05,1318.12 2044.54,1326.02 2045.47,1325.85 2046.51,1315.05 2047.69,1315.03 2049.01,1324.14 2049.55,1326.06 2050.17,1330.22 2050.85,1323.91 2051.63,1330.61 2052.02,1327.52 2052.47,1328.12 2052.97,1332.82 2053.53,1335.06 2054.06,1335.13 2054.65,1326.81 2055.31,1325.07 2056.06,1312.38 2056.57,1312.8 2057.15,1317.33 2057.8,1315.17 2058.53,1311.33 2059.35,1312.54 2060.28,1316.28 2060.71,1314.77 2061.2,1324.4 2061.72,1324.09 2062.29,1326.46 2062.94,1326.84 2063.67,1330.8 2064.49,1340.6 2065.34,1338.79 2066.3,1343.27 2067.38,1348.69 2068.59,1345.49 2069.95,1340.28 2071.48,1340.43 2073.2,1339.95 2074.15,1340.86 2075.22,1346.5 2075.88,1351.45 2076.62,1348.86 2076.88,1346.28 2077.16,1341.13 2077.49,1333.88 2077.63,1333.5 2077.78,1337.76 2077.96,1338.45 2078.16,1336.7 2078.38,1333.01 2078.63,1335.92 2078.92,1333.61 2079.23,1334.91 2079.59,1333.26 2079.99,1324.81 2080.33,1327.61 2080.72,1327.77 2081.15,1327.29 2081.63,1329.4 2082.18,1333.71 2082.79,1333.68 2083.48,1339.88 2084.25,1341.29 2085.12,1353.06 2085.56,1348.66 2086.05,1346.76 2086.59,1347.33 2087.21,1335.38 2087.66,1337.87 2088.16,1344.44 2088.72,1342.69 2089.35,1341.88 2090.07,1345.54 2090.87,1337.47 2091.77,1338.21 2092.44,1331.55 2093.2,1331.98 2094.05,1335.75 2095,1336.24 2096.08,1338.02 2097.29,1340.16 2098.65,1341.91 2100.18,1353.57 2101.04,1355.53 2102,1348.32 2103.09,1344.05 2104.32,1336.44 2104.63,1335.87 2104.98,1337.25 2105.38,1340.4 2105.51,1343.87 2105.66,1345.27 2105.83,1342.68 2106.02,1343.81 2106.09,1343.01 2106.17,1341.5 2106.25,1340.52 2106.35,1340.11 2106.46,1337.09 2106.58,1334.84 2106.72,1336.85 2106.87,1333.49 2107.05,1332.29 2107.24,1333.33 2107.46,1331.65 2107.71,1333.12 2107.99,1337.47 2108.31,1340.34 2108.66,1347.88 2108.99,1346.63 2109.35,1347.9 2109.77,1341.7 2110.23,1340.6 2110.75,1337.46 2111.34,1330.6 2112,1325.93 2112.74,1326.27 2113.58,1333.87 2114.27,1332.18 2115.05,1328.68 2115.89,1333.16 2116.83,1327.88 2117.89,1336.47 2119.08,1340.12 2120.42,1346.76 2120.77,1347.1 2121.17,1351.82 2121.61,1357 2122.03,1354.82 2122.5,1352.48 2123.03,1352.77 2123.63,1356.55 2124.3,1355.9 2125.06,1350.78 2125.65,1342.23 2126.33,1346.75 2127.08,1350 2127.93,1349.24 2128.77,1346.15 2129.71,1343.48 2130.21,1339.09 2130.76,1333.95 2131.39,1329.09 2132.1,1329.25 2132.32,1330.72 2132.58,1332.12 2132.86,1338.16 2133.18,1338.22 2133.55,1334.98 2133.95,1331.63 2134.41,1332.76 2134.93,1330.23 2135.51,1331 2136.16,1337.35 2136.74,1344.58 2137.4,1346.89 2138.14,1354.04 2138.97,1353.56 2139.51,1354.2 2140.11,1355.34 2140.8,1364.51 2141.36,1360.14 2141.83,1366.06 2142.37,1371.71 2142.97,1369.37 2143.65,1361.54 2144.41,1371.16 2144.72,1368.19 2145.07,1373.92 2145.47,1377.18 2145.67,1376.33 2145.9,1378.84 2146.17,1384.24 2146.46,1379.82 2146.79,1376.48 2147.16,1381.24 2147.58,1381.12 2148.05,1377.2 2148.58,1376.14 2149.17,1375.47 2149.84,1367.26 2150.06,1368.63 2150.3,1369.1 2150.57,1371.87 2150.83,1368.14 2151.11,1366.25 2151.44,1365.36 2151.76,1376.12 2152.13,1380.83 2152.54,1381.31 2152.79,1378.28 2153.07,1374.21 2153.39,1369.71 2153.75,1368.81 2154.15,1364.24 2154.6,1368.48 2155.11,1367.61 2155.64,1361.3 2156.23,1359.51 2156.9,1356.34 2157.65,1352.26 2158.5,1351.81 2159.45,1348.68 2159.88,1349.15 2160.36,1353.13 2160.91,1357.38 2161.52,1357.76 2162.21,1352.13 2162.98,1346.92 2163.85,1343.08 2164.83,1348.86 2165.03,1351.27 2165.25,1351.93 2165.5,1350.25 2165.78,1354.79 2166.09,1352.49 2166.45,1351.56 2166.75,1353.02 2167.09,1351.62 2167.48,1348.29 2167.91,1342.97 2168.4,1340.85 2168.49,1342.38 2168.6,1343.17 2168.73,1345.19 2168.87,1347.51 2169.02,1345.19 2169.2,1348.46 2169.39,1345.4 2169.43,1344.67 2169.48,1344.24 2169.53,1344.93 2169.58,1344.14 2169.65,1346.64 2169.72,1345.98 2169.8,1348.57 2169.89,1347.86 2169.99,1348.14 2170.1,1346.23 2170.23,1346.68 2170.38,1346.15 2170.54,1349.89 2170.72,1347.38 2170.93,1348.07 2171.16,1353.2 2171.42,1357.8 2171.71,1359.74 2172.04,1358.37 2172.41,1358.34 2172.83,1353.29 2173.29,1353.58 2173.66,1350.81 2174.07,1351.78 2174.53,1356.25 2175.04,1348.89 2175.62,1348.81 2176.28,1344.96 2177.01,1345.02 2177.35,1347.12 2177.72,1341.44 2178.15,1340.32 2178.5,1342.85 2178.89,1339.07 2179.12,1331.97 2179.38,1331.91 2179.66,1333.55 2179.99,1333.49 2180.35,1335.63 2180.76,1335.61 2181.22,1337.66 2181.74,1344.43 2182.32,1351.18 2182.97,1349.92 2183.7,1350.74 2184.3,1347.86 2184.97,1347.71 2185.73,1349.68 2186.58,1335.18 2186.75,1331 2186.94,1330.92 2187.16,1328.14 2187.4,1325.21 2187.55,1327.14 2187.71,1328.07 2187.9,1328.16 2188.11,1327.42 2188.34,1327.14 2188.61,1326.31 2188.91,1327.52 2189.24,1319.13 2189.62,1316.52 2190.04,1317.08 2190.52,1320.17 2191.05,1315.28 2191.66,1315.66 2192.33,1323.17 2193.1,1323.92 2193.96,1320.79 2194.92,1317.24 2196.01,1326.34 2196.77,1319.69 2197.62,1326.34 2198.59,1323.32 2199.67,1323.42 2200.89,1316.12 2201.38,1314.92 2201.93,1313.8 2202.55,1319.31 2203.25,1320.25 2204.04,1333.26 2204.92,1335.81 2205.92,1331.52 2207.04,1331.62 2207.83,1327.16 2208.73,1333.14 2209.74,1335.9 2210.88,1343.8 2212.04,1344.98 2213.35,1337.25 2214.82,1340.2 2215.48,1343.67 2216.23,1337.3 2217.07,1338.98 2218.01,1331.75 2219.03,1323.44 2220.17,1328.8 2221.46,1322.73 2222.27,1327.18 2223.18,1334.3 2223.65,1329.66 2224.18,1331.81 2224.78,1323.63 2225.45,1323.77 2226.2,1327.25 2227.05,1330.13 2228,1322.73 2229.07,1334.03 2230,1338.53 2231.05,1333.06 2232.24,1328.58 2232.76,1330.52 2233.34,1330.36 2233.74,1326.65 2234.19,1323.51 2234.7,1329.47 2235.27,1328.13 2235.91,1329.47 2236.63,1336.19 2237.44,1340.96 2238.36,1333.86 2239.09,1344.07 2239.92,1339.56 2240.45,1341.35 2240.99,1334.45 2241.61,1340.59 2242.3,1338.08 2243.08,1338.25 2243.96,1339.9 2244.94,1346.89 2245.85,1341.41 2246.88,1339.34 2247.08,1341.94 2247.31,1342.5 2247.57,1342.52 2247.86,1342.63 2248.19,1345.17 2248.56,1347.61 2248.97,1344.45 2249.44,1347.48 2249.96,1342.77 2250.56,1345.7 2250.88,1346.48 2251.25,1344.61 2251.66,1348.09 2251.81,1348.15 2251.98,1347.5 2252.17,1351.49 2252.39,1350.37 2252.63,1349.6 2252.91,1343.63 2253.22,1342.6 2253.56,1338.38 2253.95,1337.2 2254.39,1335.76 2254.77,1338.43 2255.2,1334.95 2255.68,1335.06 2256.22,1332.81 2256.83,1328.84 2257.51,1325.28 2258.28,1326.7 2258.78,1325.17 2259.33,1326.38 2259.96,1327.02 2260.67,1319.68 2260.87,1318.77 2261.1,1320.24 2261.36,1319.75 2261.65,1318.08 2261.97,1320.75 2262.34,1323.58 2262.75,1322.71 2263.22,1329.18 2263.74,1332.43 2264.33,1329.54 2264.99,1326.08 2265.73,1324.63 2266.57,1322.07 2267.51,1321.31 2268.57,1316.45 2269.76,1321.3 2271.1,1326.68 2271.9,1319.41 2272.81,1309.08 2273.83,1306.13 2274.98,1293.78 2276.28,1280.49 2277.28,1275.61 2278.41,1278.36 2279.31,1271.69 2280.31,1258.14 2281.44,1249.99 2282.71,1260.14 2284.15,1262.11 2285.76,1280.17 2286.3,1264.66 2286.92,1266.78 2287.61,1274.6 2288.39,1278.17 2289.06,1278.74 2289.81,1286.03 2290.67,1284.12 2291.62,1281.19 2292.7,1264.79 2293.91,1262.85 2295.27,1276.4 2296.31,1273.29 2296.87,1272.35 2297.5,1273.46 2298.21,1282.96 2299,1296.85 2299.31,1300.24 2299.66,1300.41 2299.87,1298.19 2300.11,1294.08 2300.38,1296.98 2300.68,1294.38 2300.93,1291.39 2301.22,1284.02 2301.54,1282.59 2301.91,1286.27 2302.31,1275.02 2302.49,1262.8 2302.68,1262.93 2302.9,1268.25 2303.15,1267.81 2303.43,1265.75 2303.74,1265.97 2304.1,1259.16 2304.5,1258.65 2304.94,1255.28 2305.45,1254.93 2306,1253.63 2306.62,1254.71 2307.32,1252.43 2308.11,1255.38 2309,1248.34 2309.99,1249.51 2311.11,1230.71 2312.17,1230.9 2313.36,1232.76 2314.7,1245.7 2316.21,1238.81 2317.9,1247.43 2319.35,1264.81 2320.98,1245.75 2322.13,1257.17 2323.42,1257.23 2324.87,1267.43 2326.51,1247.52 2328.17,1253.05 2329.98,1245.53 2332.03,1264.02 2334.32,1273.12 2336.51,1274.29 2338.66,1278.92 2340.37,1303.63 2342.3,1301.54 2344.47,1303.42 2346.92,1286.14 2349.66,1260.95 2352.76,1290.11 "/>
<polyline clip-path="url(#clip722)" style="stroke:#e26f46; stroke-linecap:round; stroke-linejoin:round; stroke-width:8; stroke-opacity:1; fill:none" points="138.959,1157.64 138.96,1157.66 138.96,1157.79 138.96,1157.86 138.961,1157.93 138.961,1158.06 138.962,1158.11 138.962,1157.88 138.963,1157.82 138.964,1157.77 138.964,1157.83 138.965,1157.84 138.966,1157.88 138.967,1158.14 138.969,1158.1 138.97,1158.03 138.972,1158.17 138.973,1158.23 138.975,1158.07 138.978,1158.26 138.98,1157.73 138.983,1157.43 138.986,1156.84 138.99,1157.02 138.994,1157 138.999,1157.52 139.004,1157.25 139.01,1157.41 139.016,1156.87 139.024,1157.6 139.032,1156.72 139.041,1156.39 139.052,1155.67 139.064,1155.84 139.077,1156.19 139.092,1156.11 139.109,1156.11 139.128,1156.66 139.149,1156.34 139.173,1156.58 139.2,1156.83 139.231,1156.79 139.265,1158.44 139.303,1157.38 139.347,1156.95 139.395,1156.06 139.45,1155.83 139.512,1157.29 139.581,1158.58 139.659,1160.03 139.747,1161.34 139.845,1162.85 139.956,1162.36 140.081,1159.24 140.222,1151.23 140.38,1151.36 140.558,1154.54 140.758,1150.1 140.983,1146.66 141.236,1145.11 141.521,1147.07 141.841,1146.58 142.202,1145.35 142.607,1144.94 143.063,1143.51 143.577,1138.01 144.154,1143.28 144.804,1147.07 145.535,1151.74 146.357,1152.26 147.282,1161.36 148.322,1151.6 149.493,1149.34 150.81,1141.4 152.291,1151.4 153.958,1149.13 155.833,1137.22 157.943,1144.9 160.316,1121.36 161.86,1108.15 163.598,1099.49 165.553,1106.56 167.751,1099.38 170.225,1092.69 173.008,1093.34 176.139,1075.7 179.662,1095.45 183.624,1083.35 188.082,1064.1 193.098,1052.7 198.74,1045.56 205.087,1058.16 212.228,1060.1 214.692,1067.25 217.464,1073.63 220.583,1074.16 224.092,1083.01 228.039,1067.73 232.48,1090.45 236.307,1102.96 240.611,1117.2 245.454,1107.74 250.902,1104.74 257.031,1124.07 263.926,1144.82 271.683,1131.41 280.41,1121.93 290.227,1100.61 295.536,1083.55 301.507,1070.66 308.226,1068.4 315.784,1067.77 324.286,1097.05 333.454,1069.98 343.768,1083.26 355.371,1096.33 361.676,1070.41 368.769,1104.49 374.803,1093.29 381.591,1094.69 389.228,1092.4 397.82,1117.01 403.07,1111.27 408.976,1103.12 415.483,1102.36 422.802,1098.98 428.818,1092.57 435.586,1099 443.2,1133.48 445.224,1136.5 447.5,1142.09 450.061,1143 452.942,1140.89 456.183,1142.39 459.829,1138.43 463.931,1140.57 468.546,1143.06 469.468,1137.21 470.507,1144.79 471.675,1146.02 472.989,1140.82 474.467,1142.02 476.131,1148.91 478.002,1135.9 479.458,1123.99 481.097,1119.85 482.94,1127.56 485.014,1126.33 487.347,1102.87 488.663,1106.45 490.144,1110.03 491.81,1119.1 493.685,1113.7 495.794,1120.99 498.166,1109.89 500.835,1110.53 503.4,1108.92 506.286,1112.54 509.532,1113.9 513.184,1107.32 517.293,1111.6 519.545,1102.87 522.078,1094.5 524.928,1102.36 528.135,1083.71 531.742,1062.63 535.8,1078.07 540.365,1042.51 542.66,1048.72 545.242,1072.5 548.146,1077.02 551.413,1063.85 555.089,1051.86 559.224,1049.37 563.876,1040.88 569.11,1048.1 574.998,1035.39 577.393,1022.2 580.087,1038.45 583.119,1038.91 586.529,1046.54 590.366,1061.08 594.682,1063.92 599.537,1050.13 605,1072.36 611.145,1051.84 618.059,1039.3 625.12,1044.52 632.005,1055.05 639.752,1045.71 648.466,1034.82 656.203,989.142 660.333,984.947 664.979,984.494 670.206,970.692 676.086,964.616 682.701,936.496 690.143,945.629 694.421,950.889 699.233,968.644 704.646,985.779 710.736,1014.76 717.588,1013.63 725.233,1053.77 730.341,1038.11 736.087,1056.35 742.552,1039.74 746.509,1060.78 750.96,1082.68 755.968,1082.34 761.601,1027.07 763.076,1031.29 764.736,1022.83 766.602,1013.56 768.702,1016.98 771.065,1018.48 773.723,1044.75 776.713,1060.07 780.077,1033.1 783.862,1029.77 788.119,1034.86 792.909,1034.5 798.297,1043.46 804.359,1034.7 811.179,1038.88 814.812,1036.42 818.899,1048.9 823.496,1054.24 828.669,1049.13 834.488,1072.1 837.859,1049.88 841.652,1066.33 845.919,1053.63 850.72,1058.43 856.121,1070.38 862.196,1078.54 869.031,1060.34 876.721,1036.32 883.01,1046.99 890.086,1037.49 898.047,1037.92 907.002,1030.01 917.077,987.16 924.118,989.398 932.04,984.289 936.412,980.285 941.332,916.213 942.362,924.311 943.521,936.58 944.825,940.664 945.589,949.65 946.449,957.481 947.417,965.844 948.505,968.567 949.251,961.638 950.089,983.13 951.033,999.65 952.094,994.461 953.288,987.016 954.631,997.475 955.682,988.468 956.865,993.129 958.195,982.926 959.691,989.605 961.375,1002.71 963.268,990.82 965.399,994.734 967.796,999.978 970.492,1010.89 971.032,1015.98 971.638,1006.13 972.321,1013.69 973.089,994.815 973.953,992.14 974.924,986.336 976.018,969.596 977.153,960.638 978.43,950.068 979.867,952.281 981.483,957.706 982.733,941.905 984.14,938.405 985.723,909.525 987.503,900.107 989.506,886.498 991.759,887.461 994.294,879.426 997.145,878.757 1000.35,862.776 1003.96,870.612 1008.02,890.529 1012.59,881.611 1017.73,863.978 1023.51,909.29 1025.09,925.503 1026.87,943.816 1028.87,919.2 1031.12,926.371 1033.65,903.013 1035.83,910.692 1038.29,915.835 1041.06,903.993 1044.17,902.038 1047.67,913.461 1051.61,939.101 1053.62,934.819 1055.87,939.793 1058.41,938.239 1061.26,946.98 1064.47,957.008 1067.66,958.414 1071.25,961.384 1075.28,982.483 1079.82,968.052 1084.93,952.98 1090.67,941.402 1092.11,913.99 1093.73,924.193 1095.55,939.542 1097.59,939.851 1099.89,948.11 1102.48,934.573 1105.4,922.875 1108.67,919.542 1112.36,914.019 1116.51,875.344 1120.07,872.784 1124.08,855.77 1126.82,876.866 1129.9,873.357 1133.36,865.032 1137.26,899.895 1141.65,925.786 1146.58,951.442 1149.37,949.824 1152.5,936.578 1156.03,922.626 1159.99,885.416 1164.35,835.736 1166.92,849.262 1168.51,850.362 1170.28,837.98 1172.28,825.572 1174.54,852.037 1176.92,851.923 1179.6,847.801 1182.61,829.658 1186.01,840.218 1188.98,806.036 1192.33,771.264 1196.09,789.77 1200.33,814.304 1205.09,817.873 1210.45,799.258 1216.48,817.173 1223.27,830.161 1229.04,826.296 1235.53,806.965 1242.83,799.235 1251.04,806.432 1260.29,792.779 1270.68,726.496 1281.55,724.433 1290.77,699.934 1301.14,639.684 1312.81,579.932 1325.94,534.045 1336.6,432.481 1344.08,473.332 1352.48,459.842 1361.95,422.687 1371.07,426.877 1381.33,391.176 1386.53,413.678 1392.39,421.842 1394.63,396.843 1397.14,395.341 1399.97,421.339 1403.16,430.127 1404.96,438.407 1406.98,405.392 1409.25,399.298 1411.81,379.44 1414.69,371.735 1417.93,341.765 1420.28,323.238 1422.92,311.592 1424.02,337.801 1425.25,321.191 1426.64,320.567 1428.21,326.536 1429.96,323.213 1431.94,340.154 1434.17,341.903 1436.67,326.077 1439.49,330.223 1440.32,325.915 1441.25,333.103 1442.3,348.897 1443.48,362.383 1444.8,375.236 1446.3,384.174 1447.74,392.027 1449.36,352.421 1451.19,367.189 1452.55,392.552 1454.09,402.416 1455.82,404.553 1457.76,401.688 1459.95,423.594 1462.41,434.605 1465.18,409.136 1468.29,406.447 1471.8,354.213 1473.62,352.991 1475.66,374.518 1477.96,382.028 1480.55,371.14 1483.46,377.612 1486.73,384.797 1490.42,367.509 1493.82,383.279 1497.64,434.873 1499.39,422.747 1501.37,425.212 1503.58,387.665 1505.64,345.969 1506.29,337.728 1507.02,345.595 1507.64,344.055 1508.33,349.255 1509.11,362.058 1509.98,360.706 1510.96,365.001 1512.07,371.507 1513.32,374.811 1514.72,363.033 1516.29,354.39 1518.07,352.597 1520.06,335.169 1522.3,352.091 1524.76,376.293 1527.52,345.399 1530.63,368.096 1533.14,329.849 1535.95,293.375 1539.06,300.951 1542.57,304.742 1545.81,261.361 1547.09,256.616 1548.54,248.685 1550.17,235.67 1552,226.563 1554.07,228.838 1555.76,224.118 1556.57,220.521 1557.47,211.732 1558.49,210.904 1559.63,201.606 1560.91,191.102 1562.36,209.407 1563.99,208.149 1565.82,197.699 1567.88,207.204 1570.19,201.652 1572.8,185.315 1575.73,191.757 1576.43,172.647 1577.21,172.271 1578.09,164.232 1579.07,160.871 1580.19,174.562 1580.91,168.011 1581.73,174.337 1582.65,186.051 1583.1,188.137 1583.6,186.239 1584.17,187.69 1584.81,192.049 1585.53,180.635 1586.34,182.899 1587.25,175.407 1588.28,167.946 1588.88,159.988 1589.56,157.047 1590.32,163.41 1590.75,167.205 1591.24,165.895 1591.78,160.541 1592.39,157.949 1593.08,162.305 1593.86,159.361 1594.73,155.238 1595.71,159.655 1596.54,174.455 1597.48,178.542 1598.54,180.008 1599.73,169.941 1600.45,175.279 1601.25,168.365 1602.15,168.072 1603.17,168.501 1604.31,161.055 1605.6,158.469 1607.05,165.069 1608.67,161.731 1610.51,157.151 1612.57,171.602 1613.58,173.681 1614.71,176.458 1615.99,163.681 1617,175.037 1618.14,173.517 1619.35,163.569 1620.7,172.74 1622.22,170.849 1623.93,178.462 1625.85,166.38 1628.02,180.419 1630.45,175.048 1631.71,182.754 1633.12,195.585 1634.71,194.019 1636.5,195.631 1638.51,190.083 1640.77,210.47 1642.45,220.772 1644.35,210.224 1646.48,214.729 1647.96,211.494 1649.11,227.775 1649.72,223.791 1650.4,207.167 1651.16,210.483 1652.02,220.374 1652.99,226.682 1654.08,235.298 1655.31,235.351 1656.69,245.212 1657.48,240.119 1658.37,246.584 1659.37,258.626 1660.49,256.246 1661.76,249.369 1663.18,248.587 1664.78,251.669 1665.76,234.075 1666.86,222.154 1668.1,213.32 1669.5,219.571 1670.61,215.748 1671.87,206.971 1673.29,194.869 1674.22,187.296 1675.28,189.041 1676.47,178.554 1677.8,190.511 1679.3,195.733 1680.99,192.978 1682.37,188.772 1683.23,186.27 1684.21,188.977 1685.3,179.076 1686.49,185.261 1687.81,187.741 1689.07,194.809 1690.48,201.995 1692.07,188.587 1693.85,210.856 1694.76,212.125 1695.78,218.105 1696.92,218.626 1698.22,212.956 1699.67,209.042 1700.2,211.463 1700.81,213.892 1701.49,220.983 1702.09,213.371 1702.77,203.705 1703.53,208.485 1703.93,196.17 1704.38,188.945 1704.89,198.45 1705.46,192.521 1705.79,196.226 1706.15,197.443 1706.57,198.857 1707.03,201.339 1707.55,197.57 1708.14,190.503 1708.8,201.295 1709.55,209.768 1709.96,215.475 1710.43,216.694 1710.95,215.849 1711.54,224.001 1711.76,229.94 1712.02,225.246 1712.3,220.99 1712.62,206.366 1712.98,208.943 1713.39,202.48 1713.85,204.282 1714.36,200.108 1714.94,201.472 1715.59,188.759 1716.28,193.085 1717.06,191.418 1717.94,178.918 1718.66,171.582 1719.47,174.606 1719.94,179.974 1720.47,186.951 1721.06,179.65 1721.72,182.636 1722.31,186.724 1722.96,190.311 1723.7,192.376 1724.53,186.182 1725.47,193.789 1726.52,204.993 1727.01,211.953 1727.56,212.779 1728.18,211.859 1728.88,213.116 1729.67,208.982 1730.55,189.735 1731.36,189.058 1732.28,188.204 1733.31,198.063 1734.28,190.707 1735.37,191.072 1736.6,193.528 1737.99,202.472 1739.54,204.769 1741.29,202.697 1743.14,202.49 1745.18,199.533 1747.47,212.666 1749.26,216.729 1751.26,207.142 1753.52,225.13 1754.9,220.853 1756.17,219.042 1757.6,213.844 1758.91,222.215 1760.3,214.049 1761.12,222.181 1761.48,225.769 1761.87,231.298 1762.32,231.048 1762.82,229.216 1763.39,239.283 1764.02,238.597 1764.74,241.964 1765.54,242.998 1766.45,244.893 1767.47,270.896 1768.38,277.559 1769.41,284.293 1770.57,293.644 1771.87,299.423 1773.33,313.605 1774.97,313.57 1776.83,316.367 1778.91,328.408 1779.99,335.083 1781.19,348.407 1782.14,359.792 1783.21,359.337 1784.42,361.203 1785.77,368.363 1787.29,365.418 1789,342.191 1790.93,333.607 1793.09,329.976 1795.53,306.143 1798.27,271.419 1800.41,262.619 1802.82,285.26 1805.41,289.794 1808.33,275.343 1811.61,300.744 1814.39,267.081 1817.52,263.485 1821.04,245.027 1823.61,244.489 1826.49,242.235 1829.53,266.594 1832.96,259.612 1836.81,259.088 1841.15,263.833 1845.86,244.072 1851.16,267.468 1853.13,253.266 1855.35,244.166 1857.85,236.196 1859.48,213.369 1861.32,215.436 1863.38,229.314 1864.46,203.11 1865.67,178.579 1867.04,162.141 1868.58,154.542 1870.3,137 1871.76,142.643 1873.41,148.759 1874.61,148.474 1875.97,153.011 1877.49,158.388 1878.26,164.636 1879.12,166.07 1880.09,170.741 1881.18,165.329 1882.4,151.218 1883.78,162.84 1885.33,150.098 1886.56,159.196 1887.95,154.583 1888.78,154.452 1889.71,152.448 1890.77,159.08 1891.38,160.064 1892.07,160.958 1892.85,164.769 1893.73,172.684 1894.71,186.402 1895.5,178.811 1896.4,188.984 1897.4,198.443 1898.53,206.912 1899.8,220.192 1901.22,230.501 1902.83,235.529 1904.64,224.13 1906.67,199.88 1908.96,199.666 1910.84,209.639 1912.96,225.335 1915.35,223.924 1918.03,224.435 1921.05,198.285 1923.25,185.191 1925.72,189.227 1928.5,156.113 1929.81,149.368 1931.29,145.74 1932.95,143.357 1933.99,148.601 1934.82,171.981 1935.58,167.409 1936.43,170.583 1936.79,178.042 1937.2,172.828 1937.67,175.947 1938.19,187.739 1938.77,182.616 1939.11,182.287 1939.48,196.641 1939.68,202.512 1939.91,191.739 1940.16,190.7 1940.44,192.403 1940.76,190.065 1941.12,194.652 1941.53,199.132 1941.98,204.437 1942.5,196.539 1943.07,208.017 1943.72,206.836 1944.45,218.04 1945.27,218.006 1946.19,227.164 1947.23,212.856 1948.4,203.896 1949.71,197.187 1951.19,211.297 1952.86,221.73 1954.73,209.229 1955.96,201.297 1956.71,193.421 1957.55,206.644 1958.49,206.427 1959.56,207.292 1960.21,203.676 1960.94,194.717 1961.77,201.139 1962.39,197.921 1963.09,202.46 1963.89,198.845 1964.77,193.23 1965.78,199.524 1966.9,186.012 1968.17,189.601 1968.53,192.594 1968.94,185.026 1969.39,187.018 1969.91,193.996 1970.19,194.153 1970.51,194.674 1970.87,202.065 1971.27,202.108 1971.72,206.811 1972.24,216.533 1972.81,199.341 1973.45,189.215 1974.18,184.904 1975,179.963 1975.92,177.661 1976.95,181.71 1978.12,183.167 1979.09,183.979 1980.18,179.223 1981.4,183.787 1982.78,185.107 1984.34,184.147 1986.09,182.776 1988.05,170.826 1989.79,181.122 1991.75,173.82 1993.95,173.632 1996.27,181.488 1998.87,188.434 2000.5,189.86 2002.32,188.077 2003.48,191.237 2004.42,193.02 2005.47,189.131 2006.66,187.13 2008,200.334 2009.5,191.296 2011.19,185.606 2013.09,175.612 2013.87,168.979 2014.75,160.401 2014.97,160.415 2015.21,153.936 2015.49,149.524 2015.8,146.312 2016.15,142.729 2016.54,145.859 2016.98,149.92 2017.39,146.712 2017.85,142.924 2018.37,145.972 2018.96,142.297 2019.62,145.75 2020.04,147.306 2020.52,142.945 2021.05,142.853 2021.65,140.397 2022.33,137.693 2022.84,139.65 2023.43,144.649 2024.08,140.888 2024.82,140.89 2025.65,136.589 2026.58,139.245 2027.63,136.041 2028.41,139.152 2029.29,148.85 2030.28,158.794 2031.39,155.415 2031.79,154.18 2032.23,152.39 2032.73,144.824 2033.02,147.098 2033.34,150.013 2033.71,153.266 2034.03,160.032 2034.39,159.346 2034.8,160.572 2035.26,161.94 2035.78,159.842 2036.36,156.809 2037.01,162.923 2037.75,168.995 2038.57,177.197 2039.5,181.092 2040.55,182.347 2041.73,184.988 2043.05,190.402 2044.54,188.833 2045.47,187.789 2046.51,199.515 2047.69,197.742 2049.01,186.648 2049.55,188.189 2050.17,185.721 2050.85,189.607 2051.63,183.824 2052.02,188.517 2052.47,186.253 2052.97,180.367 2053.53,178.304 2054.06,180.121 2054.65,187.661 2055.31,190.241 2056.06,204.058 2056.57,199.077 2057.15,194.48 2057.8,197.289 2058.53,198.971 2059.35,197.159 2060.28,190.776 2060.71,192.676 2061.2,184.949 2061.72,185.413 2062.29,185.519 2062.94,183.97 2063.67,177.283 2064.49,163.245 2065.34,162.679 2066.3,158.444 2067.38,150.293 2068.59,154.32 2069.95,160.524 2071.48,157.024 2073.2,152.051 2074.15,150.925 2075.22,140.679 2075.88,132.718 2076.62,137.716 2076.88,143.277 2077.16,147.539 2077.49,153.395 2077.63,154.051 2077.78,149.088 2077.96,146.505 2078.16,148.357 2078.38,151.251 2078.63,148.42 2078.92,149.71 2079.23,147.964 2079.59,150.215 2079.99,157.535 2080.33,153.282 2080.72,153.964 2081.15,156.175 2081.63,154.496 2082.18,149.727 2082.79,150.317 2083.48,144.312 2084.25,147.564 2085.12,134.325 2085.56,135.7 2086.05,138.664 2086.59,138.32 2087.21,151.237 2087.66,147.926 2088.16,140.508 2088.72,139.499 2089.35,139.454 2090.07,134.184 2090.87,139.482 2091.77,140.872 2092.44,150.556 2093.2,148.384 2094.05,145.694 2095,147.074 2096.08,146.832 2097.29,143.629 2098.65,144.733 2100.18,130.947 2101.04,127.144 2102,132.011 2103.09,136.789 2104.32,141.538 2104.63,142.365 2104.98,142.555 2105.38,134.262 2105.51,129.858 2105.66,129.183 2105.83,132.236 2106.02,130.377 2106.09,130.639 2106.17,132.576 2106.25,133.209 2106.35,134.33 2106.46,136.075 2106.58,136.328 2106.72,134.808 2106.87,137.135 2107.05,139.027 2107.24,137.858 2107.46,140.907 2107.71,139.537 2107.99,136.778 2108.31,132.641 2108.66,125.545 2108.99,129.321 2109.35,129.371 2109.77,133.96 2110.23,137.192 2110.75,141.435 2111.34,147.375 2112,152.955 2112.74,156.059 2113.58,146.484 2114.27,147.042 2115.05,146.389 2115.89,141.183 2116.83,146.122 2117.89,137.731 2119.08,137.558 2120.42,126.396 2120.77,122.71 2121.17,119.057 2121.61,114.593 2122.03,116.099 2122.5,119.934 2123.03,117.213 2123.63,113.843 2124.3,112.957 2125.06,121.906 2125.65,129.249 2126.33,121.768 2127.08,117.811 2127.93,117.874 2128.77,120.31 2129.71,124.7 2130.21,126.77 2130.76,133.135 2131.39,136.142 2132.1,141.91 2132.32,141.462 2132.58,140.59 2132.86,133.999 2133.18,136.018 2133.55,136.929 2133.95,139.775 2134.41,136.616 2134.93,137.983 2135.51,137.109 2136.16,134.696 2136.74,126.799 2137.4,122.461 2138.14,116.198 2138.97,115.23 2139.51,114.958 2140.11,111.699 2140.8,103.742 2141.36,112.688 2141.83,106.345 2142.37,101.855 2142.97,102.992 2143.65,112.614 2144.41,103.206 2144.72,106.24 2145.07,102.206 2145.47,94.9351 2145.67,96.1401 2145.9,91.4928 2146.17,86.1857 2146.46,90.0706 2146.79,95.624 2147.16,89.3982 2147.58,90.4535 2148.05,94.7899 2148.58,94.9762 2149.17,97.1663 2149.84,105.297 2150.06,105.648 2150.3,106.223 2150.57,106.24 2150.83,110.287 2151.11,112.479 2151.44,116.521 2151.76,103.366 2152.13,100.25 2152.54,98.5378 2152.79,102.103 2153.07,106.071 2153.39,111.212 2153.75,112.103 2154.15,115.31 2154.6,108.12 2155.11,107.659 2155.64,114.988 2156.23,114.223 2156.9,115.254 2157.65,121.081 2158.5,121.296 2159.45,117.695 2159.88,117.342 2160.36,115.628 2160.91,109.36 2161.52,105.908 2162.21,110.543 2162.98,113.068 2163.85,119.439 2164.83,111.543 2165.03,107.832 2165.25,108.318 2165.5,111.19 2165.78,105.725 2166.09,109.581 2166.45,112.345 2166.75,110.136 2167.09,111.788 2167.48,114.039 2167.91,119.986 2168.4,116.12 2168.49,115.024 2168.6,115.11 2168.73,113.303 2168.87,111.117 2169.02,112.085 2169.2,109.546 2169.39,112.524 2169.43,113.629 2169.48,114.286 2169.53,113.921 2169.58,114.196 2169.65,111.69 2169.72,112.152 2169.8,110.041 2169.89,111.427 2169.99,110.816 2170.1,112.428 2170.23,111.824 2170.38,113.581 2170.54,110.266 2170.72,111.196 2170.93,110.519 2171.16,104.171 2171.42,99.3258 2171.71,97.9786 2172.04,99.4848 2172.41,98.2296 2172.83,102.758 2173.29,98.4242 2173.66,102.391 2174.07,103.274 2174.53,99.2055 2175.04,105.051 2175.62,104.447 2176.28,106.605 2177.01,105.419 2177.35,102.685 2177.72,110.3 2178.15,114.062 2178.5,109.946 2178.89,113.717 2179.12,120.252 2179.38,121.283 2179.66,117.221 2179.99,117.544 2180.35,113.812 2180.76,115.529 2181.22,110.977 2181.74,102.042 2182.32,91.3651 2182.97,93.6233 2183.7,94.2261 2184.3,93.4348 2184.97,95.6841 2185.73,92.053 2186.58,103.427 2186.75,107.608 2186.94,108.68 2187.16,112.999 2187.4,114.325 2187.55,110.684 2187.71,108.768 2187.9,107.921 2188.11,108.579 2188.34,109.208 2188.61,110.006 2188.91,109.22 2189.24,119.644 2189.62,123.214 2190.04,121.931 2190.52,117.382 2191.05,120.478 2191.66,120.721 2192.33,112.07 2193.1,109.555 2193.96,112.914 2194.92,117.346 2196.01,105.195 2196.77,114.697 2197.62,109.103 2198.59,113.581 2199.67,113.637 2200.89,128.607 2201.38,129.793 2201.93,132.759 2202.55,130.998 2203.25,129.533 2204.04,114.627 2204.92,111.943 2205.92,116.521 2207.04,116.204 2207.83,121.804 2208.73,116.028 2209.74,114.92 2210.88,104.862 2212.04,101.443 2213.35,107.154 2214.82,109.665 2215.48,110.592 2216.23,118.65 2217.07,115.036 2218.01,126.003 2219.03,131.776 2220.17,128.522 2221.46,139.745 2222.27,135.15 2223.18,127.593 2223.65,131.457 2224.18,130.575 2224.78,137.881 2225.45,136.869 2226.2,131.987 2227.05,131.098 2228,138.694 2229.07,128.388 2230,125.809 2231.05,127.785 2232.24,131.235 2232.76,132.31 2233.34,137.377 2233.74,142.325 2234.19,146.311 2234.7,140.497 2235.27,140.012 2235.91,139.262 2236.63,132.138 2237.44,126.261 2238.36,132.769 2239.09,123.349 2239.92,134.088 2240.45,135.036 2240.99,142.446 2241.61,135.057 2242.3,136.718 2243.08,136.159 2243.96,131.434 2244.94,122.512 2245.85,125.597 2246.88,127.722 2247.08,125.63 2247.31,124.688 2247.57,125.14 2247.86,127.57 2248.19,124.186 2248.56,121.365 2248.97,124.327 2249.44,120.495 2249.96,124.098 2250.56,121.672 2250.88,120.099 2251.25,120.905 2251.66,113.684 2251.81,113.021 2251.98,114.865 2252.17,111.788 2252.39,112.229 2252.63,112.683 2252.91,119.81 2253.22,120.478 2253.56,124.875 2253.95,128.224 2254.39,126.584 2254.77,123.283 2255.2,125.163 2255.68,123.665 2256.22,125.326 2256.83,132.293 2257.51,134.492 2258.28,132.274 2258.78,131.507 2259.33,130.395 2259.96,130.911 2260.67,137.814 2260.87,138.411 2261.1,137.417 2261.36,136.392 2261.65,136.367 2261.97,133.206 2262.34,130.685 2262.75,131.853 2263.22,123.486 2263.74,121.762 2264.33,124.806 2264.99,128.734 2265.73,129.855 2266.57,132.635 2267.51,137.26 2268.57,145.3 2269.76,140.724 2271.1,135.293 2271.9,138.682 2272.81,148.311 2273.83,151.393 2274.98,163.648 2276.28,172.368 2277.28,177.552 2278.41,175.98 2279.31,183.263 2280.31,200.43 2281.44,205.304 2282.71,192.814 2284.15,196.033 2285.76,185.359 2286.3,203.233 2286.92,202.567 2287.61,196.052 2288.39,188.323 2289.06,188.626 2289.81,180.493 2290.67,179.579 2291.62,179.831 2292.7,197.929 2293.91,198.771 2295.27,186.117 2296.31,184.223 2296.87,185.791 2297.5,182.334 2298.21,173.708 2299,158.949 2299.31,155.83 2299.66,153.265 2299.87,155.798 2300.11,159.833 2300.38,157.949 2300.68,163.882 2300.93,167.258 2301.22,173.119 2301.54,175.666 2301.91,172.035 2302.31,182.278 2302.49,196.547 2302.68,195.65 2302.9,190.211 2303.15,190.695 2303.43,191.078 2303.74,189.703 2304.1,197.858 2304.5,200.074 2304.94,205.011 2305.45,202.92 2306,204.183 2306.62,205.135 2307.32,208.461 2308.11,202.828 2309,208.866 2309.99,206.979 2311.11,225.102 2312.17,223.999 2313.36,220.521 2314.7,204.304 2316.21,214.802 2317.9,209.048 2319.35,193.202 2320.98,209.939 2322.13,198.828 2323.42,197.35 2324.87,188.526 2326.51,214.911 2328.17,214.786 2329.98,220.987 2332.03,205.957 2334.32,198.904 2336.51,204.978 2338.66,191.857 2340.37,160.682 2342.3,167.997 2344.47,169.382 2346.92,185.787 2349.66,207.546 2352.76,180.556 "/>
<path clip-path="url(#clip720)" d="M212.753 248.629 L463.715 248.629 L463.715 93.1086 L212.753 93.1086  Z" fill="#ffffff" fill-rule="evenodd" fill-opacity="1"/>
<polyline clip-path="url(#clip720)" style="stroke:#000000; stroke-linecap:round; stroke-linejoin:round; stroke-width:4; stroke-opacity:1; fill:none" points="212.753,248.629 463.715,248.629 463.715,93.1086 212.753,93.1086 212.753,248.629 "/>
<polyline clip-path="url(#clip720)" style="stroke:#009af9; stroke-linecap:round; stroke-linejoin:round; stroke-width:8; stroke-opacity:1; fill:none" points="237.35,144.949 384.937,144.949 "/>
<path clip-path="url(#clip720)" d="M409.535 127.669 L414.558 127.669 L424.141 141.882 L433.655 127.669 L438.678 127.669 L426.456 145.77 L426.456 162.229 L421.757 162.229 L421.757 145.77 L409.535 127.669 Z" fill="#000000" fill-rule="nonzero" fill-opacity="1" /><polyline clip-path="url(#clip720)" style="stroke:#e26f46; stroke-linecap:round; stroke-linejoin:round; stroke-width:8; stroke-opacity:1; fill:none" points="237.35,196.789 384.937,196.789 "/>
<path clip-path="url(#clip720)" d="M411.109 179.509 L416.132 179.509 L424.72 192.356 L433.354 179.509 L438.377 179.509 L427.266 196.106 L439.118 214.069 L434.095 214.069 L424.372 199.37 L414.581 214.069 L409.535 214.069 L421.872 195.62 L411.109 179.509 Z" fill="#000000" fill-rule="nonzero" fill-opacity="1" /></svg>
