<?xml version="1.0" encoding="utf-8"?>
<svg xmlns="http://www.w3.org/2000/svg" xmlns:xlink="http://www.w3.org/1999/xlink" width="600" height="400" viewBox="0 0 2400 1600">
<defs>
  <clipPath id="clip780">
    <rect x="0" y="0" width="2400" height="1600"/>
  </clipPath>
</defs>
<path clip-path="url(#clip780)" d="M0 1600 L2400 1600 L2400 0 L0 0  Z" fill="#ffffff" fill-rule="evenodd" fill-opacity="1"/>
<defs>
  <clipPath id="clip781">
    <rect x="480" y="0" width="1681" height="1600"/>
  </clipPath>
</defs>
<path clip-path="url(#clip780)" d="M184.191 1423.18 L2352.76 1423.18 L2352.76 47.2441 L184.191 47.2441  Z" fill="#ffffff" fill-rule="evenodd" fill-opacity="1"/>
<defs>
  <clipPath id="clip782">
    <rect x="184" y="47" width="2170" height="1377"/>
  </clipPath>
</defs>
<polyline clip-path="url(#clip782)" style="stroke:#000000; stroke-linecap:round; stroke-linejoin:round; stroke-width:2; stroke-opacity:0.1; fill:none" points="184.191,1423.18 184.191,47.2441 "/>
<polyline clip-path="url(#clip782)" style="stroke:#000000; stroke-linecap:round; stroke-linejoin:round; stroke-width:2; stroke-opacity:0.1; fill:none" points="617.904,1423.18 617.904,47.2441 "/>
<polyline clip-path="url(#clip782)" style="stroke:#000000; stroke-linecap:round; stroke-linejoin:round; stroke-width:2; stroke-opacity:0.1; fill:none" points="1051.62,1423.18 1051.62,47.2441 "/>
<polyline clip-path="url(#clip782)" style="stroke:#000000; stroke-linecap:round; stroke-linejoin:round; stroke-width:2; stroke-opacity:0.1; fill:none" points="1485.33,1423.18 1485.33,47.2441 "/>
<polyline clip-path="url(#clip782)" style="stroke:#000000; stroke-linecap:round; stroke-linejoin:round; stroke-width:2; stroke-opacity:0.1; fill:none" points="1919.04,1423.18 1919.04,47.2441 "/>
<polyline clip-path="url(#clip782)" style="stroke:#000000; stroke-linecap:round; stroke-linejoin:round; stroke-width:2; stroke-opacity:0.1; fill:none" points="2352.76,1423.18 2352.76,47.2441 "/>
<polyline clip-path="url(#clip780)" style="stroke:#000000; stroke-linecap:round; stroke-linejoin:round; stroke-width:4; stroke-opacity:1; fill:none" points="184.191,1423.18 2352.76,1423.18 "/>
<polyline clip-path="url(#clip780)" style="stroke:#000000; stroke-linecap:round; stroke-linejoin:round; stroke-width:4; stroke-opacity:1; fill:none" points="184.191,1423.18 184.191,1404.28 "/>
<polyline clip-path="url(#clip780)" style="stroke:#000000; stroke-linecap:round; stroke-linejoin:round; stroke-width:4; stroke-opacity:1; fill:none" points="617.904,1423.18 617.904,1404.28 "/>
<polyline clip-path="url(#clip780)" style="stroke:#000000; stroke-linecap:round; stroke-linejoin:round; stroke-width:4; stroke-opacity:1; fill:none" points="1051.62,1423.18 1051.62,1404.28 "/>
<polyline clip-path="url(#clip780)" style="stroke:#000000; stroke-linecap:round; stroke-linejoin:round; stroke-width:4; stroke-opacity:1; fill:none" points="1485.33,1423.18 1485.33,1404.28 "/>
<polyline clip-path="url(#clip780)" style="stroke:#000000; stroke-linecap:round; stroke-linejoin:round; stroke-width:4; stroke-opacity:1; fill:none" points="1919.04,1423.18 1919.04,1404.28 "/>
<polyline clip-path="url(#clip780)" style="stroke:#000000; stroke-linecap:round; stroke-linejoin:round; stroke-width:4; stroke-opacity:1; fill:none" points="2352.76,1423.18 2352.76,1404.28 "/>
<path clip-path="url(#clip780)" d="M184.191 1454.1 Q180.58 1454.1 178.751 1457.66 Q176.945 1461.2 176.945 1468.33 Q176.945 1475.44 178.751 1479.01 Q180.58 1482.55 184.191 1482.55 Q187.825 1482.55 189.63 1479.01 Q191.459 1475.44 191.459 1468.33 Q191.459 1461.2 189.63 1457.66 Q187.825 1454.1 184.191 1454.1 M184.191 1450.39 Q190.001 1450.39 193.056 1455 Q196.135 1459.58 196.135 1468.33 Q196.135 1477.06 193.056 1481.67 Q190.001 1486.25 184.191 1486.25 Q178.381 1486.25 175.302 1481.67 Q172.246 1477.06 172.246 1468.33 Q172.246 1459.58 175.302 1455 Q178.381 1450.39 184.191 1450.39 Z" fill="#000000" fill-rule="nonzero" fill-opacity="1" /><path clip-path="url(#clip780)" d="M612.557 1481.64 L628.876 1481.64 L628.876 1485.58 L606.932 1485.58 L606.932 1481.64 Q609.594 1478.89 614.177 1474.26 Q618.783 1469.61 619.964 1468.27 Q622.209 1465.74 623.089 1464.01 Q623.992 1462.25 623.992 1460.56 Q623.992 1457.8 622.047 1456.07 Q620.126 1454.33 617.024 1454.33 Q614.825 1454.33 612.371 1455.09 Q609.941 1455.86 607.163 1457.41 L607.163 1452.69 Q609.987 1451.55 612.441 1450.97 Q614.894 1450.39 616.932 1450.39 Q622.302 1450.39 625.496 1453.08 Q628.691 1455.77 628.691 1460.26 Q628.691 1462.39 627.881 1464.31 Q627.093 1466.2 624.987 1468.8 Q624.408 1469.47 621.306 1472.69 Q618.205 1475.88 612.557 1481.64 Z" fill="#000000" fill-rule="nonzero" fill-opacity="1" /><path clip-path="url(#clip780)" d="M1054.63 1455.09 L1042.82 1473.54 L1054.63 1473.54 L1054.63 1455.09 M1053.4 1451.02 L1059.28 1451.02 L1059.28 1473.54 L1064.21 1473.54 L1064.21 1477.43 L1059.28 1477.43 L1059.28 1485.58 L1054.63 1485.58 L1054.63 1477.43 L1039.02 1477.43 L1039.02 1472.92 L1053.4 1451.02 Z" fill="#000000" fill-rule="nonzero" fill-opacity="1" /><path clip-path="url(#clip780)" d="M1485.73 1466.44 Q1482.59 1466.44 1480.73 1468.59 Q1478.91 1470.74 1478.91 1474.49 Q1478.91 1478.22 1480.73 1480.39 Q1482.59 1482.55 1485.73 1482.55 Q1488.88 1482.55 1490.71 1480.39 Q1492.56 1478.22 1492.56 1474.49 Q1492.56 1470.74 1490.71 1468.59 Q1488.88 1466.44 1485.73 1466.44 M1495.02 1451.78 L1495.02 1456.04 Q1493.26 1455.21 1491.45 1454.77 Q1489.67 1454.33 1487.91 1454.33 Q1483.28 1454.33 1480.83 1457.45 Q1478.4 1460.58 1478.05 1466.9 Q1479.42 1464.89 1481.48 1463.82 Q1483.54 1462.73 1486.01 1462.73 Q1491.22 1462.73 1494.23 1465.9 Q1497.26 1469.05 1497.26 1474.49 Q1497.26 1479.82 1494.11 1483.03 Q1490.97 1486.25 1485.73 1486.25 Q1479.74 1486.25 1476.57 1481.67 Q1473.4 1477.06 1473.4 1468.33 Q1473.4 1460.14 1477.29 1455.28 Q1481.17 1450.39 1487.73 1450.39 Q1489.48 1450.39 1491.27 1450.74 Q1493.07 1451.09 1495.02 1451.78 Z" fill="#000000" fill-rule="nonzero" fill-opacity="1" /><path clip-path="url(#clip780)" d="M1919.04 1469.17 Q1915.71 1469.17 1913.79 1470.95 Q1911.89 1472.73 1911.89 1475.86 Q1911.89 1478.98 1913.79 1480.77 Q1915.71 1482.55 1919.04 1482.55 Q1922.38 1482.55 1924.3 1480.77 Q1926.22 1478.96 1926.22 1475.86 Q1926.22 1472.73 1924.3 1470.95 Q1922.4 1469.17 1919.04 1469.17 M1914.37 1467.18 Q1911.36 1466.44 1909.67 1464.38 Q1908 1462.32 1908 1459.35 Q1908 1455.21 1910.94 1452.8 Q1913.9 1450.39 1919.04 1450.39 Q1924.2 1450.39 1927.14 1452.8 Q1930.08 1455.21 1930.08 1459.35 Q1930.08 1462.32 1928.39 1464.38 Q1926.73 1466.44 1923.74 1467.18 Q1927.12 1467.96 1929 1470.26 Q1930.89 1472.55 1930.89 1475.86 Q1930.89 1480.88 1927.82 1483.57 Q1924.76 1486.25 1919.04 1486.25 Q1913.33 1486.25 1910.25 1483.57 Q1907.19 1480.88 1907.19 1475.86 Q1907.19 1472.55 1909.09 1470.26 Q1910.99 1467.96 1914.37 1467.18 M1912.65 1459.79 Q1912.65 1462.48 1914.32 1463.98 Q1916.01 1465.49 1919.04 1465.49 Q1922.05 1465.49 1923.74 1463.98 Q1925.45 1462.48 1925.45 1459.79 Q1925.45 1457.11 1923.74 1455.6 Q1922.05 1454.1 1919.04 1454.1 Q1916.01 1454.1 1914.32 1455.6 Q1912.65 1457.11 1912.65 1459.79 Z" fill="#000000" fill-rule="nonzero" fill-opacity="1" /><path clip-path="url(#clip780)" d="M2327.44 1481.64 L2335.08 1481.64 L2335.08 1455.28 L2326.77 1456.95 L2326.77 1452.69 L2335.04 1451.02 L2339.71 1451.02 L2339.71 1481.64 L2347.35 1481.64 L2347.35 1485.58 L2327.44 1485.58 L2327.44 1481.64 Z" fill="#000000" fill-rule="nonzero" fill-opacity="1" /><path clip-path="url(#clip780)" d="M2366.8 1454.1 Q2363.18 1454.1 2361.36 1457.66 Q2359.55 1461.2 2359.55 1468.33 Q2359.55 1475.44 2361.36 1479.01 Q2363.18 1482.55 2366.8 1482.55 Q2370.43 1482.55 2372.23 1479.01 Q2374.06 1475.44 2374.06 1468.33 Q2374.06 1461.2 2372.23 1457.66 Q2370.43 1454.1 2366.8 1454.1 M2366.8 1450.39 Q2372.61 1450.39 2375.66 1455 Q2378.74 1459.58 2378.74 1468.33 Q2378.74 1477.06 2375.66 1481.67 Q2372.61 1486.25 2366.8 1486.25 Q2360.99 1486.25 2357.91 1481.67 Q2354.85 1477.06 2354.85 1468.33 Q2354.85 1459.58 2357.91 1455 Q2360.99 1450.39 2366.8 1450.39 Z" fill="#000000" fill-rule="nonzero" fill-opacity="1" /><path clip-path="url(#clip780)" d="M1267.53 1522.27 L1267.53 1532.4 L1279.6 1532.4 L1279.6 1536.95 L1267.53 1536.95 L1267.53 1556.3 Q1267.53 1560.66 1268.71 1561.9 Q1269.92 1563.14 1273.58 1563.14 L1279.6 1563.14 L1279.6 1568.04 L1273.58 1568.04 Q1266.8 1568.04 1264.22 1565.53 Q1261.65 1562.98 1261.65 1556.3 L1261.65 1536.95 L1257.35 1536.95 L1257.35 1532.4 L1261.65 1532.4 L1261.65 1522.27 L1267.53 1522.27 Z" fill="#000000" fill-rule="nonzero" fill-opacity="1" /><polyline clip-path="url(#clip782)" style="stroke:#000000; stroke-linecap:round; stroke-linejoin:round; stroke-width:2; stroke-opacity:0.1; fill:none" points="184.191,1414.85 2352.76,1414.85 "/>
<polyline clip-path="url(#clip782)" style="stroke:#000000; stroke-linecap:round; stroke-linejoin:round; stroke-width:2; stroke-opacity:0.1; fill:none" points="184.191,1113.98 2352.76,1113.98 "/>
<polyline clip-path="url(#clip782)" style="stroke:#000000; stroke-linecap:round; stroke-linejoin:round; stroke-width:2; stroke-opacity:0.1; fill:none" points="184.191,813.118 2352.76,813.118 "/>
<polyline clip-path="url(#clip782)" style="stroke:#000000; stroke-linecap:round; stroke-linejoin:round; stroke-width:2; stroke-opacity:0.1; fill:none" points="184.191,512.254 2352.76,512.254 "/>
<polyline clip-path="url(#clip782)" style="stroke:#000000; stroke-linecap:round; stroke-linejoin:round; stroke-width:2; stroke-opacity:0.1; fill:none" points="184.191,211.39 2352.76,211.39 "/>
<polyline clip-path="url(#clip780)" style="stroke:#000000; stroke-linecap:round; stroke-linejoin:round; stroke-width:4; stroke-opacity:1; fill:none" points="184.191,1423.18 184.191,47.2441 "/>
<polyline clip-path="url(#clip780)" style="stroke:#000000; stroke-linecap:round; stroke-linejoin:round; stroke-width:4; stroke-opacity:1; fill:none" points="184.191,1414.85 203.088,1414.85 "/>
<polyline clip-path="url(#clip780)" style="stroke:#000000; stroke-linecap:round; stroke-linejoin:round; stroke-width:4; stroke-opacity:1; fill:none" points="184.191,1113.98 203.088,1113.98 "/>
<polyline clip-path="url(#clip780)" style="stroke:#000000; stroke-linecap:round; stroke-linejoin:round; stroke-width:4; stroke-opacity:1; fill:none" points="184.191,813.118 203.088,813.118 "/>
<polyline clip-path="url(#clip780)" style="stroke:#000000; stroke-linecap:round; stroke-linejoin:round; stroke-width:4; stroke-opacity:1; fill:none" points="184.191,512.254 203.088,512.254 "/>
<polyline clip-path="url(#clip780)" style="stroke:#000000; stroke-linecap:round; stroke-linejoin:round; stroke-width:4; stroke-opacity:1; fill:none" points="184.191,211.39 203.088,211.39 "/>
<path clip-path="url(#clip780)" d="M91.0151 1400.64 Q87.404 1400.64 85.5753 1404.21 Q83.7697 1407.75 83.7697 1414.88 Q83.7697 1421.99 85.5753 1425.55 Q87.404 1429.09 91.0151 1429.09 Q94.6493 1429.09 96.4548 1425.55 Q98.2835 1421.99 98.2835 1414.88 Q98.2835 1407.75 96.4548 1404.21 Q94.6493 1400.64 91.0151 1400.64 M91.0151 1396.94 Q96.8252 1396.94 99.8808 1401.55 Q102.959 1406.13 102.959 1414.88 Q102.959 1423.61 99.8808 1428.21 Q96.8252 1432.8 91.0151 1432.8 Q85.2049 1432.8 82.1262 1428.21 Q79.0707 1423.61 79.0707 1414.88 Q79.0707 1406.13 82.1262 1401.55 Q85.2049 1396.94 91.0151 1396.94 Z" fill="#000000" fill-rule="nonzero" fill-opacity="1" /><path clip-path="url(#clip780)" d="M111.177 1426.25 L116.061 1426.25 L116.061 1432.13 L111.177 1432.13 L111.177 1426.25 Z" fill="#000000" fill-rule="nonzero" fill-opacity="1" /><path clip-path="url(#clip780)" d="M136.246 1400.64 Q132.635 1400.64 130.807 1404.21 Q129.001 1407.75 129.001 1414.88 Q129.001 1421.99 130.807 1425.55 Q132.635 1429.09 136.246 1429.09 Q139.881 1429.09 141.686 1425.55 Q143.515 1421.99 143.515 1414.88 Q143.515 1407.75 141.686 1404.21 Q139.881 1400.64 136.246 1400.64 M136.246 1396.94 Q142.056 1396.94 145.112 1401.55 Q148.191 1406.13 148.191 1414.88 Q148.191 1423.61 145.112 1428.21 Q142.056 1432.8 136.246 1432.8 Q130.436 1432.8 127.357 1428.21 Q124.302 1423.61 124.302 1414.88 Q124.302 1406.13 127.357 1401.55 Q130.436 1396.94 136.246 1396.94 Z" fill="#000000" fill-rule="nonzero" fill-opacity="1" /><path clip-path="url(#clip780)" d="M86.0382 1127.33 L102.358 1127.33 L102.358 1131.26 L80.4133 1131.26 L80.4133 1127.33 Q83.0753 1124.57 87.6586 1119.94 Q92.2651 1115.29 93.4456 1113.95 Q95.691 1111.42 96.5706 1109.69 Q97.4734 1107.93 97.4734 1106.24 Q97.4734 1103.48 95.5289 1101.75 Q93.6076 1100.01 90.5058 1100.01 Q88.3067 1100.01 85.8531 1100.78 Q83.4225 1101.54 80.6447 1103.09 L80.6447 1098.37 Q83.4688 1097.23 85.9225 1096.66 Q88.3762 1096.08 90.4132 1096.08 Q95.7836 1096.08 98.978 1098.76 Q102.172 1101.45 102.172 1105.94 Q102.172 1108.07 101.362 1109.99 Q100.575 1111.89 98.4687 1114.48 Q97.89 1115.15 94.7882 1118.37 Q91.6864 1121.56 86.0382 1127.33 Z" fill="#000000" fill-rule="nonzero" fill-opacity="1" /><path clip-path="url(#clip780)" d="M112.172 1125.38 L117.057 1125.38 L117.057 1131.26 L112.172 1131.26 L112.172 1125.38 Z" fill="#000000" fill-rule="nonzero" fill-opacity="1" /><path clip-path="url(#clip780)" d="M127.288 1096.7 L145.644 1096.7 L145.644 1100.64 L131.57 1100.64 L131.57 1109.11 Q132.589 1108.76 133.607 1108.6 Q134.626 1108.41 135.644 1108.41 Q141.431 1108.41 144.811 1111.59 Q148.191 1114.76 148.191 1120.17 Q148.191 1125.75 144.718 1128.85 Q141.246 1131.93 134.927 1131.93 Q132.751 1131.93 130.482 1131.56 Q128.237 1131.19 125.83 1130.45 L125.83 1125.75 Q127.913 1126.89 130.135 1127.44 Q132.357 1128 134.834 1128 Q138.839 1128 141.177 1125.89 Q143.515 1123.79 143.515 1120.17 Q143.515 1116.56 141.177 1114.46 Q138.839 1112.35 134.834 1112.35 Q132.959 1112.35 131.084 1112.77 Q129.232 1113.18 127.288 1114.06 L127.288 1096.7 Z" fill="#000000" fill-rule="nonzero" fill-opacity="1" /><path clip-path="url(#clip780)" d="M81.0614 795.838 L99.4178 795.838 L99.4178 799.773 L85.3438 799.773 L85.3438 808.245 Q86.3623 807.898 87.3808 807.736 Q88.3993 807.551 89.4178 807.551 Q95.2049 807.551 98.5845 810.722 Q101.964 813.893 101.964 819.31 Q101.964 824.889 98.4919 827.991 Q95.0197 831.069 88.7003 831.069 Q86.5243 831.069 84.2558 830.699 Q82.0105 830.329 79.6031 829.588 L79.6031 824.889 Q81.6864 826.023 83.9086 826.579 Q86.1308 827.134 88.6077 827.134 Q92.6123 827.134 94.9502 825.028 Q97.2882 822.921 97.2882 819.31 Q97.2882 815.699 94.9502 813.593 Q92.6123 811.486 88.6077 811.486 Q86.7327 811.486 84.8577 811.903 Q83.0058 812.319 81.0614 813.199 L81.0614 795.838 Z" fill="#000000" fill-rule="nonzero" fill-opacity="1" /><path clip-path="url(#clip780)" d="M111.177 824.518 L116.061 824.518 L116.061 830.398 L111.177 830.398 L111.177 824.518 Z" fill="#000000" fill-rule="nonzero" fill-opacity="1" /><path clip-path="url(#clip780)" d="M136.246 798.917 Q132.635 798.917 130.807 802.481 Q129.001 806.023 129.001 813.153 Q129.001 820.259 130.807 823.824 Q132.635 827.366 136.246 827.366 Q139.881 827.366 141.686 823.824 Q143.515 820.259 143.515 813.153 Q143.515 806.023 141.686 802.481 Q139.881 798.917 136.246 798.917 M136.246 795.213 Q142.056 795.213 145.112 799.819 Q148.191 804.403 148.191 813.153 Q148.191 821.88 145.112 826.486 Q142.056 831.069 136.246 831.069 Q130.436 831.069 127.357 826.486 Q124.302 821.88 124.302 813.153 Q124.302 804.403 127.357 799.819 Q130.436 795.213 136.246 795.213 Z" fill="#000000" fill-rule="nonzero" fill-opacity="1" /><path clip-path="url(#clip780)" d="M80.8299 494.974 L103.052 494.974 L103.052 496.965 L90.5058 529.534 L85.6216 529.534 L97.4271 498.909 L80.8299 498.909 L80.8299 494.974 Z" fill="#000000" fill-rule="nonzero" fill-opacity="1" /><path clip-path="url(#clip780)" d="M112.172 523.654 L117.057 523.654 L117.057 529.534 L112.172 529.534 L112.172 523.654 Z" fill="#000000" fill-rule="nonzero" fill-opacity="1" /><path clip-path="url(#clip780)" d="M127.288 494.974 L145.644 494.974 L145.644 498.909 L131.57 498.909 L131.57 507.381 Q132.589 507.034 133.607 506.872 Q134.626 506.687 135.644 506.687 Q141.431 506.687 144.811 509.858 Q148.191 513.03 148.191 518.446 Q148.191 524.025 144.718 527.127 Q141.246 530.205 134.927 530.205 Q132.751 530.205 130.482 529.835 Q128.237 529.465 125.83 528.724 L125.83 524.025 Q127.913 525.159 130.135 525.715 Q132.357 526.27 134.834 526.27 Q138.839 526.27 141.177 524.164 Q143.515 522.057 143.515 518.446 Q143.515 514.835 141.177 512.729 Q138.839 510.622 134.834 510.622 Q132.959 510.622 131.084 511.039 Q129.232 511.455 127.288 512.335 L127.288 494.974 Z" fill="#000000" fill-rule="nonzero" fill-opacity="1" /><path clip-path="url(#clip780)" d="M51.6634 224.735 L59.3023 224.735 L59.3023 198.369 L50.9921 200.036 L50.9921 195.777 L59.256 194.11 L63.9319 194.11 L63.9319 224.735 L71.5707 224.735 L71.5707 228.67 L51.6634 228.67 L51.6634 224.735 Z" fill="#000000" fill-rule="nonzero" fill-opacity="1" /><path clip-path="url(#clip780)" d="M91.0151 197.189 Q87.404 197.189 85.5753 200.754 Q83.7697 204.295 83.7697 211.425 Q83.7697 218.531 85.5753 222.096 Q87.404 225.638 91.0151 225.638 Q94.6493 225.638 96.4548 222.096 Q98.2835 218.531 98.2835 211.425 Q98.2835 204.295 96.4548 200.754 Q94.6493 197.189 91.0151 197.189 M91.0151 193.485 Q96.8252 193.485 99.8808 198.092 Q102.959 202.675 102.959 211.425 Q102.959 220.152 99.8808 224.758 Q96.8252 229.341 91.0151 229.341 Q85.2049 229.341 82.1262 224.758 Q79.0707 220.152 79.0707 211.425 Q79.0707 202.675 82.1262 198.092 Q85.2049 193.485 91.0151 193.485 Z" fill="#000000" fill-rule="nonzero" fill-opacity="1" /><path clip-path="url(#clip780)" d="M111.177 222.791 L116.061 222.791 L116.061 228.67 L111.177 228.67 L111.177 222.791 Z" fill="#000000" fill-rule="nonzero" fill-opacity="1" /><path clip-path="url(#clip780)" d="M136.246 197.189 Q132.635 197.189 130.807 200.754 Q129.001 204.295 129.001 211.425 Q129.001 218.531 130.807 222.096 Q132.635 225.638 136.246 225.638 Q139.881 225.638 141.686 222.096 Q143.515 218.531 143.515 211.425 Q143.515 204.295 141.686 200.754 Q139.881 197.189 136.246 197.189 M136.246 193.485 Q142.056 193.485 145.112 198.092 Q148.191 202.675 148.191 211.425 Q148.191 220.152 145.112 224.758 Q142.056 229.341 136.246 229.341 Q130.436 229.341 127.357 224.758 Q124.302 220.152 124.302 211.425 Q124.302 202.675 127.357 198.092 Q130.436 193.485 136.246 193.485 Z" fill="#000000" fill-rule="nonzero" fill-opacity="1" /><polyline clip-path="url(#clip782)" style="stroke:#009af9; stroke-linecap:round; stroke-linejoin:round; stroke-width:8; stroke-opacity:1; fill:none" points="184.191,211.39 186.361,256.942 188.532,321.361 190.703,416.24 192.874,559.839 195.044,769.807 197.215,1023.19 199.386,1224.28 201.557,1321.99 203.727,1356.36 205.898,1366.85 208.069,1369.78 210.24,1370.4 212.41,1370.31 214.581,1370 216.752,1369.62 218.922,1369.21 221.093,1368.79 223.264,1368.36 225.435,1367.93 227.605,1367.5 229.776,1367.06 231.947,1366.62 234.118,1366.17 236.288,1365.72 238.459,1365.27 240.63,1364.81 242.801,1364.35 244.971,1363.89 247.142,1363.42 249.313,1362.94 251.483,1362.47 253.654,1361.98 255.825,1361.5 257.996,1361.01 260.166,1360.52 262.337,1360.02 264.508,1359.52 266.679,1359.01 268.849,1358.5 271.02,1357.98 273.191,1357.46 275.362,1356.94 277.532,1356.41 279.703,1355.88 281.874,1355.34 284.045,1354.8 286.215,1354.25 288.386,1353.7 290.557,1353.15 292.727,1352.59 294.898,1352.02 297.069,1351.45 299.24,1350.88 301.41,1350.3 303.581,1349.72 305.752,1349.13 307.923,1348.53 310.093,1347.94 312.264,1347.33 314.435,1346.72 316.606,1346.11 318.776,1345.49 320.947,1344.87 323.118,1344.24 325.289,1343.6 327.459,1342.96 329.63,1342.32 331.801,1341.67 333.971,1341.01 336.142,1340.35 338.313,1339.69 340.484,1339.01 342.654,1338.34 344.825,1337.65 346.996,1336.96 349.167,1336.27 351.337,1335.57 353.508,1334.86 355.679,1334.15 357.85,1333.44 360.02,1332.71 362.191,1331.98 364.362,1331.25 366.533,1330.51 368.703,1329.76 370.874,1329.01 373.045,1328.25 375.215,1327.48 377.386,1326.71 379.557,1325.93 381.728,1325.15 383.898,1324.36 386.069,1323.56 388.24,1322.76 390.411,1321.95 392.581,1321.13 394.752,1320.31 396.923,1319.48 399.094,1318.64 401.264,1317.8 403.435,1316.95 405.606,1316.09 407.776,1315.23 409.947,1314.36 412.118,1313.48 414.289,1312.6 416.459,1311.71 418.63,1310.81 420.801,1309.9 422.972,1308.99 425.142,1308.07 427.313,1307.14 429.484,1306.2 431.655,1305.26 433.825,1304.31 435.996,1303.35 438.167,1302.39 440.338,1301.41 442.508,1300.43 444.679,1299.44 446.85,1298.45 449.02,1297.44 451.191,1296.43 453.362,1295.41 455.533,1294.38 457.703,1293.34 459.874,1292.3 462.045,1291.24 464.216,1290.18 466.386,1289.11 468.557,1288.03 470.728,1286.95 472.899,1285.85 475.069,1284.75 477.24,1283.63 479.411,1282.51 481.582,1281.38 483.752,1280.24 485.923,1279.09 488.094,1277.93 490.264,1276.77 492.435,1275.59 494.606,1274.41 496.777,1273.21 498.947,1272.01 501.118,1270.8 503.289,1269.58 505.46,1268.35 507.63,1267.1 509.801,1265.85 511.972,1264.59 514.143,1263.32 516.313,1262.05 518.484,1260.76 520.655,1259.46 522.825,1258.15 524.996,1256.83 527.167,1255.5 529.338,1254.16 531.508,1252.81 533.679,1251.45 535.85,1250.09 538.021,1248.71 540.191,1247.32 542.362,1245.92 544.533,1244.51 546.704,1243.09 548.874,1241.66 551.045,1240.22 553.216,1238.76 555.387,1237.3 557.557,1235.83 559.728,1234.35 561.899,1232.85 564.069,1231.35 566.24,1229.84 568.411,1228.31 570.582,1226.78 572.752,1225.23 574.923,1223.68 577.094,1222.11 579.265,1220.53 581.435,1218.95 583.606,1217.35 585.777,1215.74 587.948,1214.12 590.118,1212.49 592.289,1210.86 594.46,1209.21 596.631,1207.55 598.801,1205.88 600.972,1204.2 603.143,1202.51 605.313,1200.82 607.484,1199.11 609.655,1197.39 611.826,1195.67 613.996,1193.93 616.167,1192.19 618.338,1190.44 620.509,1188.67 622.679,1186.9 624.85,1185.13 627.021,1183.34 629.192,1181.54 631.362,1179.74 633.533,1177.93 635.704,1176.11 637.874,1174.29 640.045,1172.46 642.216,1170.62 644.387,1168.78 646.557,1166.92 648.728,1165.07 650.899,1163.21 653.07,1161.34 655.24,1159.47 657.411,1157.59 659.582,1155.71 661.753,1153.82 663.923,1151.93 666.094,1150.04 668.265,1148.15 670.436,1146.25 672.606,1144.35 674.777,1142.45 676.948,1140.54 679.118,1138.64 681.289,1136.74 683.46,1134.83 685.631,1132.93 687.801,1131.02 689.972,1129.12 692.143,1127.22 694.314,1125.32 696.484,1123.42 698.655,1121.53 700.826,1119.64 702.997,1117.75 705.167,1115.86 707.338,1113.98 709.509,1112.11 711.68,1110.24 713.85,1108.37 716.021,1106.51 718.192,1104.66 720.362,1102.81 722.533,1100.97 724.704,1099.14 726.875,1097.32 729.045,1095.5 731.216,1093.69 733.387,1091.9 735.558,1090.11 737.728,1088.32 739.899,1086.55 742.07,1084.79 744.241,1083.04 746.411,1081.3 748.582,1079.57 750.753,1077.85 752.924,1076.14 755.094,1074.44 757.265,1072.76 759.436,1071.08 761.606,1069.42 763.777,1067.77 765.948,1066.13 768.119,1064.5 770.289,1062.89 772.46,1061.28 774.631,1059.69 776.802,1058.12 778.972,1056.55 781.143,1055 783.314,1053.45 785.485,1051.92 787.655,1050.41 789.826,1048.9 791.997,1047.41 794.167,1045.93 796.338,1044.46 798.509,1043 800.68,1041.56 802.85,1040.13 805.021,1038.71 807.192,1037.3 809.363,1035.9 811.533,1034.52 813.704,1033.14 815.875,1031.78 818.046,1030.43 820.216,1029.08 822.387,1027.75 824.558,1026.43 826.729,1025.12 828.899,1023.82 831.07,1022.54 833.241,1021.26 835.411,1019.99 837.582,1018.73 839.753,1017.48 841.924,1016.24 844.094,1015 846.265,1013.78 848.436,1012.57 850.607,1011.36 852.777,1010.16 854.948,1008.97 857.119,1007.79 859.29,1006.62 861.46,1005.45 863.631,1004.3 865.802,1003.14 867.973,1002 870.143,1000.87 872.314,999.736 874.485,998.613 876.655,997.497 878.826,996.387 880.997,995.283 883.168,994.186 885.338,993.094 887.509,992.008 889.68,990.928 891.851,989.853 894.021,988.783 896.192,987.719 898.363,986.659 900.534,985.605 902.704,984.555 904.875,983.51 907.046,982.47 909.216,981.434 911.387,980.402 913.558,979.374 915.729,978.351 917.899,977.331 920.07,976.315 922.241,975.303 924.412,974.295 926.582,973.291 928.753,972.289 930.924,971.291 933.095,970.297 935.265,969.305 937.436,968.316 939.607,967.331 941.778,966.348 943.948,965.368 946.119,964.391 948.29,963.416 950.46,962.445 952.631,961.475 954.802,960.508 956.973,959.544 959.143,958.581 961.314,957.621 963.485,956.663 965.656,955.708 967.826,954.754 969.997,953.802 972.168,952.853 974.339,951.905 976.509,950.959 978.68,950.014 980.851,949.072 983.022,948.131 985.192,947.192 987.363,946.254 989.534,945.318 991.704,944.384 993.875,943.45 996.046,942.519 998.217,941.588 1000.39,940.659 1002.56,939.731 1004.73,938.805 1006.9,937.88 1009.07,936.956 1011.24,936.033 1013.41,935.111 1015.58,934.19 1017.75,933.271 1019.92,932.352 1022.09,931.435 1024.27,930.518 1026.44,929.603 1028.61,928.689 1030.78,927.775 1032.95,926.863 1035.12,925.951 1037.29,925.04 1039.46,924.13 1041.63,923.221 1043.8,922.313 1045.97,921.405 1048.14,920.498 1050.31,919.592 1052.49,918.687 1054.66,917.782 1056.83,916.879 1059,915.975 1061.17,915.073 1063.34,914.171 1065.51,913.27 1067.68,912.369 1069.85,911.469 1072.02,910.57 1074.19,909.671 1076.36,908.773 1078.53,907.876 1080.7,906.979 1082.88,906.082 1085.05,905.186 1087.22,904.291 1089.39,903.396 1091.56,902.502 1093.73,901.608 1095.9,900.715 1098.07,899.822 1100.24,898.929 1102.41,898.037 1104.58,897.146 1106.75,896.255 1108.92,895.365 1111.09,894.474 1113.27,893.585 1115.44,892.696 1117.61,891.807 1119.78,890.919 1121.95,890.031 1124.12,889.143 1126.29,888.256 1128.46,887.369 1130.63,886.483 1132.8,885.597 1134.97,884.712 1137.14,883.826 1139.31,882.942 1141.49,882.057 1143.66,881.173 1145.83,880.289 1148,879.406 1150.17,878.523 1152.34,877.641 1154.51,876.758 1156.68,875.877 1158.85,874.995 1161.02,874.114 1163.19,873.233 1165.36,872.353 1167.53,871.473 1169.7,870.593 1171.88,869.713 1174.05,868.834 1176.22,867.955 1178.39,867.077 1180.56,866.199 1182.73,865.321 1184.9,864.444 1187.07,863.566 1189.24,862.69 1191.41,861.813 1193.58,860.937 1195.75,860.061 1197.92,859.186 1200.1,858.31 1202.27,857.435 1204.44,856.561 1206.61,855.687 1208.78,854.813 1210.95,853.939 1213.12,853.066 1215.29,852.193 1217.46,851.32 1219.63,850.447 1221.8,849.575 1223.97,848.703 1226.14,847.832 1228.31,846.961 1230.49,846.09 1232.66,845.219 1234.83,844.349 1237,843.479 1239.17,842.609 1241.34,841.74 1243.51,840.871 1245.68,840.002 1247.85,839.134 1250.02,838.266 1252.19,837.398 1254.36,836.53 1256.53,835.663 1258.7,834.796 1260.88,833.93 1263.05,833.063 1265.22,832.197 1267.39,831.332 1269.56,830.466 1271.73,829.601 1273.9,828.736 1276.07,827.872 1278.24,827.008 1280.41,826.144 1282.58,825.28 1284.75,824.417 1286.92,823.554 1289.1,822.692 1291.27,821.829 1293.44,820.967 1295.61,820.106 1297.78,819.244 1299.95,818.383 1302.12,817.522 1304.29,816.662 1306.46,815.802 1308.63,814.942 1310.8,814.083 1312.97,813.224 1315.14,812.365 1317.31,811.506 1319.49,810.648 1321.66,809.79 1323.83,808.933 1326,808.075 1328.17,807.218 1330.34,806.362 1332.51,805.506 1334.68,804.65 1336.85,803.794 1339.02,802.939 1341.19,802.084 1343.36,801.229 1345.53,800.375 1347.71,799.521 1349.88,798.667 1352.05,797.814 1354.22,796.961 1356.39,796.108 1358.56,795.256 1360.73,794.404 1362.9,793.553 1365.07,792.701 1367.24,791.85 1369.41,791 1371.58,790.149 1373.75,789.3 1375.92,788.45 1378.1,787.601 1380.27,786.752 1382.44,785.903 1384.61,785.055 1386.78,784.207 1388.95,783.36 1391.12,782.513 1393.29,781.666 1395.46,780.82 1397.63,779.974 1399.8,779.128 1401.97,778.283 1404.14,777.438 1406.32,776.593 1408.49,775.749 1410.66,774.905 1412.83,774.061 1415,773.218 1417.17,772.375 1419.34,771.533 1421.51,770.691 1423.68,769.849 1425.85,769.008 1428.02,768.167 1430.19,767.327 1432.36,766.487 1434.53,765.647 1436.71,764.808 1438.88,763.969 1441.05,763.13 1443.22,762.292 1445.39,761.454 1447.56,760.617 1449.73,759.78 1451.9,758.943 1454.07,758.107 1456.24,757.271 1458.41,756.435 1460.58,755.6 1462.75,754.766 1464.92,753.931 1467.1,753.098 1469.27,752.264 1471.44,751.431 1473.61,750.599 1475.78,749.766 1477.95,748.935 1480.12,748.103 1482.29,747.272 1484.46,746.442 1486.63,745.612 1488.8,744.782 1490.97,743.953 1493.14,743.124 1495.32,742.296 1497.49,741.468 1499.66,740.64 1501.83,739.813 1504,738.987 1506.17,738.16 1508.34,737.335 1510.51,736.509 1512.68,735.685 1514.85,734.86 1517.02,734.036 1519.19,733.213 1521.36,732.39 1523.53,731.567 1525.71,730.745 1527.88,729.923 1530.05,729.102 1532.22,728.282 1534.39,727.461 1536.56,726.642 1538.73,725.822 1540.9,725.003 1543.07,724.185 1545.24,723.367 1547.41,722.55 1549.58,721.733 1551.75,720.917 1553.93,720.101 1556.1,719.285 1558.27,718.471 1560.44,717.656 1562.61,716.842 1564.78,716.029 1566.95,715.216 1569.12,714.403 1571.29,713.592 1573.46,712.78 1575.63,711.97 1577.8,711.159 1579.97,710.349 1582.14,709.54 1584.32,708.732 1586.49,707.923 1588.66,707.116 1590.83,706.309 1593,705.502 1595.17,704.696 1597.34,703.891 1599.51,703.086 1601.68,702.282 1603.85,701.478 1606.02,700.675 1608.19,699.872 1610.36,699.07 1612.53,698.269 1614.71,697.468 1616.88,696.668 1619.05,695.868 1621.22,695.069 1623.39,694.27 1625.56,693.472 1627.73,692.675 1629.9,691.878 1632.07,691.082 1634.24,690.286 1636.41,689.491 1638.58,688.697 1640.75,687.903 1642.93,687.11 1645.1,686.318 1647.27,685.526 1649.44,684.735 1651.61,683.944 1653.78,683.154 1655.95,682.365 1658.12,681.576 1660.29,680.788 1662.46,680.001 1664.63,679.215 1666.8,678.429 1668.97,677.643 1671.14,676.859 1673.32,676.075 1675.49,675.292 1677.66,674.509 1679.83,673.727 1682,672.946 1684.17,672.166 1686.34,671.386 1688.51,670.607 1690.68,669.829 1692.85,669.051 1695.02,668.274 1697.19,667.498 1699.36,666.723 1701.54,665.948 1703.71,665.174 1705.88,664.401 1708.05,663.629 1710.22,662.858 1712.39,662.087 1714.56,661.317 1716.73,660.548 1718.9,659.779 1721.07,659.012 1723.24,658.245 1725.41,657.479 1727.58,656.714 1729.75,655.95 1731.93,655.186 1734.1,654.423 1736.27,653.661 1738.44,652.9 1740.61,652.14 1742.78,651.38 1744.95,650.622 1747.12,649.865 1749.29,649.108 1751.46,648.352 1753.63,647.597 1755.8,646.844 1757.97,646.091 1760.14,645.339 1762.32,644.588 1764.49,643.838 1766.66,643.088 1768.83,642.34 1771,641.593 1773.17,640.847 1775.34,640.102 1777.51,639.357 1779.68,638.614 1781.85,637.872 1784.02,637.13 1786.19,636.39 1788.36,635.651 1790.54,634.913 1792.71,634.176 1794.88,633.44 1797.05,632.705 1799.22,631.971 1801.39,631.238 1803.56,630.506 1805.73,629.776 1807.9,629.046 1810.07,628.318 1812.24,627.59 1814.41,626.864 1816.58,626.139 1818.75,625.416 1820.93,624.693 1823.1,623.972 1825.27,623.252 1827.44,622.533 1829.61,621.815 1831.78,621.099 1833.95,620.384 1836.12,619.67 1838.29,618.957 1840.46,618.246 1842.63,617.536 1844.8,616.828 1846.97,616.12 1849.15,615.414 1851.32,614.71 1853.49,614.007 1855.66,613.305 1857.83,612.605 1860,611.906 1862.17,611.209 1864.34,610.513 1866.51,609.819 1868.68,609.126 1870.85,608.435 1873.02,607.746 1875.19,607.057 1877.36,606.371 1879.54,605.686 1881.71,605.003 1883.88,604.321 1886.05,603.641 1888.22,602.963 1890.39,602.287 1892.56,601.612 1894.73,600.939 1896.9,600.268 1899.07,599.598 1901.24,598.931 1903.41,598.265 1905.58,597.601 1907.76,596.938 1909.93,596.277 1912.1,595.619 1914.27,594.962 1916.44,594.308 1918.61,593.656 1920.78,593.005 1922.95,592.357 1925.12,591.711 1927.29,591.067 1929.46,590.425 1931.63,589.786 1933.8,589.149 1935.97,588.514 1938.15,587.881 1940.32,587.251 1942.49,586.623 1944.66,585.997 1946.83,585.374 1949,584.753 1951.17,584.135 1953.34,583.519 1955.51,582.906 1957.68,582.296 1959.85,581.688 1962.02,581.083 1964.19,580.481 1966.36,579.881 1968.54,579.285 1970.71,578.691 1972.88,578.1 1975.05,577.513 1977.22,576.928 1979.39,576.347 1981.56,575.769 1983.73,575.194 1985.9,574.622 1988.07,574.054 1990.24,573.489 1992.41,572.928 1994.58,572.37 1996.76,571.817 1998.93,571.266 2001.1,570.72 2003.27,570.178 2005.44,569.639 2007.61,569.105 2009.78,568.574 2011.95,568.048 2014.12,567.526 2016.29,567.009 2018.46,566.496 2020.63,565.987 2022.8,565.483 2024.97,564.984 2027.15,564.489 2029.32,563.999 2031.49,563.514 2033.66,563.035 2035.83,562.561 2038,562.093 2040.17,561.631 2042.34,561.174 2044.51,560.723 2046.68,560.278 2048.85,559.839 2051.02,559.406 2053.19,558.98 2055.37,558.561 2057.54,558.148 2059.71,557.742 2061.88,557.343 2064.05,556.951 2066.22,556.567 2068.39,556.191 2070.56,555.823 2072.73,555.463 2074.9,555.112 2077.07,554.769 2079.24,554.436 2081.41,554.112 2083.58,553.797 2085.76,553.493 2087.93,553.199 2090.1,552.915 2092.27,552.643 2094.44,552.381 2096.61,552.132 2098.78,551.894 2100.95,551.669 2103.12,551.457 2105.29,551.258 2107.46,551.071 2109.63,550.899 2111.8,550.742 2113.97,550.601 2116.15,550.477 2118.32,550.369 2120.49,550.279 2122.66,550.206 2124.83,550.152 2127,550.117 2129.17,550.102 2131.34,550.109 2133.51,550.137 2135.68,550.188 2137.85,550.263 2140.02,550.363 2142.19,550.49 2144.37,550.645 2146.54,550.83 2148.71,551.045 2150.88,551.293 2153.05,551.575 2155.22,551.892 2157.39,552.248 2159.56,552.643 2161.73,553.08 2163.9,553.558 2166.07,554.085 2168.24,554.664 2170.41,555.296 2172.58,555.985 2174.76,556.733 2176.93,557.543 2179.1,558.421 2181.27,559.371 2183.44,560.398 2185.61,561.508 2187.78,562.709 2189.95,564.007 2192.12,565.41 2194.29,566.928 2196.46,568.568 2198.63,570.342 2200.8,572.256 2202.98,574.326 2205.15,576.577 2207.32,579.018 2209.49,581.665 2211.66,584.537 2213.83,587.659 2216,591.06 2218.17,594.775 2220.34,598.842 2222.51,603.306 2224.68,608.215 2226.85,613.619 2229.02,619.581 2231.19,626.224 2233.37,633.61 2235.54,641.839 2237.71,651.043 2239.88,661.393 2242.05,673.097 2244.22,686.398 2246.39,701.575 2248.56,718.948 2250.73,738.925 2252.9,761.99 2255.07,788.664 2257.24,819.508 2259.41,855.092 2261.58,895.816 2263.76,941.74 2265.93,992.241 2268.1,1045.92 2270.27,1100.23 2272.44,1152.07 2274.61,1198.4 2276.78,1237.09 2278.95,1267.5 2281.12,1290.16 2283.29,1306.37 2285.46,1317.6 2287.63,1325.18 2289.8,1330.17 2291.98,1333.37 2294.15,1335.35 2296.32,1336.49 2298.49,1337.06 2300.66,1337.24 2302.83,1337.16 2305,1336.89 2307.17,1336.49 2309.34,1336.01 2311.51,1335.45 2313.68,1334.86 2315.85,1334.22 2318.02,1333.56 2320.19,1332.88 2322.37,1332.18 2324.54,1331.47 2326.71,1330.75 2328.88,1330.02 2331.05,1329.27 2333.22,1328.52 2335.39,1327.77 2337.56,1327 2339.73,1326.23 2341.9,1325.45 2344.07,1324.66 2346.24,1323.87 2348.41,1323.07 2350.59,1322.26 2352.76,1321.45 "/>
<polyline clip-path="url(#clip782)" style="stroke:#e26f46; stroke-linecap:round; stroke-linejoin:round; stroke-width:8; stroke-opacity:1; fill:none" points="184.191,1174.15 186.361,1130.02 188.532,1067.54 190.703,975.36 192.874,835.607 195.044,631.199 197.215,385.687 199.386,194.734 201.557,108.537 203.727,86.1857 205.898,87.7888 208.069,96.9008 210.24,108.215 212.41,120.119 214.581,132.124 216.752,144.082 218.922,155.947 221.093,167.704 223.264,179.351 225.435,190.886 227.605,202.31 229.776,213.624 231.947,224.829 234.118,235.927 236.288,246.917 238.459,257.803 240.63,268.583 242.801,279.26 244.971,289.835 247.142,300.308 249.313,310.681 251.483,320.955 253.654,331.131 255.825,341.209 257.996,351.191 260.166,361.078 262.337,370.87 264.508,380.569 266.679,390.176 268.849,399.691 271.02,409.116 273.191,418.451 275.362,427.698 277.532,436.857 279.703,445.929 281.874,454.915 284.045,463.816 286.215,472.634 288.386,481.368 290.557,490.019 292.727,498.589 294.898,507.079 297.069,515.488 299.24,523.818 301.41,532.071 303.581,540.246 305.752,548.344 307.923,556.366 310.093,564.314 312.264,572.187 314.435,579.987 316.606,587.715 318.776,595.37 320.947,602.954 323.118,610.468 325.289,617.912 327.459,625.287 329.63,632.594 331.801,639.834 333.971,647.007 336.142,654.114 338.313,661.155 340.484,668.132 342.654,675.045 344.825,681.894 346.996,688.681 349.167,695.405 351.337,702.069 353.508,708.671 355.679,715.214 357.85,721.698 360.02,728.123 362.191,734.489 364.362,740.798 366.533,747.05 368.703,753.246 370.874,759.387 373.045,765.472 375.215,771.502 377.386,777.479 379.557,783.403 381.728,789.273 383.898,795.092 386.069,800.859 388.24,806.576 390.411,812.241 392.581,817.857 394.752,823.423 396.923,828.941 399.094,834.41 401.264,839.831 403.435,845.205 405.606,850.533 407.776,855.814 409.947,861.049 412.118,866.24 414.289,871.386 416.459,876.487 418.63,881.545 420.801,886.56 422.972,891.532 425.142,896.461 427.313,901.349 429.484,906.196 431.655,911.001 433.825,915.767 435.996,920.492 438.167,925.178 440.338,929.825 442.508,934.434 444.679,939.004 446.85,943.537 449.02,948.032 451.191,952.491 453.362,956.913 455.533,961.299 457.703,965.649 459.874,969.965 462.045,974.245 464.216,978.491 466.386,982.704 468.557,986.883 470.728,991.028 472.899,995.141 475.069,999.222 477.24,1003.27 479.411,1007.29 481.582,1011.27 483.752,1015.23 485.923,1019.15 488.094,1023.05 490.264,1026.91 492.435,1030.75 494.606,1034.55 496.777,1038.33 498.947,1042.08 501.118,1045.8 503.289,1049.49 505.46,1053.16 507.63,1056.79 509.801,1060.41 511.972,1063.99 514.143,1067.55 516.313,1071.08 518.484,1074.59 520.655,1078.07 522.825,1081.53 524.996,1084.97 527.167,1088.38 529.338,1091.76 531.508,1095.12 533.679,1098.46 535.85,1101.77 538.021,1105.07 540.191,1108.34 542.362,1111.58 544.533,1114.81 546.704,1118.01 548.874,1121.19 551.045,1124.35 553.216,1127.49 555.387,1130.61 557.557,1133.71 559.728,1136.78 561.899,1139.84 564.069,1142.88 566.24,1145.89 568.411,1148.89 570.582,1151.87 572.752,1154.83 574.923,1157.76 577.094,1160.69 579.265,1163.59 581.435,1166.47 583.606,1169.33 585.777,1172.18 587.948,1175.01 590.118,1177.82 592.289,1180.61 594.46,1183.39 596.631,1186.14 598.801,1188.88 600.972,1191.6 603.143,1194.31 605.313,1196.99 607.484,1199.66 609.655,1202.32 611.826,1204.95 613.996,1207.57 616.167,1210.17 618.338,1212.76 620.509,1215.32 622.679,1217.87 624.85,1220.41 627.021,1222.92 629.192,1225.42 631.362,1227.9 633.533,1230.37 635.704,1232.81 637.874,1235.24 640.045,1237.66 642.216,1240.05 644.387,1242.43 646.557,1244.79 648.728,1247.13 650.899,1249.46 653.07,1251.76 655.24,1254.05 657.411,1256.32 659.582,1258.57 661.753,1260.81 663.923,1263.02 666.094,1265.22 668.265,1267.4 670.436,1269.55 672.606,1271.69 674.777,1273.81 676.948,1275.91 679.118,1277.99 681.289,1280.05 683.46,1282.09 685.631,1284.11 687.801,1286.11 689.972,1288.08 692.143,1290.04 694.314,1291.97 696.484,1293.89 698.655,1295.78 700.826,1297.65 702.997,1299.5 705.167,1301.32 707.338,1303.12 709.509,1304.9 711.68,1306.66 713.85,1308.4 716.021,1310.11 718.192,1311.8 720.362,1313.46 722.533,1315.1 724.704,1316.72 726.875,1318.31 729.045,1319.88 731.216,1321.43 733.387,1322.95 735.558,1324.45 737.728,1325.92 739.899,1327.37 742.07,1328.8 744.241,1330.2 746.411,1331.57 748.582,1332.93 750.753,1334.26 752.924,1335.56 755.094,1336.84 757.265,1338.1 759.436,1339.33 761.606,1340.54 763.777,1341.72 765.948,1342.88 768.119,1344.02 770.289,1345.13 772.46,1346.22 774.631,1347.29 776.802,1348.34 778.972,1349.36 781.143,1350.36 783.314,1351.33 785.485,1352.29 787.655,1353.22 789.826,1354.14 791.997,1355.03 794.167,1355.9 796.338,1356.75 798.509,1357.58 800.68,1358.38 802.85,1359.17 805.021,1359.94 807.192,1360.69 809.363,1361.42 811.533,1362.14 813.704,1362.83 815.875,1363.51 818.046,1364.16 820.216,1364.8 822.387,1365.43 824.558,1366.04 826.729,1366.63 828.899,1367.2 831.07,1367.76 833.241,1368.3 835.411,1368.83 837.582,1369.34 839.753,1369.84 841.924,1370.33 844.094,1370.8 846.265,1371.25 848.436,1371.7 850.607,1372.13 852.777,1372.55 854.948,1372.95 857.119,1373.35 859.29,1373.73 861.46,1374.1 863.631,1374.46 865.802,1374.81 867.973,1375.15 870.143,1375.47 872.314,1375.79 874.485,1376.1 876.655,1376.4 878.826,1376.68 880.997,1376.96 883.168,1377.23 885.338,1377.5 887.509,1377.75 889.68,1378 891.851,1378.23 894.021,1378.46 896.192,1378.69 898.363,1378.9 900.534,1379.11 902.704,1379.31 904.875,1379.51 907.046,1379.7 909.216,1379.88 911.387,1380.06 913.558,1380.23 915.729,1380.39 917.899,1380.55 920.07,1380.7 922.241,1380.85 924.412,1380.99 926.582,1381.13 928.753,1381.27 930.924,1381.39 933.095,1381.52 935.265,1381.64 937.436,1381.75 939.607,1381.87 941.778,1381.97 943.948,1382.08 946.119,1382.18 948.29,1382.27 950.46,1382.37 952.631,1382.46 954.802,1382.54 956.973,1382.63 959.143,1382.71 961.314,1382.78 963.485,1382.86 965.656,1382.93 967.826,1383 969.997,1383.06 972.168,1383.12 974.339,1383.18 976.509,1383.24 978.68,1383.3 980.851,1383.35 983.022,1383.4 985.192,1383.45 987.363,1383.5 989.534,1383.54 991.704,1383.59 993.875,1383.63 996.046,1383.67 998.217,1383.7 1000.39,1383.74 1002.56,1383.77 1004.73,1383.81 1006.9,1383.84 1009.07,1383.87 1011.24,1383.9 1013.41,1383.92 1015.58,1383.95 1017.75,1383.97 1019.92,1384 1022.09,1384.02 1024.27,1384.04 1026.44,1384.06 1028.61,1384.07 1030.78,1384.09 1032.95,1384.11 1035.12,1384.12 1037.29,1384.13 1039.46,1384.15 1041.63,1384.16 1043.8,1384.17 1045.97,1384.18 1048.14,1384.19 1050.31,1384.2 1052.49,1384.2 1054.66,1384.21 1056.83,1384.22 1059,1384.22 1061.17,1384.23 1063.34,1384.23 1065.51,1384.23 1067.68,1384.24 1069.85,1384.24 1072.02,1384.24 1074.19,1384.24 1076.36,1384.24 1078.53,1384.24 1080.7,1384.24 1082.88,1384.23 1085.05,1384.23 1087.22,1384.23 1089.39,1384.23 1091.56,1384.22 1093.73,1384.22 1095.9,1384.21 1098.07,1384.21 1100.24,1384.2 1102.41,1384.2 1104.58,1384.19 1106.75,1384.18 1108.92,1384.18 1111.09,1384.17 1113.27,1384.16 1115.44,1384.15 1117.61,1384.14 1119.78,1384.13 1121.95,1384.13 1124.12,1384.12 1126.29,1384.11 1128.46,1384.1 1130.63,1384.09 1132.8,1384.07 1134.97,1384.06 1137.14,1384.05 1139.31,1384.04 1141.49,1384.03 1143.66,1384.02 1145.83,1384 1148,1383.99 1150.17,1383.98 1152.34,1383.97 1154.51,1383.95 1156.68,1383.94 1158.85,1383.93 1161.02,1383.91 1163.19,1383.9 1165.36,1383.88 1167.53,1383.87 1169.7,1383.85 1171.88,1383.84 1174.05,1383.82 1176.22,1383.81 1178.39,1383.79 1180.56,1383.78 1182.73,1383.76 1184.9,1383.75 1187.07,1383.73 1189.24,1383.71 1191.41,1383.7 1193.58,1383.68 1195.75,1383.66 1197.92,1383.65 1200.1,1383.63 1202.27,1383.61 1204.44,1383.59 1206.61,1383.58 1208.78,1383.56 1210.95,1383.54 1213.12,1383.52 1215.29,1383.51 1217.46,1383.49 1219.63,1383.47 1221.8,1383.45 1223.97,1383.43 1226.14,1383.41 1228.31,1383.4 1230.49,1383.38 1232.66,1383.36 1234.83,1383.34 1237,1383.32 1239.17,1383.3 1241.34,1383.28 1243.51,1383.26 1245.68,1383.24 1247.85,1383.22 1250.02,1383.2 1252.19,1383.18 1254.36,1383.16 1256.53,1383.14 1258.7,1383.12 1260.88,1383.1 1263.05,1383.08 1265.22,1383.06 1267.39,1383.04 1269.56,1383.02 1271.73,1383 1273.9,1382.98 1276.07,1382.96 1278.24,1382.93 1280.41,1382.91 1282.58,1382.89 1284.75,1382.87 1286.92,1382.85 1289.1,1382.83 1291.27,1382.81 1293.44,1382.78 1295.61,1382.76 1297.78,1382.74 1299.95,1382.72 1302.12,1382.7 1304.29,1382.67 1306.46,1382.65 1308.63,1382.63 1310.8,1382.61 1312.97,1382.58 1315.14,1382.56 1317.31,1382.54 1319.49,1382.51 1321.66,1382.49 1323.83,1382.47 1326,1382.44 1328.17,1382.42 1330.34,1382.4 1332.51,1382.37 1334.68,1382.35 1336.85,1382.33 1339.02,1382.3 1341.19,1382.28 1343.36,1382.26 1345.53,1382.23 1347.71,1382.21 1349.88,1382.18 1352.05,1382.16 1354.22,1382.13 1356.39,1382.11 1358.56,1382.09 1360.73,1382.06 1362.9,1382.04 1365.07,1382.01 1367.24,1381.99 1369.41,1381.96 1371.58,1381.94 1373.75,1381.91 1375.92,1381.89 1378.1,1381.86 1380.27,1381.84 1382.44,1381.81 1384.61,1381.78 1386.78,1381.76 1388.95,1381.73 1391.12,1381.71 1393.29,1381.68 1395.46,1381.65 1397.63,1381.63 1399.8,1381.6 1401.97,1381.58 1404.14,1381.55 1406.32,1381.52 1408.49,1381.5 1410.66,1381.47 1412.83,1381.44 1415,1381.41 1417.17,1381.39 1419.34,1381.36 1421.51,1381.33 1423.68,1381.31 1425.85,1381.28 1428.02,1381.25 1430.19,1381.22 1432.36,1381.19 1434.53,1381.17 1436.71,1381.14 1438.88,1381.11 1441.05,1381.08 1443.22,1381.05 1445.39,1381.03 1447.56,1381 1449.73,1380.97 1451.9,1380.94 1454.07,1380.91 1456.24,1380.88 1458.41,1380.85 1460.58,1380.82 1462.75,1380.79 1464.92,1380.76 1467.1,1380.74 1469.27,1380.71 1471.44,1380.68 1473.61,1380.65 1475.78,1380.62 1477.95,1380.59 1480.12,1380.56 1482.29,1380.53 1484.46,1380.49 1486.63,1380.46 1488.8,1380.43 1490.97,1380.4 1493.14,1380.37 1495.32,1380.34 1497.49,1380.31 1499.66,1380.28 1501.83,1380.25 1504,1380.22 1506.17,1380.18 1508.34,1380.15 1510.51,1380.12 1512.68,1380.09 1514.85,1380.06 1517.02,1380.02 1519.19,1379.99 1521.36,1379.96 1523.53,1379.93 1525.71,1379.89 1527.88,1379.86 1530.05,1379.83 1532.22,1379.79 1534.39,1379.76 1536.56,1379.73 1538.73,1379.69 1540.9,1379.66 1543.07,1379.63 1545.24,1379.59 1547.41,1379.56 1549.58,1379.52 1551.75,1379.49 1553.93,1379.45 1556.1,1379.42 1558.27,1379.38 1560.44,1379.35 1562.61,1379.31 1564.78,1379.28 1566.95,1379.24 1569.12,1379.21 1571.29,1379.17 1573.46,1379.13 1575.63,1379.1 1577.8,1379.06 1579.97,1379.03 1582.14,1378.99 1584.32,1378.95 1586.49,1378.92 1588.66,1378.88 1590.83,1378.84 1593,1378.8 1595.17,1378.77 1597.34,1378.73 1599.51,1378.69 1601.68,1378.65 1603.85,1378.61 1606.02,1378.57 1608.19,1378.54 1610.36,1378.5 1612.53,1378.46 1614.71,1378.42 1616.88,1378.38 1619.05,1378.34 1621.22,1378.3 1623.39,1378.26 1625.56,1378.22 1627.73,1378.18 1629.9,1378.14 1632.07,1378.1 1634.24,1378.06 1636.41,1378.01 1638.58,1377.97 1640.75,1377.93 1642.93,1377.89 1645.1,1377.85 1647.27,1377.8 1649.44,1377.76 1651.61,1377.72 1653.78,1377.68 1655.95,1377.63 1658.12,1377.59 1660.29,1377.55 1662.46,1377.5 1664.63,1377.46 1666.8,1377.41 1668.97,1377.37 1671.14,1377.33 1673.32,1377.28 1675.49,1377.24 1677.66,1377.19 1679.83,1377.14 1682,1377.1 1684.17,1377.05 1686.34,1377.01 1688.51,1376.96 1690.68,1376.91 1692.85,1376.87 1695.02,1376.82 1697.19,1376.77 1699.36,1376.72 1701.54,1376.67 1703.71,1376.63 1705.88,1376.58 1708.05,1376.53 1710.22,1376.48 1712.39,1376.43 1714.56,1376.38 1716.73,1376.33 1718.9,1376.28 1721.07,1376.23 1723.24,1376.18 1725.41,1376.13 1727.58,1376.07 1729.75,1376.02 1731.93,1375.97 1734.1,1375.92 1736.27,1375.86 1738.44,1375.81 1740.61,1375.76 1742.78,1375.7 1744.95,1375.65 1747.12,1375.6 1749.29,1375.54 1751.46,1375.49 1753.63,1375.43 1755.8,1375.37 1757.97,1375.32 1760.14,1375.26 1762.32,1375.2 1764.49,1375.15 1766.66,1375.09 1768.83,1375.03 1771,1374.97 1773.17,1374.91 1775.34,1374.85 1777.51,1374.79 1779.68,1374.73 1781.85,1374.67 1784.02,1374.61 1786.19,1374.55 1788.36,1374.49 1790.54,1374.43 1792.71,1374.36 1794.88,1374.3 1797.05,1374.24 1799.22,1374.17 1801.39,1374.11 1803.56,1374.04 1805.73,1373.98 1807.9,1373.91 1810.07,1373.85 1812.24,1373.78 1814.41,1373.71 1816.58,1373.64 1818.75,1373.58 1820.93,1373.51 1823.1,1373.44 1825.27,1373.37 1827.44,1373.3 1829.61,1373.23 1831.78,1373.16 1833.95,1373.08 1836.12,1373.01 1838.29,1372.94 1840.46,1372.86 1842.63,1372.79 1844.8,1372.72 1846.97,1372.64 1849.15,1372.56 1851.32,1372.49 1853.49,1372.41 1855.66,1372.33 1857.83,1372.25 1860,1372.18 1862.17,1372.1 1864.34,1372.02 1866.51,1371.93 1868.68,1371.85 1870.85,1371.77 1873.02,1371.69 1875.19,1371.6 1877.36,1371.52 1879.54,1371.43 1881.71,1371.35 1883.88,1371.26 1886.05,1371.17 1888.22,1371.08 1890.39,1370.99 1892.56,1370.9 1894.73,1370.81 1896.9,1370.72 1899.07,1370.63 1901.24,1370.53 1903.41,1370.44 1905.58,1370.34 1907.76,1370.25 1909.93,1370.15 1912.1,1370.05 1914.27,1369.95 1916.44,1369.85 1918.61,1369.75 1920.78,1369.65 1922.95,1369.54 1925.12,1369.44 1927.29,1369.33 1929.46,1369.23 1931.63,1369.12 1933.8,1369.01 1935.97,1368.9 1938.15,1368.79 1940.32,1368.67 1942.49,1368.56 1944.66,1368.44 1946.83,1368.33 1949,1368.21 1951.17,1368.09 1953.34,1367.97 1955.51,1367.85 1957.68,1367.73 1959.85,1367.6 1962.02,1367.48 1964.19,1367.35 1966.36,1367.22 1968.54,1367.09 1970.71,1366.96 1972.88,1366.82 1975.05,1366.69 1977.22,1366.55 1979.39,1366.41 1981.56,1366.27 1983.73,1366.13 1985.9,1365.98 1988.07,1365.83 1990.24,1365.69 1992.41,1365.53 1994.58,1365.38 1996.76,1365.23 1998.93,1365.07 2001.1,1364.91 2003.27,1364.75 2005.44,1364.59 2007.61,1364.42 2009.78,1364.25 2011.95,1364.08 2014.12,1363.91 2016.29,1363.73 2018.46,1363.55 2020.63,1363.37 2022.8,1363.18 2024.97,1363 2027.15,1362.81 2029.32,1362.62 2031.49,1362.42 2033.66,1362.22 2035.83,1362.02 2038,1361.81 2040.17,1361.6 2042.34,1361.39 2044.51,1361.17 2046.68,1360.95 2048.85,1360.72 2051.02,1360.49 2053.19,1360.26 2055.37,1360.02 2057.54,1359.78 2059.71,1359.53 2061.88,1359.28 2064.05,1359.03 2066.22,1358.77 2068.39,1358.5 2070.56,1358.23 2072.73,1357.95 2074.9,1357.67 2077.07,1357.38 2079.24,1357.09 2081.41,1356.79 2083.58,1356.48 2085.76,1356.16 2087.93,1355.84 2090.1,1355.51 2092.27,1355.18 2094.44,1354.83 2096.61,1354.48 2098.78,1354.12 2100.95,1353.75 2103.12,1353.37 2105.29,1352.98 2107.46,1352.59 2109.63,1352.18 2111.8,1351.76 2113.97,1351.33 2116.15,1350.89 2118.32,1350.43 2120.49,1349.97 2122.66,1349.49 2124.83,1348.99 2127,1348.48 2129.17,1347.96 2131.34,1347.42 2133.51,1346.87 2135.68,1346.29 2137.85,1345.7 2140.02,1345.09 2142.19,1344.46 2144.37,1343.81 2146.54,1343.14 2148.71,1342.44 2150.88,1341.71 2153.05,1340.96 2155.22,1340.18 2157.39,1339.38 2159.56,1338.54 2161.73,1337.66 2163.9,1336.76 2166.07,1335.81 2168.24,1334.82 2170.41,1333.79 2172.58,1332.72 2174.76,1331.59 2176.93,1330.42 2179.1,1329.18 2181.27,1327.89 2183.44,1326.54 2185.61,1325.12 2187.78,1323.62 2189.95,1322.03 2192.12,1320.36 2194.29,1318.6 2196.46,1316.72 2198.63,1314.74 2200.8,1312.63 2202.98,1310.39 2205.15,1307.99 2207.32,1305.43 2209.49,1302.69 2211.66,1299.75 2213.83,1296.59 2216,1293.18 2218.17,1289.5 2220.34,1285.5 2222.51,1281.15 2224.68,1276.4 2226.85,1271.2 2229.02,1265.5 2231.19,1259.18 2233.37,1252.18 2235.54,1244.41 2237.71,1235.75 2239.88,1226.04 2242.05,1215.07 2244.22,1202.63 2246.39,1188.44 2248.56,1172.21 2250.73,1153.55 2252.9,1132 2255.07,1107.07 2257.24,1078.25 2259.41,1044.99 2261.58,1006.95 2263.76,964.114 2265.93,917.152 2268.1,867.497 2270.27,817.716 2272.44,770.88 2274.61,730.005 2276.78,697.136 2278.95,672.84 2281.12,656.483 2283.29,646.713 2285.46,641.995 2287.63,640.959 2289.8,642.503 2291.98,645.812 2294.15,650.308 2296.32,655.591 2298.49,661.387 2300.66,667.511 2302.83,673.839 2305,680.288 2307.17,686.801 2309.34,693.338 2311.51,699.875 2313.68,706.394 2315.85,712.882 2318.02,719.332 2320.19,725.739 2322.37,732.098 2324.54,738.407 2326.71,744.665 2328.88,750.87 2331.05,757.023 2333.22,763.123 2335.39,769.169 2337.56,775.163 2339.73,781.104 2341.9,786.993 2344.07,792.83 2346.24,798.616 2348.41,804.351 2350.59,810.035 2352.76,815.67 "/>
<path clip-path="url(#clip780)" d="M2034.03 248.629 L2280.47 248.629 L2280.47 93.1086 L2034.03 93.1086  Z" fill="#ffffff" fill-rule="evenodd" fill-opacity="1"/>
<polyline clip-path="url(#clip780)" style="stroke:#000000; stroke-linecap:round; stroke-linejoin:round; stroke-width:4; stroke-opacity:1; fill:none" points="2034.03,248.629 2280.47,248.629 2280.47,93.1086 2034.03,93.1086 2034.03,248.629 "/>
<polyline clip-path="url(#clip780)" style="stroke:#009af9; stroke-linecap:round; stroke-linejoin:round; stroke-width:8; stroke-opacity:1; fill:none" points="2058.13,144.949 2202.7,144.949 "/>
<path clip-path="url(#clip780)" d="M2226.79 127.669 L2231.82 127.669 L2241.4 141.882 L2250.91 127.669 L2255.94 127.669 L2243.71 145.77 L2243.71 162.229 L2239.01 162.229 L2239.01 145.77 L2226.79 127.669 Z" fill="#000000" fill-rule="nonzero" fill-opacity="1" /><polyline clip-path="url(#clip780)" style="stroke:#e26f46; stroke-linecap:round; stroke-linejoin:round; stroke-width:8; stroke-opacity:1; fill:none" points="2058.13,196.789 2202.7,196.789 "/>
<path clip-path="url(#clip780)" d="M2228.37 179.509 L2233.39 179.509 L2241.98 192.356 L2250.61 179.509 L2255.63 179.509 L2244.52 196.106 L2256.38 214.069 L2251.35 214.069 L2241.63 199.37 L2231.84 214.069 L2226.79 214.069 L2239.13 195.62 L2228.37 179.509 Z" fill="#000000" fill-rule="nonzero" fill-opacity="1" /></svg>
