<?xml version="1.0" encoding="utf-8"?>
<svg xmlns="http://www.w3.org/2000/svg" xmlns:xlink="http://www.w3.org/1999/xlink" width="600" height="400" viewBox="0 0 2400 1600">
<defs>
  <clipPath id="clip490">
    <rect x="0" y="0" width="2400" height="1600"/>
  </clipPath>
</defs>
<path clip-path="url(#clip490)" d="M0 1600 L2400 1600 L2400 0 L0 0  Z" fill="#ffffff" fill-rule="evenodd" fill-opacity="1"/>
<defs>
  <clipPath id="clip491">
    <rect x="480" y="0" width="1681" height="1600"/>
  </clipPath>
</defs>
<path clip-path="url(#clip490)" d="M86.9921 1505.26 L2352.76 1505.26 L2352.76 47.2441 L86.9921 47.2441  Z" fill="#ffffff" fill-rule="evenodd" fill-opacity="1"/>
<defs>
  <clipPath id="clip492">
    <rect x="86" y="47" width="2267" height="1459"/>
  </clipPath>
</defs>
<polyline clip-path="url(#clip492)" style="stroke:#000000; stroke-linecap:round; stroke-linejoin:round; stroke-width:2; stroke-opacity:0.1; fill:none" points="86.9921,1505.26 86.9921,47.2441 "/>
<polyline clip-path="url(#clip492)" style="stroke:#000000; stroke-linecap:round; stroke-linejoin:round; stroke-width:2; stroke-opacity:0.1; fill:none" points="540.145,1505.26 540.145,47.2441 "/>
<polyline clip-path="url(#clip492)" style="stroke:#000000; stroke-linecap:round; stroke-linejoin:round; stroke-width:2; stroke-opacity:0.1; fill:none" points="993.298,1505.26 993.298,47.2441 "/>
<polyline clip-path="url(#clip492)" style="stroke:#000000; stroke-linecap:round; stroke-linejoin:round; stroke-width:2; stroke-opacity:0.1; fill:none" points="1446.45,1505.26 1446.45,47.2441 "/>
<polyline clip-path="url(#clip492)" style="stroke:#000000; stroke-linecap:round; stroke-linejoin:round; stroke-width:2; stroke-opacity:0.1; fill:none" points="1899.6,1505.26 1899.6,47.2441 "/>
<polyline clip-path="url(#clip492)" style="stroke:#000000; stroke-linecap:round; stroke-linejoin:round; stroke-width:2; stroke-opacity:0.1; fill:none" points="2352.76,1505.26 2352.76,47.2441 "/>
<polyline clip-path="url(#clip490)" style="stroke:#000000; stroke-linecap:round; stroke-linejoin:round; stroke-width:4; stroke-opacity:1; fill:none" points="86.9921,1505.26 2352.76,1505.26 "/>
<polyline clip-path="url(#clip490)" style="stroke:#000000; stroke-linecap:round; stroke-linejoin:round; stroke-width:4; stroke-opacity:1; fill:none" points="86.9921,1505.26 86.9921,1486.36 "/>
<polyline clip-path="url(#clip490)" style="stroke:#000000; stroke-linecap:round; stroke-linejoin:round; stroke-width:4; stroke-opacity:1; fill:none" points="540.145,1505.26 540.145,1486.36 "/>
<polyline clip-path="url(#clip490)" style="stroke:#000000; stroke-linecap:round; stroke-linejoin:round; stroke-width:4; stroke-opacity:1; fill:none" points="993.298,1505.26 993.298,1486.36 "/>
<polyline clip-path="url(#clip490)" style="stroke:#000000; stroke-linecap:round; stroke-linejoin:round; stroke-width:4; stroke-opacity:1; fill:none" points="1446.45,1505.26 1446.45,1486.36 "/>
<polyline clip-path="url(#clip490)" style="stroke:#000000; stroke-linecap:round; stroke-linejoin:round; stroke-width:4; stroke-opacity:1; fill:none" points="1899.6,1505.26 1899.6,1486.36 "/>
<polyline clip-path="url(#clip490)" style="stroke:#000000; stroke-linecap:round; stroke-linejoin:round; stroke-width:4; stroke-opacity:1; fill:none" points="2352.76,1505.26 2352.76,1486.36 "/>
<path clip-path="url(#clip490)" d="M86.9921 1536.18 Q83.381 1536.18 81.5523 1539.74 Q79.7468 1543.28 79.7468 1550.41 Q79.7468 1557.52 81.5523 1561.09 Q83.381 1564.63 86.9921 1564.63 Q90.6264 1564.63 92.4319 1561.09 Q94.2606 1557.52 94.2606 1550.41 Q94.2606 1543.28 92.4319 1539.74 Q90.6264 1536.18 86.9921 1536.18 M86.9921 1532.47 Q92.8023 1532.47 95.8578 1537.08 Q98.9365 1541.66 98.9365 1550.41 Q98.9365 1559.14 95.8578 1563.75 Q92.8023 1568.33 86.9921 1568.33 Q81.182 1568.33 78.1033 1563.75 Q75.0477 1559.14 75.0477 1550.41 Q75.0477 1541.66 78.1033 1537.08 Q81.182 1532.47 86.9921 1532.47 Z" fill="#000000" fill-rule="nonzero" fill-opacity="1" /><path clip-path="url(#clip490)" d="M534.798 1563.72 L551.117 1563.72 L551.117 1567.66 L529.173 1567.66 L529.173 1563.72 Q531.835 1560.97 536.418 1556.34 Q541.025 1551.69 542.205 1550.35 Q544.45 1547.82 545.33 1546.09 Q546.233 1544.33 546.233 1542.64 Q546.233 1539.88 544.288 1538.15 Q542.367 1536.41 539.265 1536.41 Q537.066 1536.41 534.613 1537.17 Q532.182 1537.94 529.404 1539.49 L529.404 1534.77 Q532.228 1533.63 534.682 1533.05 Q537.136 1532.47 539.173 1532.47 Q544.543 1532.47 547.737 1535.16 Q550.932 1537.85 550.932 1542.34 Q550.932 1544.47 550.122 1546.39 Q549.335 1548.28 547.228 1550.88 Q546.649 1551.55 543.548 1554.77 Q540.446 1557.96 534.798 1563.72 Z" fill="#000000" fill-rule="nonzero" fill-opacity="1" /><path clip-path="url(#clip490)" d="M996.307 1537.17 L984.501 1555.62 L996.307 1555.62 L996.307 1537.17 M995.08 1533.1 L1000.96 1533.1 L1000.96 1555.62 L1005.89 1555.62 L1005.89 1559.51 L1000.96 1559.51 L1000.96 1567.66 L996.307 1567.66 L996.307 1559.51 L980.705 1559.51 L980.705 1555 L995.08 1533.1 Z" fill="#000000" fill-rule="nonzero" fill-opacity="1" /><path clip-path="url(#clip490)" d="M1446.86 1548.52 Q1443.71 1548.52 1441.86 1550.67 Q1440.03 1552.82 1440.03 1556.57 Q1440.03 1560.3 1441.86 1562.47 Q1443.71 1564.63 1446.86 1564.63 Q1450 1564.63 1451.83 1562.47 Q1453.68 1560.3 1453.68 1556.57 Q1453.68 1552.82 1451.83 1550.67 Q1450 1548.52 1446.86 1548.52 M1456.14 1533.86 L1456.14 1538.12 Q1454.38 1537.29 1452.57 1536.85 Q1450.79 1536.41 1449.03 1536.41 Q1444.4 1536.41 1441.95 1539.53 Q1439.52 1542.66 1439.17 1548.98 Q1440.54 1546.97 1442.6 1545.9 Q1444.66 1544.81 1447.13 1544.81 Q1452.34 1544.81 1455.35 1547.98 Q1458.38 1551.13 1458.38 1556.57 Q1458.38 1561.9 1455.24 1565.11 Q1452.09 1568.33 1446.86 1568.33 Q1440.86 1568.33 1437.69 1563.75 Q1434.52 1559.14 1434.52 1550.41 Q1434.52 1542.22 1438.41 1537.36 Q1442.3 1532.47 1448.85 1532.47 Q1450.61 1532.47 1452.39 1532.82 Q1454.19 1533.17 1456.14 1533.86 Z" fill="#000000" fill-rule="nonzero" fill-opacity="1" /><path clip-path="url(#clip490)" d="M1899.6 1551.25 Q1896.27 1551.25 1894.35 1553.03 Q1892.45 1554.81 1892.45 1557.94 Q1892.45 1561.06 1894.35 1562.85 Q1896.27 1564.63 1899.6 1564.63 Q1902.94 1564.63 1904.86 1562.85 Q1906.78 1561.04 1906.78 1557.94 Q1906.78 1554.81 1904.86 1553.03 Q1902.96 1551.25 1899.6 1551.25 M1894.93 1549.26 Q1891.92 1548.52 1890.23 1546.46 Q1888.56 1544.4 1888.56 1541.43 Q1888.56 1537.29 1891.5 1534.88 Q1894.46 1532.47 1899.6 1532.47 Q1904.77 1532.47 1907.7 1534.88 Q1910.64 1537.29 1910.64 1541.43 Q1910.64 1544.4 1908.95 1546.46 Q1907.29 1548.52 1904.3 1549.26 Q1907.68 1550.04 1909.56 1552.34 Q1911.45 1554.63 1911.45 1557.94 Q1911.45 1562.96 1908.38 1565.65 Q1905.32 1568.33 1899.6 1568.33 Q1893.89 1568.33 1890.81 1565.65 Q1887.75 1562.96 1887.75 1557.94 Q1887.75 1554.63 1889.65 1552.34 Q1891.55 1550.04 1894.93 1549.26 M1893.21 1541.87 Q1893.21 1544.56 1894.88 1546.06 Q1896.57 1547.57 1899.6 1547.57 Q1902.61 1547.57 1904.3 1546.06 Q1906.02 1544.56 1906.02 1541.87 Q1906.02 1539.19 1904.3 1537.68 Q1902.61 1536.18 1899.6 1536.18 Q1896.57 1536.18 1894.88 1537.68 Q1893.21 1539.19 1893.21 1541.87 Z" fill="#000000" fill-rule="nonzero" fill-opacity="1" /><path clip-path="url(#clip490)" d="M2327.44 1563.72 L2335.08 1563.72 L2335.08 1537.36 L2326.77 1539.03 L2326.77 1534.77 L2335.04 1533.1 L2339.71 1533.1 L2339.71 1563.72 L2347.35 1563.72 L2347.35 1567.66 L2327.44 1567.66 L2327.44 1563.72 Z" fill="#000000" fill-rule="nonzero" fill-opacity="1" /><path clip-path="url(#clip490)" d="M2366.8 1536.18 Q2363.18 1536.18 2361.36 1539.74 Q2359.55 1543.28 2359.55 1550.41 Q2359.55 1557.52 2361.36 1561.09 Q2363.18 1564.63 2366.8 1564.63 Q2370.43 1564.63 2372.23 1561.09 Q2374.06 1557.52 2374.06 1550.41 Q2374.06 1543.28 2372.23 1539.74 Q2370.43 1536.18 2366.8 1536.18 M2366.8 1532.47 Q2372.61 1532.47 2375.66 1537.08 Q2378.74 1541.66 2378.74 1550.41 Q2378.74 1559.14 2375.66 1563.75 Q2372.61 1568.33 2366.8 1568.33 Q2360.99 1568.33 2357.91 1563.75 Q2354.85 1559.14 2354.85 1550.41 Q2354.85 1541.66 2357.91 1537.08 Q2360.99 1532.47 2366.8 1532.47 Z" fill="#000000" fill-rule="nonzero" fill-opacity="1" /><path clip-path="url(#clip490)" d="M1218.94 1604.35 L1218.94 1614.48 L1231 1614.48 L1231 1619.03 L1218.94 1619.03 L1218.94 1638.38 Q1218.94 1642.74 1220.11 1643.98 Q1221.32 1645.22 1224.98 1645.22 L1231 1645.22 L1231 1650.12 L1224.98 1650.12 Q1218.2 1650.12 1215.62 1647.61 Q1213.05 1645.06 1213.05 1638.38 L1213.05 1619.03 L1208.75 1619.03 L1208.75 1614.48 L1213.05 1614.48 L1213.05 1604.35 L1218.94 1604.35 Z" fill="#000000" fill-rule="nonzero" fill-opacity="1" /><polyline clip-path="url(#clip492)" style="stroke:#000000; stroke-linecap:round; stroke-linejoin:round; stroke-width:2; stroke-opacity:0.1; fill:none" points="86.9921,1496.43 2352.76,1496.43 "/>
<polyline clip-path="url(#clip492)" style="stroke:#000000; stroke-linecap:round; stroke-linejoin:round; stroke-width:2; stroke-opacity:0.1; fill:none" points="86.9921,1177.62 2352.76,1177.62 "/>
<polyline clip-path="url(#clip492)" style="stroke:#000000; stroke-linecap:round; stroke-linejoin:round; stroke-width:2; stroke-opacity:0.1; fill:none" points="86.9921,858.805 2352.76,858.805 "/>
<polyline clip-path="url(#clip492)" style="stroke:#000000; stroke-linecap:round; stroke-linejoin:round; stroke-width:2; stroke-opacity:0.1; fill:none" points="86.9921,539.994 2352.76,539.994 "/>
<polyline clip-path="url(#clip492)" style="stroke:#000000; stroke-linecap:round; stroke-linejoin:round; stroke-width:2; stroke-opacity:0.1; fill:none" points="86.9921,221.182 2352.76,221.182 "/>
<polyline clip-path="url(#clip490)" style="stroke:#000000; stroke-linecap:round; stroke-linejoin:round; stroke-width:4; stroke-opacity:1; fill:none" points="86.9921,1505.26 86.9921,47.2441 "/>
<polyline clip-path="url(#clip490)" style="stroke:#000000; stroke-linecap:round; stroke-linejoin:round; stroke-width:4; stroke-opacity:1; fill:none" points="86.9921,1496.43 105.89,1496.43 "/>
<polyline clip-path="url(#clip490)" style="stroke:#000000; stroke-linecap:round; stroke-linejoin:round; stroke-width:4; stroke-opacity:1; fill:none" points="86.9921,1177.62 105.89,1177.62 "/>
<polyline clip-path="url(#clip490)" style="stroke:#000000; stroke-linecap:round; stroke-linejoin:round; stroke-width:4; stroke-opacity:1; fill:none" points="86.9921,858.805 105.89,858.805 "/>
<polyline clip-path="url(#clip490)" style="stroke:#000000; stroke-linecap:round; stroke-linejoin:round; stroke-width:4; stroke-opacity:1; fill:none" points="86.9921,539.994 105.89,539.994 "/>
<polyline clip-path="url(#clip490)" style="stroke:#000000; stroke-linecap:round; stroke-linejoin:round; stroke-width:4; stroke-opacity:1; fill:none" points="86.9921,221.182 105.89,221.182 "/>
<path clip-path="url(#clip490)" d="M-6.18349 1482.23 Q-9.79459 1482.23 -11.6233 1485.79 Q-13.4288 1489.33 -13.4288 1496.46 Q-13.4288 1503.57 -11.6233 1507.13 Q-9.79459 1510.68 -6.18349 1510.68 Q-2.54925 1510.68 -0.743708 1507.13 Q1.08499 1503.57 1.08499 1496.46 Q1.08499 1489.33 -0.743708 1485.79 Q-2.54925 1482.23 -6.18349 1482.23 M-6.18349 1478.52 Q-0.37334 1478.52 2.6822 1483.13 Q5.76089 1487.71 5.76089 1496.46 Q5.76089 1505.19 2.6822 1509.8 Q-0.37334 1514.38 -6.18349 1514.38 Q-11.9936 1514.38 -15.0723 1509.8 Q-18.1279 1505.19 -18.1279 1496.46 Q-18.1279 1487.71 -15.0723 1483.13 Q-11.9936 1478.52 -6.18349 1478.52 Z" fill="#000000" fill-rule="nonzero" fill-opacity="1" /><path clip-path="url(#clip490)" d="M13.9784 1507.83 L18.8627 1507.83 L18.8627 1513.71 L13.9784 1513.71 L13.9784 1507.83 Z" fill="#000000" fill-rule="nonzero" fill-opacity="1" /><path clip-path="url(#clip490)" d="M39.0477 1482.23 Q35.4367 1482.23 33.608 1485.79 Q31.8024 1489.33 31.8024 1496.46 Q31.8024 1503.57 33.608 1507.13 Q35.4367 1510.68 39.0477 1510.68 Q42.682 1510.68 44.4875 1507.13 Q46.3162 1503.57 46.3162 1496.46 Q46.3162 1489.33 44.4875 1485.79 Q42.682 1482.23 39.0477 1482.23 M39.0477 1478.52 Q44.8579 1478.52 47.9134 1483.13 Q50.9921 1487.71 50.9921 1496.46 Q50.9921 1505.19 47.9134 1509.8 Q44.8579 1514.38 39.0477 1514.38 Q33.2376 1514.38 30.1589 1509.8 Q27.1034 1505.19 27.1034 1496.46 Q27.1034 1487.71 30.1589 1483.13 Q33.2376 1478.52 39.0477 1478.52 Z" fill="#000000" fill-rule="nonzero" fill-opacity="1" /><path clip-path="url(#clip490)" d="M-11.1603 1190.96 L5.15904 1190.96 L5.15904 1194.9 L-16.7853 1194.9 L-16.7853 1190.96 Q-14.1233 1188.21 -9.53996 1183.58 Q-4.9335 1178.92 -3.75295 1177.58 Q-1.50759 1175.06 -0.627968 1173.32 Q0.274805 1171.56 0.274805 1169.87 Q0.274805 1167.12 -1.66963 1165.38 Q-3.59091 1163.65 -6.69275 1163.65 Q-8.89181 1163.65 -11.3455 1164.41 Q-13.776 1165.17 -16.5538 1166.73 L-16.5538 1162 Q-13.7297 1160.87 -11.2761 1160.29 Q-8.82237 1159.71 -6.78534 1159.71 Q-1.415 1159.71 1.77943 1162.4 Q4.97385 1165.08 4.97385 1169.57 Q4.97385 1171.7 4.16367 1173.62 Q3.37664 1175.52 1.27017 1178.11 Q0.69147 1178.79 -2.41037 1182 Q-5.5122 1185.2 -11.1603 1190.96 Z" fill="#000000" fill-rule="nonzero" fill-opacity="1" /><path clip-path="url(#clip490)" d="M14.9738 1189.02 L19.858 1189.02 L19.858 1194.9 L14.9738 1194.9 L14.9738 1189.02 Z" fill="#000000" fill-rule="nonzero" fill-opacity="1" /><path clip-path="url(#clip490)" d="M30.0895 1160.34 L48.4458 1160.34 L48.4458 1164.27 L34.3718 1164.27 L34.3718 1172.74 Q35.3904 1172.4 36.4089 1172.24 Q37.4274 1172.05 38.4459 1172.05 Q44.2329 1172.05 47.6125 1175.22 Q50.9921 1178.39 50.9921 1183.81 Q50.9921 1189.39 47.5199 1192.49 Q44.0477 1195.57 37.7283 1195.57 Q35.5524 1195.57 33.2839 1195.2 Q31.0385 1194.83 28.6311 1194.09 L28.6311 1189.39 Q30.7145 1190.52 32.9367 1191.08 Q35.1589 1191.63 37.6357 1191.63 Q41.6403 1191.63 43.9783 1189.53 Q46.3162 1187.42 46.3162 1183.81 Q46.3162 1180.2 43.9783 1178.09 Q41.6403 1175.99 37.6357 1175.99 Q35.7607 1175.99 33.8857 1176.4 Q32.0339 1176.82 30.0895 1177.7 L30.0895 1160.34 Z" fill="#000000" fill-rule="nonzero" fill-opacity="1" /><path clip-path="url(#clip490)" d="M-16.1371 841.525 L2.21924 841.525 L2.21924 845.461 L-11.8548 845.461 L-11.8548 853.933 Q-10.8362 853.586 -9.81773 853.423 Q-8.79922 853.238 -7.78071 853.238 Q-1.9937 853.238 1.38591 856.41 Q4.76552 859.581 4.76552 864.997 Q4.76552 870.576 1.29332 873.678 Q-2.17889 876.757 -8.4983 876.757 Q-10.6742 876.757 -12.9427 876.386 Q-15.1881 876.016 -17.5955 875.275 L-17.5955 870.576 Q-15.5121 871.71 -13.2899 872.266 Q-11.0677 872.822 -8.59089 872.822 Q-4.58628 872.822 -2.24833 870.715 Q0.089621 868.609 0.089621 864.997 Q0.089621 861.386 -2.24833 859.28 Q-4.58628 857.173 -8.59089 857.173 Q-10.4659 857.173 -12.3409 857.59 Q-14.1927 858.007 -16.1371 858.886 L-16.1371 841.525 Z" fill="#000000" fill-rule="nonzero" fill-opacity="1" /><path clip-path="url(#clip490)" d="M13.9784 870.206 L18.8627 870.206 L18.8627 876.085 L13.9784 876.085 L13.9784 870.206 Z" fill="#000000" fill-rule="nonzero" fill-opacity="1" /><path clip-path="url(#clip490)" d="M39.0477 844.604 Q35.4367 844.604 33.608 848.169 Q31.8024 851.711 31.8024 858.84 Q31.8024 865.947 33.608 869.511 Q35.4367 873.053 39.0477 873.053 Q42.682 873.053 44.4875 869.511 Q46.3162 865.947 46.3162 858.84 Q46.3162 851.711 44.4875 848.169 Q42.682 844.604 39.0477 844.604 M39.0477 840.9 Q44.8579 840.9 47.9134 845.507 Q50.9921 850.09 50.9921 858.84 Q50.9921 867.567 47.9134 872.173 Q44.8579 876.757 39.0477 876.757 Q33.2376 876.757 30.1589 872.173 Q27.1034 867.567 27.1034 858.84 Q27.1034 850.09 30.1589 845.507 Q33.2376 840.9 39.0477 840.9 Z" fill="#000000" fill-rule="nonzero" fill-opacity="1" /><path clip-path="url(#clip490)" d="M-16.3686 522.714 L5.85348 522.714 L5.85348 524.704 L-6.69275 557.274 L-11.577 557.274 L0.228509 526.649 L-16.3686 526.649 L-16.3686 522.714 Z" fill="#000000" fill-rule="nonzero" fill-opacity="1" /><path clip-path="url(#clip490)" d="M14.9738 551.394 L19.858 551.394 L19.858 557.274 L14.9738 557.274 L14.9738 551.394 Z" fill="#000000" fill-rule="nonzero" fill-opacity="1" /><path clip-path="url(#clip490)" d="M30.0895 522.714 L48.4458 522.714 L48.4458 526.649 L34.3718 526.649 L34.3718 535.121 Q35.3904 534.774 36.4089 534.612 Q37.4274 534.427 38.4459 534.427 Q44.2329 534.427 47.6125 537.598 Q50.9921 540.769 50.9921 546.186 Q50.9921 551.765 47.5199 554.866 Q44.0477 557.945 37.7283 557.945 Q35.5524 557.945 33.2839 557.575 Q31.0385 557.204 28.6311 556.464 L28.6311 551.765 Q30.7145 552.899 32.9367 553.454 Q35.1589 554.01 37.6357 554.01 Q41.6403 554.01 43.9783 551.903 Q46.3162 549.797 46.3162 546.186 Q46.3162 542.575 43.9783 540.468 Q41.6403 538.362 37.6357 538.362 Q35.7607 538.362 33.8857 538.778 Q32.0339 539.195 30.0895 540.075 L30.0895 522.714 Z" fill="#000000" fill-rule="nonzero" fill-opacity="1" /><path clip-path="url(#clip490)" d="M-45.5351 234.527 L-37.8963 234.527 L-37.8963 208.161 L-46.2064 209.828 L-46.2064 205.569 L-37.9426 203.902 L-33.2667 203.902 L-33.2667 234.527 L-25.6278 234.527 L-25.6278 238.462 L-45.5351 238.462 L-45.5351 234.527 Z" fill="#000000" fill-rule="nonzero" fill-opacity="1" /><path clip-path="url(#clip490)" d="M-6.18349 206.981 Q-9.79459 206.981 -11.6233 210.546 Q-13.4288 214.087 -13.4288 221.217 Q-13.4288 228.323 -11.6233 231.888 Q-9.79459 235.43 -6.18349 235.43 Q-2.54925 235.43 -0.743708 231.888 Q1.08499 228.323 1.08499 221.217 Q1.08499 214.087 -0.743708 210.546 Q-2.54925 206.981 -6.18349 206.981 M-6.18349 203.277 Q-0.37334 203.277 2.6822 207.884 Q5.76089 212.467 5.76089 221.217 Q5.76089 229.944 2.6822 234.55 Q-0.37334 239.133 -6.18349 239.133 Q-11.9936 239.133 -15.0723 234.55 Q-18.1279 229.944 -18.1279 221.217 Q-18.1279 212.467 -15.0723 207.884 Q-11.9936 203.277 -6.18349 203.277 Z" fill="#000000" fill-rule="nonzero" fill-opacity="1" /><path clip-path="url(#clip490)" d="M13.9784 232.582 L18.8627 232.582 L18.8627 238.462 L13.9784 238.462 L13.9784 232.582 Z" fill="#000000" fill-rule="nonzero" fill-opacity="1" /><path clip-path="url(#clip490)" d="M39.0477 206.981 Q35.4367 206.981 33.608 210.546 Q31.8024 214.087 31.8024 221.217 Q31.8024 228.323 33.608 231.888 Q35.4367 235.43 39.0477 235.43 Q42.682 235.43 44.4875 231.888 Q46.3162 228.323 46.3162 221.217 Q46.3162 214.087 44.4875 210.546 Q42.682 206.981 39.0477 206.981 M39.0477 203.277 Q44.8579 203.277 47.9134 207.884 Q50.9921 212.467 50.9921 221.217 Q50.9921 229.944 47.9134 234.55 Q44.8579 239.133 39.0477 239.133 Q33.2376 239.133 30.1589 234.55 Q27.1034 229.944 27.1034 221.217 Q27.1034 212.467 30.1589 207.884 Q33.2376 203.277 39.0477 203.277 Z" fill="#000000" fill-rule="nonzero" fill-opacity="1" /><polyline clip-path="url(#clip492)" style="stroke:#009af9; stroke-linecap:round; stroke-linejoin:round; stroke-width:8; stroke-opacity:1; fill:none" points="86.9921,221.182 89.2602,269.451 91.5282,337.714 93.7962,438.252 96.0643,590.417 98.3323,812.911 100.6,1081.41 102.868,1294.49 105.136,1398.03 107.404,1434.45 109.672,1445.57 111.94,1448.67 114.209,1449.33 116.477,1449.23 118.745,1448.91 121.013,1448.5 123.281,1448.07 125.549,1447.62 127.817,1447.17 130.085,1446.72 132.353,1446.26 134.621,1445.79 136.889,1445.32 139.157,1444.85 141.425,1444.37 143.693,1443.89 145.961,1443.41 148.229,1442.92 150.497,1442.43 152.765,1441.93 155.033,1441.43 157.301,1440.92 159.569,1440.41 161.837,1439.9 164.105,1439.38 166.373,1438.86 168.641,1438.33 170.909,1437.8 173.177,1437.26 175.445,1436.72 177.713,1436.17 179.981,1435.62 182.249,1435.07 184.517,1434.51 186.786,1433.94 189.054,1433.38 191.322,1432.8 193.59,1432.22 195.858,1431.64 198.126,1431.05 200.394,1430.46 202.662,1429.86 204.93,1429.25 207.198,1428.65 209.466,1428.03 211.734,1427.41 214.002,1426.79 216.27,1426.16 218.538,1425.53 220.806,1424.89 223.074,1424.24 225.342,1423.59 227.61,1422.94 229.878,1422.27 232.146,1421.61 234.414,1420.94 236.682,1420.26 238.95,1419.57 241.218,1418.89 243.486,1418.19 245.754,1417.49 248.022,1416.78 250.29,1416.07 252.558,1415.35 254.826,1414.63 257.095,1413.9 259.363,1413.17 261.631,1412.42 263.899,1411.68 266.167,1410.92 268.435,1410.16 270.703,1409.4 272.971,1408.62 275.239,1407.84 277.507,1407.06 279.775,1406.27 282.043,1405.47 284.311,1404.67 286.579,1403.85 288.847,1403.04 291.115,1402.21 293.383,1401.38 295.651,1400.54 297.919,1399.7 300.187,1398.85 302.455,1397.99 304.723,1397.13 306.991,1396.25 309.259,1395.37 311.527,1394.49 313.795,1393.59 316.063,1392.69 318.331,1391.79 320.599,1390.87 322.867,1389.95 325.135,1389.02 327.403,1388.08 329.672,1387.14 331.94,1386.18 334.208,1385.22 336.476,1384.26 338.744,1383.28 341.012,1382.3 343.28,1381.31 345.548,1380.31 347.816,1379.3 350.084,1378.28 352.352,1377.26 354.62,1376.23 356.888,1375.19 359.156,1374.14 361.424,1373.09 363.692,1372.02 365.96,1370.95 368.228,1369.87 370.496,1368.78 372.764,1367.68 375.032,1366.57 377.3,1365.45 379.568,1364.33 381.836,1363.19 384.104,1362.05 386.372,1360.9 388.64,1359.74 390.908,1358.57 393.176,1357.39 395.444,1356.2 397.712,1355 399.981,1353.79 402.249,1352.58 404.517,1351.35 406.785,1350.11 409.053,1348.87 411.321,1347.61 413.589,1346.35 415.857,1345.07 418.125,1343.79 420.393,1342.49 422.661,1341.19 424.929,1339.87 427.197,1338.55 429.465,1337.21 431.733,1335.87 434.001,1334.51 436.269,1333.15 438.537,1331.77 440.805,1330.38 443.073,1328.99 445.341,1327.58 447.609,1326.16 449.877,1324.73 452.145,1323.29 454.413,1321.84 456.681,1320.38 458.949,1318.91 461.217,1317.42 463.485,1315.93 465.753,1314.42 468.021,1312.91 470.29,1311.38 472.558,1309.84 474.826,1308.29 477.094,1306.73 479.362,1305.16 481.63,1303.58 483.898,1301.99 486.166,1300.38 488.434,1298.77 490.702,1297.14 492.97,1295.5 495.238,1293.85 497.506,1292.19 499.774,1290.52 502.042,1288.84 504.31,1287.15 506.578,1285.45 508.846,1283.73 511.114,1282.01 513.382,1280.27 515.65,1278.52 517.918,1276.77 520.186,1275 522.454,1273.22 524.722,1271.43 526.99,1269.63 529.258,1267.82 531.526,1266 533.794,1264.18 536.062,1262.34 538.33,1260.49 540.598,1258.63 542.867,1256.77 545.135,1254.89 547.403,1253 549.671,1251.11 551.939,1249.21 554.207,1247.3 556.475,1245.38 558.743,1243.46 561.011,1241.52 563.279,1239.58 565.547,1237.63 567.815,1235.68 570.083,1233.72 572.351,1231.75 574.619,1229.78 576.887,1227.8 579.155,1225.81 581.423,1223.83 583.691,1221.83 585.959,1219.83 588.227,1217.83 590.495,1215.83 592.763,1213.82 595.031,1211.81 597.299,1209.8 599.567,1207.78 601.835,1205.76 604.103,1203.75 606.371,1201.73 608.639,1199.71 610.907,1197.69 613.176,1195.67 615.444,1193.66 617.712,1191.64 619.98,1189.63 622.248,1187.62 624.516,1185.61 626.784,1183.61 629.052,1181.61 631.32,1179.61 633.588,1177.62 635.856,1175.63 638.124,1173.65 640.392,1171.67 642.66,1169.7 644.928,1167.74 647.196,1165.78 649.464,1163.83 651.732,1161.89 654,1159.96 656.268,1158.03 658.536,1156.12 660.804,1154.21 663.072,1152.32 665.34,1150.43 667.608,1148.55 669.876,1146.69 672.144,1144.83 674.412,1142.98 676.68,1141.15 678.948,1139.33 681.216,1137.52 683.484,1135.72 685.753,1133.93 688.021,1132.16 690.289,1130.4 692.557,1128.65 694.825,1126.91 697.093,1125.19 699.361,1123.47 701.629,1121.78 703.897,1120.09 706.165,1118.42 708.433,1116.76 710.701,1115.11 712.969,1113.48 715.237,1111.86 717.505,1110.25 719.773,1108.66 722.041,1107.07 724.309,1105.51 726.577,1103.95 728.845,1102.41 731.113,1100.88 733.381,1099.36 735.649,1097.85 737.917,1096.36 740.185,1094.88 742.453,1093.41 744.721,1091.95 746.989,1090.51 749.257,1089.08 751.525,1087.66 753.793,1086.25 756.062,1084.85 758.33,1083.46 760.598,1082.08 762.866,1080.72 765.134,1079.36 767.402,1078.01 769.67,1076.68 771.938,1075.35 774.206,1074.04 776.474,1072.73 778.742,1071.44 781.01,1070.15 783.278,1068.87 785.546,1067.6 787.814,1066.34 790.082,1065.09 792.35,1063.85 794.618,1062.61 796.886,1061.39 799.154,1060.17 801.422,1058.96 803.69,1057.75 805.958,1056.56 808.226,1055.37 810.494,1054.18 812.762,1053.01 815.03,1051.84 817.298,1050.67 819.566,1049.52 821.834,1048.37 824.102,1047.22 826.37,1046.08 828.639,1044.95 830.907,1043.82 833.175,1042.7 835.443,1041.58 837.711,1040.47 839.979,1039.36 842.247,1038.26 844.515,1037.16 846.783,1036.07 849.051,1034.98 851.319,1033.89 853.587,1032.81 855.855,1031.74 858.123,1030.67 860.391,1029.6 862.659,1028.53 864.927,1027.47 867.195,1026.41 869.463,1025.36 871.731,1024.31 873.999,1023.26 876.267,1022.22 878.535,1021.18 880.803,1020.14 883.071,1019.1 885.339,1018.07 887.607,1017.04 889.875,1016.01 892.143,1014.99 894.411,1013.97 896.679,1012.95 898.948,1011.93 901.216,1010.91 903.484,1009.9 905.752,1008.89 908.02,1007.88 910.288,1006.88 912.556,1005.87 914.824,1004.87 917.092,1003.87 919.36,1002.87 921.628,1001.87 923.896,1000.88 926.164,999.884 928.432,998.892 930.7,997.901 932.968,996.913 935.236,995.925 937.504,994.939 939.772,993.955 942.04,992.972 944.308,991.99 946.576,991.01 948.844,990.03 951.112,989.052 953.38,988.076 955.648,987.1 957.916,986.126 960.184,985.152 962.452,984.18 964.72,983.209 966.988,982.239 969.257,981.27 971.525,980.302 973.793,979.335 976.061,978.369 978.329,977.404 980.597,976.44 982.865,975.477 985.133,974.514 987.401,973.552 989.669,972.591 991.937,971.631 994.205,970.672 996.473,969.714 998.741,968.756 1001.01,967.799 1003.28,966.842 1005.55,965.887 1007.81,964.932 1010.08,963.977 1012.35,963.024 1014.62,962.071 1016.89,961.119 1019.15,960.167 1021.42,959.216 1023.69,958.265 1025.96,957.315 1028.23,956.366 1030.49,955.417 1032.76,954.469 1035.03,953.521 1037.3,952.574 1039.57,951.627 1041.83,950.681 1044.1,949.736 1046.37,948.791 1048.64,947.846 1050.91,946.902 1053.17,945.958 1055.44,945.015 1057.71,944.072 1059.98,943.13 1062.25,942.188 1064.51,941.247 1066.78,940.306 1069.05,939.366 1071.32,938.426 1073.59,937.486 1075.85,936.547 1078.12,935.608 1080.39,934.67 1082.66,933.732 1084.93,932.794 1087.19,931.857 1089.46,930.92 1091.73,929.984 1094,929.048 1096.27,928.112 1098.53,927.177 1100.8,926.242 1103.07,925.308 1105.34,924.374 1107.61,923.44 1109.87,922.507 1112.14,921.574 1114.41,920.641 1116.68,919.709 1118.95,918.777 1121.21,917.845 1123.48,916.914 1125.75,915.983 1128.02,915.053 1130.29,914.123 1132.55,913.193 1134.82,912.263 1137.09,911.334 1139.36,910.405 1141.63,909.477 1143.89,908.549 1146.16,907.621 1148.43,906.694 1150.7,905.767 1152.97,904.84 1155.24,903.913 1157.5,902.987 1159.77,902.061 1162.04,901.136 1164.31,900.211 1166.58,899.286 1168.84,898.362 1171.11,897.437 1173.38,896.514 1175.65,895.59 1177.92,894.667 1180.18,893.744 1182.45,892.822 1184.72,891.899 1186.99,890.978 1189.26,890.056 1191.52,889.135 1193.79,888.214 1196.06,887.293 1198.33,886.373 1200.6,885.453 1202.86,884.534 1205.13,883.614 1207.4,882.695 1209.67,881.777 1211.94,880.858 1214.2,879.94 1216.47,879.023 1218.74,878.105 1221.01,877.188 1223.28,876.272 1225.54,875.355 1227.81,874.439 1230.08,873.524 1232.35,872.608 1234.62,871.693 1236.88,870.778 1239.15,869.864 1241.42,868.95 1243.69,868.036 1245.96,867.123 1248.22,866.21 1250.49,865.297 1252.76,864.385 1255.03,863.473 1257.3,862.561 1259.56,861.649 1261.83,860.738 1264.1,859.828 1266.37,858.917 1268.64,858.007 1270.9,857.097 1273.17,856.188 1275.44,855.279 1277.71,854.37 1279.98,853.462 1282.24,852.554 1284.51,851.646 1286.78,850.739 1289.05,849.832 1291.32,848.925 1293.59,848.019 1295.85,847.113 1298.12,846.207 1300.39,845.302 1302.66,844.397 1304.93,843.493 1307.19,842.588 1309.46,841.685 1311.73,840.781 1314,839.878 1316.27,838.975 1318.53,838.073 1320.8,837.171 1323.07,836.269 1325.34,835.368 1327.61,834.467 1329.87,833.566 1332.14,832.666 1334.41,831.766 1336.68,830.866 1338.95,829.967 1341.21,829.069 1343.48,828.17 1345.75,827.272 1348.02,826.374 1350.29,825.477 1352.55,824.58 1354.82,823.684 1357.09,822.788 1359.36,821.892 1361.63,820.996 1363.89,820.101 1366.16,819.207 1368.43,818.313 1370.7,817.419 1372.97,816.525 1375.23,815.632 1377.5,814.74 1379.77,813.848 1382.04,812.956 1384.31,812.064 1386.57,811.173 1388.84,810.283 1391.11,809.392 1393.38,808.502 1395.65,807.613 1397.91,806.724 1400.18,805.835 1402.45,804.947 1404.72,804.059 1406.99,803.172 1409.25,802.285 1411.52,801.399 1413.79,800.512 1416.06,799.627 1418.33,798.741 1420.59,797.857 1422.86,796.972 1425.13,796.088 1427.4,795.205 1429.67,794.321 1431.93,793.439 1434.2,792.557 1436.47,791.675 1438.74,790.793 1441.01,789.912 1443.28,789.032 1445.54,788.152 1447.81,787.272 1450.08,786.393 1452.35,785.514 1454.62,784.636 1456.88,783.758 1459.15,782.881 1461.42,782.004 1463.69,781.128 1465.96,780.252 1468.22,779.376 1470.49,778.501 1472.76,777.627 1475.03,776.753 1477.3,775.879 1479.56,775.006 1481.83,774.134 1484.1,773.261 1486.37,772.39 1488.64,771.519 1490.9,770.648 1493.17,769.778 1495.44,768.908 1497.71,768.039 1499.98,767.17 1502.24,766.302 1504.51,765.435 1506.78,764.567 1509.05,763.701 1511.32,762.835 1513.58,761.969 1515.85,761.104 1518.12,760.239 1520.39,759.375 1522.66,758.512 1524.92,757.649 1527.19,756.786 1529.46,755.924 1531.73,755.063 1534,754.202 1536.26,753.342 1538.53,752.482 1540.8,751.623 1543.07,750.764 1545.34,749.906 1547.6,749.049 1549.87,748.192 1552.14,747.336 1554.41,746.48 1556.68,745.625 1558.94,744.77 1561.21,743.916 1563.48,743.062 1565.75,742.21 1568.02,741.357 1570.28,740.506 1572.55,739.655 1574.82,738.804 1577.09,737.954 1579.36,737.105 1581.63,736.256 1583.89,735.408 1586.16,734.561 1588.43,733.714 1590.7,732.868 1592.97,732.022 1595.23,731.177 1597.5,730.333 1599.77,729.489 1602.04,728.646 1604.31,727.804 1606.57,726.962 1608.84,726.121 1611.11,725.281 1613.38,724.441 1615.65,723.602 1617.91,722.764 1620.18,721.926 1622.45,721.089 1624.72,720.252 1626.99,719.417 1629.25,718.582 1631.52,717.748 1633.79,716.914 1636.06,716.081 1638.33,715.249 1640.59,714.418 1642.86,713.587 1645.13,712.757 1647.4,711.928 1649.67,711.099 1651.93,710.272 1654.2,709.445 1656.47,708.618 1658.74,707.793 1661.01,706.968 1663.27,706.144 1665.54,705.321 1667.81,704.499 1670.08,703.677 1672.35,702.856 1674.61,702.036 1676.88,701.217 1679.15,700.399 1681.42,699.581 1683.69,698.765 1685.95,697.949 1688.22,697.134 1690.49,696.319 1692.76,695.506 1695.03,694.694 1697.29,693.882 1699.56,693.071 1701.83,692.261 1704.1,691.452 1706.37,690.644 1708.63,689.836 1710.9,689.03 1713.17,688.224 1715.44,687.42 1717.71,686.616 1719.98,685.813 1722.24,685.011 1724.51,684.211 1726.78,683.411 1729.05,682.612 1731.32,681.814 1733.58,681.017 1735.85,680.222 1738.12,679.427 1740.39,678.633 1742.66,677.84 1744.92,677.048 1747.19,676.258 1749.46,675.468 1751.73,674.679 1754,673.892 1756.26,673.105 1758.53,672.319 1760.8,671.535 1763.07,670.752 1765.34,669.97 1767.6,669.188 1769.87,668.409 1772.14,667.63 1774.41,666.852 1776.68,666.075 1778.94,665.3 1781.21,664.526 1783.48,663.753 1785.75,662.981 1788.02,662.21 1790.28,661.441 1792.55,660.673 1794.82,659.906 1797.09,659.14 1799.36,658.376 1801.62,657.613 1803.89,656.851 1806.16,656.091 1808.43,655.331 1810.7,654.574 1812.96,653.817 1815.23,653.062 1817.5,652.308 1819.77,651.556 1822.04,650.805 1824.3,650.056 1826.57,649.308 1828.84,648.562 1831.11,647.817 1833.38,647.073 1835.64,646.331 1837.91,645.591 1840.18,644.852 1842.45,644.115 1844.72,643.379 1846.98,642.645 1849.25,641.912 1851.52,641.182 1853.79,640.453 1856.06,639.725 1858.32,638.999 1860.59,638.275 1862.86,637.553 1865.13,636.833 1867.4,636.114 1869.67,635.397 1871.93,634.682 1874.2,633.969 1876.47,633.258 1878.74,632.548 1881.01,631.841 1883.27,631.135 1885.54,630.432 1887.81,629.729 1890.08,629.029 1892.35,628.332 1894.61,627.636 1896.88,626.942 1899.15,626.251 1901.42,625.562 1903.69,624.875 1905.95,624.191 1908.22,623.508 1910.49,622.828 1912.76,622.151 1915.03,621.475 1917.29,620.803 1919.56,620.132 1921.83,619.464 1924.1,618.799 1926.37,618.136 1928.63,617.475 1930.9,616.818 1933.17,616.163 1935.44,615.51 1937.71,614.861 1939.97,614.214 1942.24,613.57 1944.51,612.929 1946.78,612.29 1949.05,611.655 1951.31,611.023 1953.58,610.394 1955.85,609.768 1958.12,609.145 1960.39,608.526 1962.65,607.91 1964.92,607.297 1967.19,606.688 1969.46,606.082 1971.73,605.48 1973.99,604.882 1976.26,604.287 1978.53,603.696 1980.8,603.109 1983.07,602.526 1985.33,601.947 1987.6,601.373 1989.87,600.802 1992.14,600.236 1994.41,599.674 1996.67,599.116 1998.94,598.563 2001.21,598.015 2003.48,597.471 2005.75,596.932 2008.02,596.398 2010.28,595.869 2012.55,595.344 2014.82,594.825 2017.09,594.312 2019.36,593.804 2021.62,593.302 2023.89,592.806 2026.16,592.316 2028.43,591.832 2030.7,591.354 2032.96,590.882 2035.23,590.417 2037.5,589.959 2039.77,589.507 2042.04,589.063 2044.3,588.625 2046.57,588.195 2048.84,587.772 2051.11,587.357 2053.38,586.951 2055.64,586.552 2057.91,586.162 2060.18,585.781 2062.45,585.408 2064.72,585.045 2066.98,584.692 2069.25,584.348 2071.52,584.015 2073.79,583.693 2076.06,583.381 2078.32,583.08 2080.59,582.792 2082.86,582.515 2085.13,582.25 2087.4,581.998 2089.66,581.76 2091.93,581.535 2094.2,581.324 2096.47,581.127 2098.74,580.944 2101,580.778 2103.27,580.628 2105.54,580.497 2107.81,580.382 2110.08,580.287 2112.34,580.21 2114.61,580.152 2116.88,580.115 2119.15,580.1 2121.42,580.106 2123.68,580.136 2125.95,580.19 2128.22,580.27 2130.49,580.376 2132.76,580.511 2135.02,580.675 2137.29,580.87 2139.56,581.099 2141.83,581.361 2144.1,581.66 2146.37,581.997 2148.63,582.374 2150.9,582.792 2153.17,583.256 2155.44,583.762 2157.71,584.32 2159.97,584.933 2162.24,585.604 2164.51,586.333 2166.78,587.126 2169.05,587.985 2171.31,588.915 2173.58,589.921 2175.85,591.009 2178.12,592.186 2180.39,593.458 2182.65,594.834 2184.92,596.321 2187.19,597.929 2189.46,599.668 2191.73,601.547 2193.99,603.576 2196.26,605.769 2198.53,608.153 2200.8,610.74 2203.07,613.545 2205.33,616.589 2207.6,619.897 2209.87,623.501 2212.14,627.437 2214.41,631.747 2216.67,636.477 2218.94,641.679 2221.21,647.406 2223.48,653.723 2225.75,660.762 2228.01,668.589 2230.28,677.308 2232.55,687.062 2234.82,698.03 2237.09,710.432 2239.35,724.526 2241.62,740.608 2243.89,759.018 2246.16,780.186 2248.43,804.627 2250.69,832.893 2252.96,865.577 2255.23,903.284 2257.5,946.437 2259.77,995.101 2262.03,1048.61 2264.3,1105.5 2266.57,1163.04 2268.84,1217.98 2271.11,1267.07 2273.37,1308.07 2275.64,1340.29 2277.91,1364.31 2280.18,1381.49 2282.45,1393.39 2284.71,1401.41 2286.98,1406.7 2289.25,1410.1 2291.52,1412.19 2293.79,1413.4 2296.06,1414 2298.32,1414.2 2300.59,1414.11 2302.86,1413.82 2305.13,1413.4 2307.4,1412.89 2309.66,1412.3 2311.93,1411.67 2314.2,1410.99 2316.47,1410.29 2318.74,1409.57 2321,1408.83 2323.27,1408.08 2325.54,1407.31 2327.81,1406.54 2330.08,1405.75 2332.34,1404.96 2334.61,1404.15 2336.88,1403.34 2339.15,1402.52 2341.42,1401.7 2343.68,1400.87 2345.95,1400.03 2348.22,1399.18 2350.49,1398.32 2352.76,1397.46 "/>
<polyline clip-path="url(#clip492)" style="stroke:#e26f46; stroke-linecap:round; stroke-linejoin:round; stroke-width:8; stroke-opacity:1; fill:none" points="86.9921,1241.38 89.2602,1194.61 91.5282,1128.4 93.7962,1030.73 96.0643,882.636 98.3323,666.035 100.6,405.877 102.868,203.532 105.136,112.194 107.404,88.5087 109.672,90.2075 111.94,99.863 114.209,111.852 116.477,124.466 118.745,137.187 121.013,149.859 123.281,162.431 125.549,174.89 127.817,187.231 130.085,199.454 132.353,211.56 134.621,223.549 136.889,235.423 139.157,247.182 141.425,258.829 143.693,270.363 145.961,281.787 148.229,293.101 150.497,304.307 152.765,315.405 155.033,326.397 157.301,337.283 159.569,348.066 161.837,358.745 164.105,369.322 166.373,379.799 168.641,390.175 170.909,400.453 173.177,410.633 175.445,420.716 177.713,430.703 179.981,440.595 182.249,450.393 184.517,460.099 186.786,469.712 189.054,479.234 191.322,488.667 193.59,498.01 195.858,507.265 198.126,516.432 200.394,525.514 202.662,534.51 204.93,543.421 207.198,552.248 209.466,560.992 211.734,569.655 214.002,578.236 216.27,586.737 218.538,595.159 220.806,603.502 223.074,611.768 225.342,619.956 227.61,628.068 229.878,636.105 232.146,644.067 234.414,651.955 236.682,659.77 238.95,667.513 241.218,675.184 243.486,682.785 245.754,690.316 248.022,697.777 250.29,705.17 252.558,712.495 254.826,719.753 257.095,726.945 259.363,734.071 261.631,741.132 263.899,748.128 266.167,755.061 268.435,761.932 270.703,768.74 272.971,775.486 275.239,782.172 277.507,788.797 279.775,795.362 282.043,801.869 284.311,808.317 286.579,814.707 288.847,821.04 291.115,827.317 293.383,833.538 295.651,839.704 297.919,845.816 300.187,851.873 302.455,857.876 304.723,863.827 306.991,869.725 309.259,875.572 311.527,881.367 313.795,887.112 316.063,892.807 318.331,898.452 320.599,904.048 322.867,909.596 325.135,915.096 327.403,920.549 329.672,925.955 331.94,931.315 334.208,936.628 336.476,941.897 338.744,947.121 341.012,952.3 343.28,957.436 345.548,962.528 347.816,967.577 350.084,972.585 352.352,977.55 354.62,982.475 356.888,987.358 359.156,992.201 361.424,997.004 363.692,1001.77 365.96,1006.49 368.228,1011.18 370.496,1015.83 372.764,1020.44 375.032,1025.01 377.3,1029.54 379.568,1034.04 381.836,1038.51 384.104,1042.94 386.372,1047.33 388.64,1051.69 390.908,1056.01 393.176,1060.3 395.444,1064.56 397.712,1068.78 399.981,1072.97 402.249,1077.13 404.517,1081.26 406.785,1085.35 409.053,1089.41 411.321,1093.45 413.589,1097.45 415.857,1101.42 418.125,1105.36 420.393,1109.28 422.661,1113.16 424.929,1117.02 427.197,1120.84 429.465,1124.64 431.733,1128.42 434.001,1132.16 436.269,1135.88 438.537,1139.57 440.805,1143.23 443.073,1146.87 445.341,1150.48 447.609,1154.07 449.877,1157.63 452.145,1161.17 454.413,1164.68 456.681,1168.17 458.949,1171.63 461.217,1175.07 463.485,1178.49 465.753,1181.89 468.021,1185.26 470.29,1188.61 472.558,1191.93 474.826,1195.24 477.094,1198.52 479.362,1201.78 481.63,1205.02 483.898,1208.23 486.166,1211.43 488.434,1214.61 490.702,1217.76 492.97,1220.9 495.238,1224.01 497.506,1227.11 499.774,1230.18 502.042,1233.24 504.31,1236.27 506.578,1239.29 508.846,1242.28 511.114,1245.26 513.382,1248.22 515.65,1251.16 517.918,1254.08 520.186,1256.98 522.454,1259.87 524.722,1262.73 526.99,1265.58 529.258,1268.41 531.526,1271.22 533.794,1274.01 536.062,1276.79 538.33,1279.55 540.598,1282.28 542.867,1285 545.135,1287.71 547.403,1290.39 549.671,1293.06 551.939,1295.7 554.207,1298.33 556.475,1300.94 558.743,1303.54 561.011,1306.11 563.279,1308.67 565.547,1311.21 567.815,1313.73 570.083,1316.23 572.351,1318.71 574.619,1321.17 576.887,1323.62 579.155,1326.04 581.423,1328.45 583.691,1330.84 585.959,1333.2 588.227,1335.55 590.495,1337.88 592.763,1340.18 595.031,1342.47 597.299,1344.74 599.567,1346.98 601.835,1349.21 604.103,1351.41 606.371,1353.59 608.639,1355.75 610.907,1357.89 613.176,1360.01 615.444,1362.1 617.712,1364.18 619.98,1366.23 622.248,1368.25 624.516,1370.26 626.784,1372.24 629.052,1374.2 631.32,1376.13 633.588,1378.04 635.856,1379.93 638.124,1381.79 640.392,1383.63 642.66,1385.44 644.928,1387.23 647.196,1389 649.464,1390.73 651.732,1392.45 654,1394.14 656.268,1395.8 658.536,1397.44 660.804,1399.05 663.072,1400.64 665.34,1402.2 667.608,1403.74 669.876,1405.25 672.144,1406.73 674.412,1408.19 676.68,1409.62 678.948,1411.03 681.216,1412.41 683.484,1413.77 685.753,1415.1 688.021,1416.41 690.289,1417.69 692.557,1418.94 694.825,1420.17 697.093,1421.38 699.361,1422.56 701.629,1423.71 703.897,1424.84 706.165,1425.95 708.433,1427.03 710.701,1428.09 712.969,1429.13 715.237,1430.14 717.505,1431.13 719.773,1432.1 722.041,1433.04 724.309,1433.96 726.577,1434.86 728.845,1435.74 731.113,1436.6 733.381,1437.43 735.649,1438.25 737.917,1439.04 740.185,1439.82 742.453,1440.57 744.721,1441.31 746.989,1442.03 749.257,1442.72 751.525,1443.4 753.793,1444.06 756.062,1444.71 758.33,1445.33 760.598,1445.94 762.866,1446.53 765.134,1447.11 767.402,1447.67 769.67,1448.21 771.938,1448.74 774.206,1449.25 776.474,1449.75 778.742,1450.24 781.01,1450.71 783.278,1451.16 785.546,1451.61 787.814,1452.04 790.082,1452.45 792.35,1452.86 794.618,1453.25 796.886,1453.63 799.154,1454 801.422,1454.36 803.69,1454.71 805.958,1455.04 808.226,1455.37 810.494,1455.68 812.762,1455.99 815.03,1456.29 817.298,1456.57 819.566,1456.85 821.834,1457.12 824.102,1457.38 826.37,1457.63 828.639,1457.88 830.907,1458.11 833.175,1458.34 835.443,1458.56 837.711,1458.78 839.979,1458.98 842.247,1459.18 844.515,1459.38 846.783,1459.56 849.051,1459.74 851.319,1459.92 853.587,1460.09 855.855,1460.25 858.123,1460.41 860.391,1460.56 862.659,1460.7 864.927,1460.85 867.195,1460.98 869.463,1461.11 871.731,1461.24 873.999,1461.36 876.267,1461.48 878.535,1461.6 880.803,1461.71 883.071,1461.81 885.339,1461.91 887.607,1462.01 889.875,1462.11 892.143,1462.2 894.411,1462.29 896.679,1462.37 898.948,1462.45 901.216,1462.53 903.484,1462.61 905.752,1462.68 908.02,1462.75 910.288,1462.81 912.556,1462.88 914.824,1462.94 917.092,1463 919.36,1463.06 921.628,1463.11 923.896,1463.16 926.164,1463.21 928.432,1463.26 930.7,1463.3 932.968,1463.35 935.236,1463.39 937.504,1463.43 939.772,1463.47 942.04,1463.5 944.308,1463.54 946.576,1463.57 948.844,1463.6 951.112,1463.63 953.38,1463.66 955.648,1463.69 957.916,1463.71 960.184,1463.74 962.452,1463.76 964.72,1463.78 966.988,1463.8 969.257,1463.82 971.525,1463.84 973.793,1463.86 976.061,1463.87 978.329,1463.89 980.597,1463.9 982.865,1463.91 985.133,1463.92 987.401,1463.93 989.669,1463.94 991.937,1463.95 994.205,1463.96 996.473,1463.97 998.741,1463.97 1001.01,1463.98 1003.28,1463.98 1005.55,1463.99 1007.81,1463.99 1010.08,1463.99 1012.35,1463.99 1014.62,1463.99 1016.89,1464 1019.15,1464 1021.42,1463.99 1023.69,1463.99 1025.96,1463.99 1028.23,1463.99 1030.49,1463.99 1032.76,1463.98 1035.03,1463.98 1037.3,1463.97 1039.57,1463.97 1041.83,1463.96 1044.1,1463.96 1046.37,1463.95 1048.64,1463.94 1050.91,1463.94 1053.17,1463.93 1055.44,1463.92 1057.71,1463.91 1059.98,1463.9 1062.25,1463.89 1064.51,1463.89 1066.78,1463.88 1069.05,1463.87 1071.32,1463.86 1073.59,1463.84 1075.85,1463.83 1078.12,1463.82 1080.39,1463.81 1082.66,1463.8 1084.93,1463.79 1087.19,1463.77 1089.46,1463.76 1091.73,1463.75 1094,1463.73 1096.27,1463.72 1098.53,1463.71 1100.8,1463.69 1103.07,1463.68 1105.34,1463.66 1107.61,1463.65 1109.87,1463.63 1112.14,1463.62 1114.41,1463.6 1116.68,1463.59 1118.95,1463.57 1121.21,1463.56 1123.48,1463.54 1125.75,1463.52 1128.02,1463.51 1130.29,1463.49 1132.55,1463.47 1134.82,1463.46 1137.09,1463.44 1139.36,1463.42 1141.63,1463.4 1143.89,1463.39 1146.16,1463.37 1148.43,1463.35 1150.7,1463.33 1152.97,1463.31 1155.24,1463.3 1157.5,1463.28 1159.77,1463.26 1162.04,1463.24 1164.31,1463.22 1166.58,1463.2 1168.84,1463.18 1171.11,1463.16 1173.38,1463.14 1175.65,1463.12 1177.92,1463.1 1180.18,1463.08 1182.45,1463.06 1184.72,1463.04 1186.99,1463.02 1189.26,1463 1191.52,1462.98 1193.79,1462.96 1196.06,1462.94 1198.33,1462.92 1200.6,1462.9 1202.86,1462.88 1205.13,1462.85 1207.4,1462.83 1209.67,1462.81 1211.94,1462.79 1214.2,1462.77 1216.47,1462.75 1218.74,1462.72 1221.01,1462.7 1223.28,1462.68 1225.54,1462.66 1227.81,1462.64 1230.08,1462.61 1232.35,1462.59 1234.62,1462.57 1236.88,1462.55 1239.15,1462.52 1241.42,1462.5 1243.69,1462.48 1245.96,1462.45 1248.22,1462.43 1250.49,1462.41 1252.76,1462.38 1255.03,1462.36 1257.3,1462.34 1259.56,1462.31 1261.83,1462.29 1264.1,1462.26 1266.37,1462.24 1268.64,1462.22 1270.9,1462.19 1273.17,1462.17 1275.44,1462.14 1277.71,1462.12 1279.98,1462.09 1282.24,1462.07 1284.51,1462.05 1286.78,1462.02 1289.05,1462 1291.32,1461.97 1293.59,1461.95 1295.85,1461.92 1298.12,1461.89 1300.39,1461.87 1302.66,1461.84 1304.93,1461.82 1307.19,1461.79 1309.46,1461.77 1311.73,1461.74 1314,1461.71 1316.27,1461.69 1318.53,1461.66 1320.8,1461.64 1323.07,1461.61 1325.34,1461.58 1327.61,1461.56 1329.87,1461.53 1332.14,1461.5 1334.41,1461.48 1336.68,1461.45 1338.95,1461.42 1341.21,1461.39 1343.48,1461.37 1345.75,1461.34 1348.02,1461.31 1350.29,1461.28 1352.55,1461.26 1354.82,1461.23 1357.09,1461.2 1359.36,1461.17 1361.63,1461.15 1363.89,1461.12 1366.16,1461.09 1368.43,1461.06 1370.7,1461.03 1372.97,1461 1375.23,1460.97 1377.5,1460.95 1379.77,1460.92 1382.04,1460.89 1384.31,1460.86 1386.57,1460.83 1388.84,1460.8 1391.11,1460.77 1393.38,1460.74 1395.65,1460.71 1397.91,1460.68 1400.18,1460.65 1402.45,1460.62 1404.72,1460.59 1406.99,1460.56 1409.25,1460.53 1411.52,1460.5 1413.79,1460.47 1416.06,1460.44 1418.33,1460.41 1420.59,1460.38 1422.86,1460.35 1425.13,1460.31 1427.4,1460.28 1429.67,1460.25 1431.93,1460.22 1434.2,1460.19 1436.47,1460.16 1438.74,1460.12 1441.01,1460.09 1443.28,1460.06 1445.54,1460.03 1447.81,1460 1450.08,1459.96 1452.35,1459.93 1454.62,1459.9 1456.88,1459.87 1459.15,1459.83 1461.42,1459.8 1463.69,1459.77 1465.96,1459.73 1468.22,1459.7 1470.49,1459.67 1472.76,1459.63 1475.03,1459.6 1477.3,1459.56 1479.56,1459.53 1481.83,1459.49 1484.1,1459.46 1486.37,1459.43 1488.64,1459.39 1490.9,1459.36 1493.17,1459.32 1495.44,1459.29 1497.71,1459.25 1499.98,1459.21 1502.24,1459.18 1504.51,1459.14 1506.78,1459.11 1509.05,1459.07 1511.32,1459.03 1513.58,1459 1515.85,1458.96 1518.12,1458.92 1520.39,1458.89 1522.66,1458.85 1524.92,1458.81 1527.19,1458.78 1529.46,1458.74 1531.73,1458.7 1534,1458.66 1536.26,1458.63 1538.53,1458.59 1540.8,1458.55 1543.07,1458.51 1545.34,1458.47 1547.6,1458.43 1549.87,1458.39 1552.14,1458.35 1554.41,1458.32 1556.68,1458.28 1558.94,1458.24 1561.21,1458.2 1563.48,1458.16 1565.75,1458.12 1568.02,1458.07 1570.28,1458.03 1572.55,1457.99 1574.82,1457.95 1577.09,1457.91 1579.36,1457.87 1581.63,1457.83 1583.89,1457.79 1586.16,1457.74 1588.43,1457.7 1590.7,1457.66 1592.97,1457.62 1595.23,1457.57 1597.5,1457.53 1599.77,1457.49 1602.04,1457.44 1604.31,1457.4 1606.57,1457.36 1608.84,1457.31 1611.11,1457.27 1613.38,1457.22 1615.65,1457.18 1617.91,1457.13 1620.18,1457.09 1622.45,1457.04 1624.72,1457 1626.99,1456.95 1629.25,1456.9 1631.52,1456.86 1633.79,1456.81 1636.06,1456.76 1638.33,1456.72 1640.59,1456.67 1642.86,1456.62 1645.13,1456.57 1647.4,1456.53 1649.67,1456.48 1651.93,1456.43 1654.2,1456.38 1656.47,1456.33 1658.74,1456.28 1661.01,1456.23 1663.27,1456.18 1665.54,1456.13 1667.81,1456.08 1670.08,1456.03 1672.35,1455.98 1674.61,1455.93 1676.88,1455.88 1679.15,1455.82 1681.42,1455.77 1683.69,1455.72 1685.95,1455.67 1688.22,1455.61 1690.49,1455.56 1692.76,1455.51 1695.03,1455.45 1697.29,1455.4 1699.56,1455.34 1701.83,1455.29 1704.1,1455.23 1706.37,1455.18 1708.63,1455.12 1710.9,1455.07 1713.17,1455.01 1715.44,1454.95 1717.71,1454.89 1719.98,1454.84 1722.24,1454.78 1724.51,1454.72 1726.78,1454.66 1729.05,1454.6 1731.32,1454.54 1733.58,1454.48 1735.85,1454.42 1738.12,1454.36 1740.39,1454.3 1742.66,1454.24 1744.92,1454.18 1747.19,1454.11 1749.46,1454.05 1751.73,1453.99 1754,1453.92 1756.26,1453.86 1758.53,1453.79 1760.8,1453.73 1763.07,1453.66 1765.34,1453.6 1767.6,1453.53 1769.87,1453.46 1772.14,1453.4 1774.41,1453.33 1776.68,1453.26 1778.94,1453.19 1781.21,1453.12 1783.48,1453.05 1785.75,1452.98 1788.02,1452.91 1790.28,1452.84 1792.55,1452.77 1794.82,1452.7 1797.09,1452.62 1799.36,1452.55 1801.62,1452.48 1803.89,1452.4 1806.16,1452.33 1808.43,1452.25 1810.7,1452.18 1812.96,1452.1 1815.23,1452.02 1817.5,1451.94 1819.77,1451.86 1822.04,1451.79 1824.3,1451.71 1826.57,1451.63 1828.84,1451.54 1831.11,1451.46 1833.38,1451.38 1835.64,1451.3 1837.91,1451.21 1840.18,1451.13 1842.45,1451.04 1844.72,1450.96 1846.98,1450.87 1849.25,1450.78 1851.52,1450.69 1853.79,1450.61 1856.06,1450.52 1858.32,1450.42 1860.59,1450.33 1862.86,1450.24 1865.13,1450.15 1867.4,1450.05 1869.67,1449.96 1871.93,1449.86 1874.2,1449.77 1876.47,1449.67 1878.74,1449.57 1881.01,1449.47 1883.27,1449.37 1885.54,1449.27 1887.81,1449.17 1890.08,1449.06 1892.35,1448.96 1894.61,1448.86 1896.88,1448.75 1899.15,1448.64 1901.42,1448.53 1903.69,1448.42 1905.95,1448.31 1908.22,1448.2 1910.49,1448.09 1912.76,1447.97 1915.03,1447.86 1917.29,1447.74 1919.56,1447.62 1921.83,1447.5 1924.1,1447.38 1926.37,1447.26 1928.63,1447.14 1930.9,1447.01 1933.17,1446.89 1935.44,1446.76 1937.71,1446.63 1939.97,1446.5 1942.24,1446.37 1944.51,1446.23 1946.78,1446.1 1949.05,1445.96 1951.31,1445.82 1953.58,1445.68 1955.85,1445.54 1958.12,1445.4 1960.39,1445.25 1962.65,1445.1 1964.92,1444.95 1967.19,1444.8 1969.46,1444.65 1971.73,1444.49 1973.99,1444.34 1976.26,1444.18 1978.53,1444.01 1980.8,1443.85 1983.07,1443.68 1985.33,1443.52 1987.6,1443.34 1989.87,1443.17 1992.14,1442.99 1994.41,1442.82 1996.67,1442.63 1998.94,1442.45 2001.21,1442.26 2003.48,1442.07 2005.75,1441.88 2008.02,1441.69 2010.28,1441.49 2012.55,1441.29 2014.82,1441.08 2017.09,1440.87 2019.36,1440.66 2021.62,1440.45 2023.89,1440.23 2026.16,1440.01 2028.43,1439.78 2030.7,1439.55 2032.96,1439.31 2035.23,1439.08 2037.5,1438.83 2039.77,1438.59 2042.04,1438.33 2044.3,1438.08 2046.57,1437.82 2048.84,1437.55 2051.11,1437.28 2053.38,1437 2055.64,1436.72 2057.91,1436.43 2060.18,1436.14 2062.45,1435.84 2064.72,1435.54 2066.98,1435.22 2069.25,1434.9 2071.52,1434.58 2073.79,1434.25 2076.06,1433.91 2078.32,1433.56 2080.59,1433.2 2082.86,1432.84 2085.13,1432.46 2087.4,1432.08 2089.66,1431.69 2091.93,1431.29 2094.2,1430.88 2096.47,1430.45 2098.74,1430.02 2101,1429.58 2103.27,1429.12 2105.54,1428.66 2107.81,1428.17 2110.08,1427.68 2112.34,1427.17 2114.61,1426.65 2116.88,1426.11 2119.15,1425.55 2121.42,1424.98 2123.68,1424.39 2125.95,1423.79 2128.22,1423.16 2130.49,1422.52 2132.76,1421.85 2135.02,1421.16 2137.29,1420.44 2139.56,1419.7 2141.83,1418.93 2144.1,1418.14 2146.37,1417.31 2148.63,1416.46 2150.9,1415.57 2153.17,1414.64 2155.44,1413.68 2157.71,1412.68 2159.97,1411.63 2162.24,1410.54 2164.51,1409.4 2166.78,1408.21 2169.05,1406.96 2171.31,1405.66 2173.58,1404.29 2175.85,1402.85 2178.12,1401.35 2180.39,1399.76 2182.65,1398.08 2184.92,1396.31 2187.19,1394.44 2189.46,1392.45 2191.73,1390.35 2193.99,1388.12 2196.26,1385.74 2198.53,1383.2 2200.8,1380.49 2203.07,1377.58 2205.33,1374.46 2207.6,1371.12 2209.87,1367.51 2212.14,1363.6 2214.41,1359.37 2216.67,1354.76 2218.94,1349.72 2221.21,1344.21 2223.48,1338.17 2225.75,1331.48 2228.01,1324.06 2230.28,1315.83 2232.55,1306.65 2234.82,1296.36 2237.09,1284.74 2239.35,1271.55 2241.62,1256.52 2243.89,1239.32 2246.16,1219.54 2248.43,1196.71 2250.69,1170.3 2252.96,1139.75 2255.23,1104.51 2257.5,1064.2 2259.77,1018.81 2262.03,969.046 2264.3,916.428 2266.57,863.678 2268.84,814.047 2271.11,770.735 2273.37,735.905 2275.64,710.159 2277.91,692.827 2280.18,682.474 2282.45,677.474 2284.71,676.376 2286.98,678.013 2289.25,681.519 2291.52,686.283 2293.79,691.881 2296.06,698.023 2298.32,704.512 2300.59,711.218 2302.86,718.052 2305.13,724.953 2307.4,731.88 2309.66,738.807 2311.93,745.715 2314.2,752.59 2316.47,759.425 2318.74,766.214 2321,772.952 2323.27,779.638 2325.54,786.269 2327.81,792.844 2330.08,799.364 2332.34,805.828 2334.61,812.235 2336.88,818.586 2339.15,824.882 2341.42,831.122 2343.68,837.307 2345.95,843.438 2348.22,849.515 2350.49,855.539 2352.76,861.509 "/>
<path clip-path="url(#clip490)" d="M2021.07 251.365 L2277.23 251.365 L2277.23 95.8446 L2021.07 95.8446  Z" fill="#ffffff" fill-rule="evenodd" fill-opacity="1"/>
<polyline clip-path="url(#clip490)" style="stroke:#000000; stroke-linecap:round; stroke-linejoin:round; stroke-width:4; stroke-opacity:1; fill:none" points="2021.07,251.365 2277.23,251.365 2277.23,95.8446 2021.07,95.8446 2021.07,251.365 "/>
<polyline clip-path="url(#clip490)" style="stroke:#009af9; stroke-linecap:round; stroke-linejoin:round; stroke-width:8; stroke-opacity:1; fill:none" points="2046.25,147.685 2197.3,147.685 "/>
<path clip-path="url(#clip490)" d="M2222.47 130.405 L2227.5 130.405 L2237.08 144.618 L2246.59 130.405 L2251.62 130.405 L2239.39 148.506 L2239.39 164.965 L2234.69 164.965 L2234.69 148.506 L2222.47 130.405 Z" fill="#000000" fill-rule="nonzero" fill-opacity="1" /><polyline clip-path="url(#clip490)" style="stroke:#e26f46; stroke-linecap:round; stroke-linejoin:round; stroke-width:8; stroke-opacity:1; fill:none" points="2046.25,199.525 2197.3,199.525 "/>
<path clip-path="url(#clip490)" d="M2224.05 182.245 L2229.07 182.245 L2237.66 195.092 L2246.29 182.245 L2251.31 182.245 L2240.2 198.842 L2252.06 216.805 L2247.03 216.805 L2237.31 202.106 L2227.52 216.805 L2222.47 216.805 L2234.81 198.356 L2224.05 182.245 Z" fill="#000000" fill-rule="nonzero" fill-opacity="1" /></svg>
